<svg width="24" height="25" viewBox="0 0 24 25" fill="none" xmlns="http://www.w3.org/2000/svg">
<g clip-path="url(#clip0_83_699)">
<path fill-rule="evenodd" clip-rule="evenodd" d="M21 12.09C21 12.5042 20.6642 12.84 20.25 12.84H12.75V20.34C12.75 20.7542 12.4142 21.09 12 21.09C11.5858 21.09 11.25 20.7542 11.25 20.34V12.84H3.75C3.33579 12.84 3 12.5042 3 12.09C3 11.6758 3.33579 11.34 3.75 11.34H11.25V3.84C11.25 3.42578 11.5858 3.09 12 3.09C12.4142 3.09 12.75 3.42578 12.75 3.84V11.34H20.25C20.6642 11.34 21 11.6758 21 12.09Z" fill="#F8F9FA"/>
</g>
<defs>
<clipPath id="clip0_83_699">
<rect width="24" height="24" fill="white" transform="translate(0 0.0899963)"/>
</clipPath>
</defs>
</svg>
