<svg width="40" height="40" viewBox="0 0 40 40" fill="none" xmlns="http://www.w3.org/2000/svg">
<g clip-path="url(#clip0_204_422)">
<path fill-rule="evenodd" clip-rule="evenodd" d="M33.75 8.75H27.5V7.5C27.5 5.42893 25.8211 3.75 23.75 3.75H16.25C14.1789 3.75 12.5 5.42893 12.5 7.5V8.75H6.25C4.86929 8.75 3.75 9.86929 3.75 11.25V31.25C3.75 32.6307 4.86929 33.75 6.25 33.75H33.75C35.1307 33.75 36.25 32.6307 36.25 31.25V11.25C36.25 9.86929 35.1307 8.75 33.75 8.75ZM15 7.5C15 6.80964 15.5596 6.25 16.25 6.25H23.75C24.4404 6.25 25 6.80964 25 7.5V8.75H15V7.5ZM33.75 11.25V17.7516C29.5309 20.0481 24.8036 21.2509 20 21.25C15.1966 21.2509 10.4694 20.0487 6.25 17.7531V11.25H33.75ZM33.75 31.25H6.25V20.5688C10.5311 22.6628 15.2342 23.7509 20 23.75C24.7659 23.7501 29.4689 22.6615 33.75 20.5672V31.25ZM16.25 17.5C16.25 16.8096 16.8096 16.25 17.5 16.25H22.5C23.1904 16.25 23.75 16.8096 23.75 17.5C23.75 18.1904 23.1904 18.75 22.5 18.75H17.5C16.8096 18.75 16.25 18.1904 16.25 17.5Z" fill="#121717"/>
</g>
<defs>
<clipPath id="clip0_204_422">
<rect width="40" height="40" fill="white"/>
</clipPath>
</defs>
</svg>
