<svg width="21" height="24" viewBox="0 0 21 24" fill="none" xmlns="http://www.w3.org/2000/svg">
<path d="M1.31777 23.25C1.06027 23.25 0.843607 23.1542 0.667773 22.9625C0.492773 22.7708 0.405273 22.5458 0.405273 22.2875V16.3275C0.405273 15.7683 0.60194 15.2917 0.995274 14.8975C1.38861 14.5033 1.86486 14.3067 2.42402 14.3075H2.90527V9.115C2.90527 8.55667 3.10194 8.08042 3.49527 7.68625C3.88861 7.29292 4.36486 7.09625 4.92402 7.09625H9.78027V5.235C9.42194 5.00167 9.12402 4.73583 8.88652 4.4375C8.64902 4.13917 8.53027 3.78833 8.53027 3.385C8.53027 3.13667 8.57694 2.90125 8.67027 2.67875C8.76361 2.45625 8.90277 2.25208 9.08777 2.06625L10.0403 1.11625C10.0653 1.09042 10.1869 1.03583 10.4053 0.9525C10.4469 0.9525 10.5686 1.00667 10.7703 1.115L11.7228 2.0675C11.9086 2.25333 12.0478 2.4575 12.1403 2.68C12.2328 2.9025 12.2794 3.1375 12.2803 3.385C12.2803 3.78833 12.1615 4.13917 11.924 4.4375C11.6874 4.73583 11.3894 5.00208 11.0303 5.23625V7.09625H15.8853C16.4453 7.09625 16.9219 7.29292 17.3153 7.68625C17.7086 8.07958 17.9053 8.55583 17.9053 9.115V14.3075H18.3865C18.9449 14.3075 19.4211 14.5042 19.8153 14.8975C20.2086 15.2917 20.4053 15.7683 20.4053 16.3275V22.2888C20.4053 22.5471 20.3094 22.7721 20.1178 22.9637C19.9261 23.1554 19.7011 23.2508 19.4428 23.25H1.31777ZM4.15527 14.3075H16.6553V9.115C16.6553 8.89083 16.5832 8.70667 16.439 8.5625C16.2949 8.41833 16.1107 8.34625 15.8865 8.34625H4.92402C4.69986 8.34625 4.51569 8.41833 4.37152 8.5625C4.22736 8.70667 4.15527 8.89083 4.15527 9.115V14.3075ZM1.65527 22H19.1553V16.3275C19.1553 16.1025 19.0832 15.9179 18.939 15.7738C18.7949 15.6296 18.6107 15.5575 18.3865 15.5575H2.42402C2.19986 15.5575 2.01569 15.6296 1.87152 15.7738C1.72736 15.9179 1.65527 16.1025 1.65527 16.3275V22Z" fill="#070808"/>
</svg>
