<svg width="40" height="36" viewBox="0 0 40 36" fill="none" xmlns="http://www.w3.org/2000/svg">
<path fill-rule="evenodd" clip-rule="evenodd" d="M39.3375 10.8969L20.5875 0.896875C20.2202 0.701319 19.7798 0.701319 19.4125 0.896875L0.6625 10.8969C0.254979 11.1141 0.000390495 11.5382 0.000390495 12C0.000390495 12.4618 0.254979 12.8859 0.6625 13.1031L5 15.4172V22.9828C4.9987 23.5968 5.22467 24.1896 5.63438 24.6469C7.68125 26.9266 12.2672 30.75 20 30.75C22.564 30.7712 25.1088 30.3068 27.5 29.3812V34.5C27.5 35.1904 28.0596 35.75 28.75 35.75C29.4404 35.75 30 35.1904 30 34.5V28.1734C31.63 27.2325 33.103 26.0426 34.3656 24.6469C34.7753 24.1896 35.0013 23.5968 35 22.9828V15.4172L39.3375 13.1031C39.745 12.8859 39.9996 12.4618 39.9996 12C39.9996 11.5382 39.745 11.1141 39.3375 10.8969ZM20 28.25C13.2391 28.25 9.2625 24.9469 7.5 22.9828V16.75L19.4125 23.1031C19.7798 23.2987 20.2202 23.2987 20.5875 23.1031L27.5 19.4172V26.6578C25.5312 27.5766 23.05 28.25 20 28.25ZM32.5 22.9766C31.7507 23.808 30.9123 24.5547 30 25.2031V18.0828L32.5 16.75V22.9766ZM29.375 15.5844L29.3406 15.5641L20.5906 10.8969C19.9833 10.5866 19.2393 10.8205 18.9187 11.4225C18.5982 12.0244 18.8193 12.7723 19.4156 13.1031L26.7188 17L20 20.5828L3.90625 12L20 3.41719L36.0938 12L29.375 15.5844Z" fill="#121717"/>
</svg>
