<svg width="21" height="23" viewBox="0 0 21 23" fill="none" xmlns="http://www.w3.org/2000/svg">
<path d="M2.90527 22.5989C2.20027 22.5989 1.60736 22.3585 1.12652 21.8776C0.64569 21.3968 0.405273 20.8039 0.405273 20.0989V18.6564C0.405273 18.1014 0.60319 17.6264 0.999023 17.2314C1.39486 16.8364 1.86986 16.6385 2.42402 16.6376H4.15527V2.11888C4.15527 1.56304 4.35319 1.08763 4.74902 0.692627C5.14486 0.297627 5.61986 0.0997103 6.17402 0.098877H18.3865C18.9415 0.098877 19.4165 0.296794 19.8115 0.692627C20.2065 1.08846 20.4044 1.56346 20.4053 2.11763V20.0989C20.4053 20.8039 20.1649 21.3968 19.684 21.8776C19.2032 22.3585 18.6103 22.5989 17.9053 22.5989H2.90527ZM17.9053 21.3489C18.2594 21.3489 18.5565 21.2289 18.7965 20.9889C19.0365 20.7489 19.1561 20.4522 19.1553 20.0989V2.11888C19.1553 1.89388 19.0832 1.70929 18.939 1.56513C18.7949 1.42096 18.6107 1.34888 18.3865 1.34888H6.17402C5.94986 1.34888 5.76569 1.42096 5.62152 1.56513C5.47736 1.70929 5.40527 1.89388 5.40527 2.11888V16.6364H14.6365C15.1915 16.6364 15.6665 16.8339 16.0615 17.2289C16.4565 17.6239 16.6544 18.0997 16.6553 18.6564V20.0989C16.6553 20.453 16.7753 20.7501 17.0153 20.9901C17.2553 21.2301 17.5519 21.3497 17.9053 21.3489ZM7.76152 6.83013C7.58402 6.83013 7.43527 6.77013 7.31527 6.65013C7.19611 6.53013 7.13652 6.38138 7.13652 6.20388C7.13652 6.02638 7.19611 5.87804 7.31527 5.75888C7.43444 5.63971 7.58319 5.58013 7.76152 5.58013H16.799C16.9765 5.58013 17.1253 5.64013 17.2453 5.76013C17.3653 5.88013 17.4249 6.02846 17.424 6.20513C17.4232 6.38179 17.3636 6.53013 17.2453 6.65013C17.1269 6.77013 16.9782 6.83013 16.799 6.83013H7.76152ZM7.76152 10.2914C7.58402 10.2914 7.43527 10.2314 7.31527 10.1114C7.19611 9.99138 7.13652 9.84263 7.13652 9.66513C7.13652 9.48763 7.19611 9.33929 7.31527 9.22013C7.43444 9.10096 7.58319 9.04138 7.76152 9.04138H16.799C16.9765 9.04138 17.1253 9.10138 17.2453 9.22138C17.3653 9.34138 17.4249 9.49013 17.424 9.66763C17.4232 9.84513 17.3636 9.99346 17.2453 10.1126C17.1269 10.2318 16.9782 10.2914 16.799 10.2914H7.76152ZM2.90527 21.3489H15.4053V18.6564C15.4053 18.4322 15.3332 18.248 15.189 18.1039C15.0449 17.9597 14.8607 17.8876 14.6365 17.8876H2.42402C2.19986 17.8876 2.01569 17.9597 1.87152 18.1039C1.72736 18.248 1.65527 18.4322 1.65527 18.6564V20.0989C1.65527 20.453 1.77527 20.7501 2.01527 20.9901C2.25527 21.2301 2.55194 21.3497 2.90527 21.3489ZM2.90527 21.3489H1.65527H15.4053H2.90527Z" fill="#070808"/>
</svg>
