<svg width="23" height="22" viewBox="0 0 23 22" fill="none" xmlns="http://www.w3.org/2000/svg">
<path d="M8.5 19H5.5C4.43913 19 3.42172 18.5786 2.67157 17.8284C1.92143 17.0783 1.5 16.0609 1.5 15V6C1.5 4.93913 1.92143 3.92172 2.67157 3.17157C3.42172 2.42143 4.43913 2 5.5 2H16.5C17.5609 2 18.5783 2.42143 19.3284 3.17157C20.0786 3.92172 20.5 4.93913 20.5 6V9M7.5 1V3M14.5 1V3M1.5 7H20.5M18 14.643L16.5 16.143" stroke="#F8F9FA" stroke-width="2" stroke-linecap="round" stroke-linejoin="round"/>
<path d="M16.5 21C19.2614 21 21.5 18.7614 21.5 16C21.5 13.2386 19.2614 11 16.5 11C13.7386 11 11.5 13.2386 11.5 16C11.5 18.7614 13.7386 21 16.5 21Z" stroke="#F8F9FA" stroke-width="2" stroke-linecap="round" stroke-linejoin="round"/>
</svg>
