<svg width="24" height="25" viewBox="0 0 24 25" fill="none" xmlns="http://www.w3.org/2000/svg">
<g clip-path="url(#clip0_216_2571)">
<path fill-rule="evenodd" clip-rule="evenodd" d="M21 10.9227V19.5898C21 20.4183 20.3284 21.0898 19.5 21.0898H15.75C14.9216 21.0898 14.25 20.4183 14.25 19.5898V15.8398C14.25 15.4256 13.9142 15.0898 13.5 15.0898H10.5C10.0858 15.0898 9.75 15.4256 9.75 15.8398V19.5898C9.75 20.4183 9.07843 21.0898 8.25 21.0898H4.5C3.67157 21.0898 3 20.4183 3 19.5898V10.9227C2.99994 10.5029 3.17573 10.1024 3.48469 9.81828L10.9847 2.74203L10.995 2.73172C11.5672 2.21134 12.4412 2.21134 13.0134 2.73172C13.0166 2.73539 13.0201 2.73883 13.0238 2.74203L20.5238 9.81828C20.8296 10.1039 21.0022 10.5042 21 10.9227Z" fill="#F8F9FA"/>
</g>
<defs>
<clipPath id="clip0_216_2571">
<rect width="24" height="24" fill="white" transform="translate(0 0.0898438)"/>
</clipPath>
</defs>
</svg>
