<svg width="31" height="31" viewBox="0 0 31 31" fill="none" xmlns="http://www.w3.org/2000/svg">
<g clip-path="url(#clip0_86_983)">
<path fill-rule="evenodd" clip-rule="evenodd" d="M24.6564 4.27576H21.881V3.35065C21.881 2.83972 21.4669 2.42554 20.9559 2.42554C20.445 2.42554 20.0308 2.83972 20.0308 3.35065V4.27576H10.7797V3.35065C10.7797 2.83972 10.3655 2.42554 9.85462 2.42554C9.34369 2.42554 8.92951 2.83972 8.92951 3.35065V4.27576H6.15418C5.13233 4.27576 4.30396 5.10413 4.30396 6.12598V24.6282C4.30396 25.65 5.13233 26.4784 6.15418 26.4784H24.6564C25.6782 26.4784 26.5066 25.65 26.5066 24.6282V6.12598C26.5066 5.10413 25.6782 4.27576 24.6564 4.27576ZM8.92951 6.12598V7.05109C8.92951 7.56201 9.34369 7.9762 9.85462 7.9762C10.3655 7.9762 10.7797 7.56201 10.7797 7.05109V6.12598H20.0308V7.05109C20.0308 7.56201 20.445 7.9762 20.9559 7.9762C21.4669 7.9762 21.881 7.56201 21.881 7.05109V6.12598H24.6564V9.82642H6.15418V6.12598H8.92951ZM24.6564 24.6282H6.15418V11.6766H24.6564V24.6282ZM13.5551 14.452V21.8528C13.5551 22.3638 13.1409 22.778 12.6299 22.778C12.119 22.778 11.7048 22.3638 11.7048 21.8528V15.9483L11.1937 16.2051C10.7364 16.4337 10.1804 16.2483 9.95175 15.7911C9.72311 15.3338 9.90846 14.7777 10.3657 14.5491L12.216 13.624C12.5028 13.4804 12.8436 13.4958 13.1165 13.6645C13.3893 13.8332 13.5553 14.1312 13.5551 14.452ZM20.3962 17.9732L18.1806 20.9277H20.0308C20.5418 20.9277 20.9559 21.3419 20.9559 21.8528C20.9559 22.3638 20.5418 22.778 20.0308 22.778H16.3304C15.98 22.778 15.6596 22.58 15.5029 22.2666C15.3462 21.9532 15.3801 21.5781 15.5903 21.2978L18.9184 16.8607C19.1246 16.5861 19.1618 16.2199 19.0149 15.9094C18.868 15.599 18.5613 15.3955 18.2181 15.3808C17.875 15.3662 17.552 15.5428 17.3792 15.8396C17.2187 16.1352 16.9105 16.3204 16.5742 16.3232C16.2379 16.3261 15.9265 16.1463 15.761 15.8535C15.5954 15.5608 15.6018 15.2012 15.7776 14.9145C16.4059 13.8272 17.686 13.2973 18.899 13.6224C20.1119 13.9474 20.9555 15.0464 20.9559 16.3022C20.9579 16.9055 20.7612 17.4927 20.3962 17.9732Z" fill="#070808"/>
</g>
<defs>
<clipPath id="clip0_86_983">
<rect width="29.6035" height="29.6035" fill="white" transform="translate(0.603516 0.575317)"/>
</clipPath>
</defs>
</svg>
