<svg width="24" height="24" viewBox="0 0 24 24" fill="none" xmlns="http://www.w3.org/2000/svg">
<path d="M18.925 3.13699C18.6438 2.85565 18.3099 2.63249 17.9424 2.48026C17.575 2.32803 17.1811 2.24972 16.7833 2.24982C16.3855 2.24991 15.9917 2.3284 15.6243 2.4808C15.2568 2.6332 14.9231 2.85652 14.642 3.13799L5.135 12.658C4.56853 13.2258 4.25028 13.995 4.25 14.797V18C4.25 18.414 4.586 18.75 5 18.75H8.223C9.026 18.75 9.796 18.43 10.363 17.863L19.863 8.35699C20.4297 7.78897 20.7479 7.01936 20.7479 6.21699C20.7479 5.41463 20.4297 4.64502 19.863 4.07699L18.925 3.13699ZM4 20.25C3.80109 20.25 3.61032 20.329 3.46967 20.4697C3.32902 20.6103 3.25 20.8011 3.25 21C3.25 21.1989 3.32902 21.3897 3.46967 21.5303C3.61032 21.671 3.80109 21.75 4 21.75H20C20.1989 21.75 20.3897 21.671 20.5303 21.5303C20.671 21.3897 20.75 21.1989 20.75 21C20.75 20.8011 20.671 20.6103 20.5303 20.4697C20.3897 20.329 20.1989 20.25 20 20.25H4Z" fill="#070808"/>
</svg>
