<svg width="19" height="20" viewBox="0 0 19 20" fill="none" xmlns="http://www.w3.org/2000/svg">
<path d="M16.425 1.13699C16.1438 0.85565 15.8099 0.632485 15.4424 0.480258C15.075 0.32803 14.6811 0.249724 14.2833 0.249817C13.8855 0.24991 13.4917 0.3284 13.1243 0.480799C12.7568 0.633198 12.4231 0.856519 12.142 1.13799L2.635 10.658C2.06853 11.2258 1.75028 11.995 1.75 12.797V16C1.75 16.414 2.086 16.75 2.5 16.75H5.723C6.526 16.75 7.296 16.43 7.863 15.863L17.363 6.35699C17.9297 5.78897 18.2479 5.01936 18.2479 4.21699C18.2479 3.41463 17.9297 2.64502 17.363 2.07699L16.425 1.13699ZM1.5 18.25C1.30109 18.25 1.11032 18.329 0.96967 18.4697C0.829018 18.6103 0.75 18.8011 0.75 19C0.75 19.1989 0.829018 19.3897 0.96967 19.5303C1.11032 19.671 1.30109 19.75 1.5 19.75H17.5C17.6989 19.75 17.8897 19.671 18.0303 19.5303C18.171 19.3897 18.25 19.1989 18.25 19C18.25 18.8011 18.171 18.6103 18.0303 18.4697C17.8897 18.329 17.6989 18.25 17.5 18.25H1.5Z" fill="#F8F9FA"/>
</svg>
