<svg width="24" height="25" viewBox="0 0 24 25" fill="none" xmlns="http://www.w3.org/2000/svg">
<g clip-path="url(#clip0_119_270)">
<path fill-rule="evenodd" clip-rule="evenodd" d="M10.9922 14.895C13.0561 13.521 13.9769 10.9577 13.2592 8.5844C12.5414 6.21114 10.3544 4.58771 7.875 4.58771C5.39558 4.58771 3.20857 6.21114 2.49084 8.5844C1.7731 10.9577 2.69393 13.521 4.75781 14.895C2.93952 15.5652 1.38666 16.8053 0.330938 18.4303C0.179932 18.6547 0.161484 18.9431 0.28266 19.185C0.403836 19.4268 0.645857 19.5847 0.916031 19.5981C1.18621 19.6115 1.44266 19.4783 1.58719 19.2497C2.97076 17.1217 5.33677 15.8379 7.875 15.8379C10.4132 15.8379 12.7792 17.1217 14.1628 19.2497C14.3917 19.5899 14.8514 19.6832 15.1948 19.4592C15.5382 19.2352 15.6381 18.7769 15.4191 18.4303C14.3633 16.8053 12.8105 15.5652 10.9922 14.895ZM3.75 10.215C3.75 7.93682 5.59683 6.09 7.875 6.09C10.1532 6.09 12 7.93682 12 10.215C12 12.4932 10.1532 14.34 7.875 14.34C5.5979 14.3374 3.75258 12.4921 3.75 10.215ZM23.4506 19.4681C23.1037 19.6943 22.6391 19.5965 22.4128 19.2497C21.0308 17.1203 18.6636 15.8366 16.125 15.84C15.7108 15.84 15.375 15.5042 15.375 15.09C15.375 14.6758 15.7108 14.34 16.125 14.34C17.7863 14.3384 19.2846 13.3404 19.9261 11.808C20.5677 10.2755 20.2273 8.50779 19.0626 7.32311C17.898 6.13843 16.1363 5.76805 14.5931 6.38343C14.3427 6.49171 14.0531 6.45541 13.8372 6.28864C13.6212 6.12187 13.5128 5.85096 13.5542 5.58125C13.5956 5.31153 13.7802 5.08558 14.0363 4.99125C16.7109 3.92456 19.7592 5.05 21.099 7.59882C22.4388 10.1476 21.6374 13.2967 19.2422 14.895C21.0605 15.5652 22.6133 16.8053 23.6691 18.4303C23.8953 18.7772 23.7975 19.2418 23.4506 19.4681Z" fill="#F8F9FA"/>
</g>
<defs>
<clipPath id="clip0_119_270">
<rect width="24" height="24" fill="white" transform="translate(0 0.0899963)"/>
</clipPath>
</defs>
</svg>
