<svg width="22" height="14" viewBox="0 0 22 14" fill="none" xmlns="http://www.w3.org/2000/svg">
<path fill-rule="evenodd" clip-rule="evenodd" d="M20.7498 6.99999L21.3723 6.68799V6.68499L21.3678 6.68049L21.3588 6.66249L21.3273 6.60249L21.2073 6.38649C21.0609 6.1339 20.9053 5.88673 20.7408 5.64549C20.192 4.83991 19.5611 4.09342 18.8583 3.41799C17.1693 1.79799 14.5698 0.144989 10.9998 0.144989C7.43283 0.144989 4.83183 1.79649 3.14283 3.41799C2.44002 4.09342 1.80915 4.83991 1.26033 5.64549C1.03764 5.97406 0.831385 6.31348 0.642331 6.66249L0.633331 6.68049L0.630331 6.68499V6.68649C0.630331 6.68649 0.628831 6.68799 1.25133 6.99999L0.628831 6.68649C0.580703 6.78372 0.555664 6.89075 0.555664 6.99924C0.555664 7.10773 0.580703 7.21476 0.628831 7.31199L0.627331 7.31499L0.631831 7.31949L0.640831 7.33749C0.687604 7.43121 0.737635 7.52326 0.790831 7.61349C1.43673 8.7046 2.22685 9.70361 3.13983 10.5835C4.83033 12.2035 7.42983 13.8535 10.9998 13.8535C14.5683 13.8535 17.1693 12.2035 18.8598 10.582C19.5613 9.90575 20.1916 9.15934 20.7408 8.35449C20.9512 8.04481 21.1469 7.72546 21.3273 7.39749L21.3588 7.33749L21.3678 7.31949L21.3708 7.31499V7.31349C21.3708 7.31349 21.3723 7.31199 20.7498 6.99999ZM20.7498 6.99999L21.3723 7.31349C21.4205 7.21626 21.4455 7.10923 21.4455 7.00074C21.4455 6.89225 21.4205 6.78522 21.3723 6.68799L20.7498 6.99999ZM10.9098 4.69599C10.2988 4.69599 9.71274 4.93873 9.28066 5.37082C8.84857 5.8029 8.60583 6.38893 8.60583 6.99999C8.60583 7.61105 8.84857 8.19708 9.28066 8.62916C9.71274 9.06125 10.2988 9.30399 10.9098 9.30399C11.5209 9.30399 12.1069 9.06125 12.539 8.62916C12.9711 8.19708 13.2138 7.61105 13.2138 6.99999C13.2138 6.38893 12.9711 5.8029 12.539 5.37082C12.1069 4.93873 11.5209 4.69599 10.9098 4.69599ZM7.21683 6.99999C7.21683 6.01975 7.60623 5.07966 8.29936 4.38652C8.9925 3.69339 9.93259 3.30399 10.9128 3.30399C11.8931 3.30399 12.8332 3.69339 13.5263 4.38652C14.2194 5.07966 14.6088 6.01975 14.6088 6.99999C14.6088 7.98023 14.2194 8.92032 13.5263 9.61346C12.8332 10.3066 11.8931 10.696 10.9128 10.696C9.93259 10.696 8.9925 10.3066 8.29936 9.61346C7.60623 8.92032 7.21683 7.98023 7.21683 6.99999Z" fill="#070808"/>
</svg>
