<svg width="40" height="40" viewBox="0 0 40 40" fill="none" xmlns="http://www.w3.org/2000/svg">
<g clip-path="url(#clip0_204_444)">
<path fill-rule="evenodd" clip-rule="evenodd" d="M33.3844 12.8656L24.6344 4.11562C24.3998 3.88126 24.0816 3.74974 23.75 3.75H8.75C7.36929 3.75 6.25 4.86929 6.25 6.25V33.75C6.25 35.1307 7.36929 36.25 8.75 36.25H31.25C32.6307 36.25 33.75 35.1307 33.75 33.75V13.75C33.7503 13.4184 33.6187 13.1002 33.3844 12.8656ZM25 8.01719L29.4828 12.5H25V8.01719ZM31.25 33.75H8.75V6.25H22.5V13.75C22.5 14.4404 23.0596 15 23.75 15H31.25V33.75Z" fill="#121717"/>
</g>
<defs>
<clipPath id="clip0_204_444">
<rect width="40" height="40" fill="white"/>
</clipPath>
</defs>
</svg>
