<svg width="27" height="29" viewBox="0 0 27 29" fill="none" xmlns="http://www.w3.org/2000/svg">
<path d="M21.4053 14.2159V6.40213C21.4054 6.30346 21.386 6.20575 21.3482 6.11459C21.3105 6.02342 21.2551 5.94061 21.1853 5.87088L17.2503 1.93588C17.1098 1.79519 16.9191 1.71606 16.7203 1.71588H2.15527C1.95636 1.71588 1.7656 1.7949 1.62494 1.93555C1.48429 2.0762 1.40527 2.26697 1.40527 2.46588V25.9659C1.40527 26.1648 1.48429 26.3556 1.62494 26.4962C1.7656 26.6369 1.95636 26.7159 2.15527 26.7159H12.6553M6.40527 11.7159H16.4053M6.40527 6.71588H11.4053M6.40527 16.7159H10.1553" stroke="#070808" stroke-width="1.875" stroke-linecap="round" stroke-linejoin="round"/>
<path d="M16.4053 1.71588V5.96588C16.4053 6.16479 16.4843 6.35556 16.6249 6.49621C16.7656 6.63686 16.9564 6.71588 17.1553 6.71588H21.4053M21.3953 18.1221L24.5903 18.9334C24.9228 19.0184 25.1565 19.3209 25.1465 19.6634C24.9315 26.8609 20.7803 27.9659 20.7803 27.9659C20.7803 27.9659 16.629 26.8609 16.414 19.6634C16.4106 19.4968 16.4637 19.3339 16.5648 19.2013C16.6658 19.0687 16.8087 18.9743 16.9703 18.9334L20.1653 18.1221C20.569 18.0196 20.9915 18.0196 21.3953 18.1221Z" stroke="#070808" stroke-width="1.875" stroke-linecap="round" stroke-linejoin="round"/>
</svg>
