<svg width="14" height="16" viewBox="0 0 14 16" fill="none" xmlns="http://www.w3.org/2000/svg">
<path d="M12.077 4.52599L2.158 1.21899C1.858 1.11899 1.708 1.06899 1.604 1.14399C1.5 1.21899 1.5 1.37699 1.5 1.69399V8.99999L12.077 5.47399C12.665 5.27799 12.959 5.17999 12.959 4.99999C12.959 4.81999 12.665 4.72199 12.077 4.52599Z" fill="#F8F9FA"/>
<path d="M1.5 8.99999V1.69399C1.5 1.37699 1.5 1.21899 1.604 1.14399C1.708 1.06899 1.858 1.11899 2.158 1.21899L12.077 4.52599C12.665 4.72199 12.959 4.81999 12.959 4.99999C12.959 5.17999 12.665 5.27799 12.077 5.47399L1.5 8.99999ZM1.5 8.99999V15" stroke="#F8F9FA" stroke-width="2" stroke-linecap="round"/>
</svg>
