<svg width="181" height="154" viewBox="0 0 181 154" fill="none" xmlns="http://www.w3.org/2000/svg">
<path d="M152.32 93.7857C152.25 100.846 158.47 106.686 166.1 106.716C173.73 106.746 179.88 101.166 180 93.9357C180.11 86.8657 173.92 81.0257 166.25 81.0057C158.58 80.9857 152.38 86.6557 152.32 93.7857ZM162.39 90.1757C163.442 89.2854 164.776 88.7969 166.155 88.7969C167.533 88.7969 168.867 89.2854 169.92 90.1757C170.433 90.6432 170.837 91.2179 171.103 91.8591C171.369 92.5003 171.491 93.1922 171.46 93.8857C171.495 94.5766 171.374 95.2666 171.108 95.9051C170.841 96.5435 170.435 97.1143 169.92 97.5757C168.859 98.4476 167.528 98.9242 166.155 98.9242C164.782 98.9242 163.451 98.4476 162.39 97.5757C161.877 97.1141 161.473 96.5447 161.207 95.9084C160.941 95.2721 160.819 94.5847 160.85 93.8957C160.821 93.2024 160.943 92.5111 161.209 91.8703C161.475 91.2294 161.878 90.6545 162.39 90.1857" fill="white"/>
<path d="M80.7103 77.9457C81.683 78.7479 82.9045 79.1867 84.1653 79.1867C85.4261 79.1867 86.6476 78.7479 87.6203 77.9457C88.0834 77.5196 88.4471 76.9968 88.6856 76.4144C88.9241 75.832 89.0315 75.2042 89.0003 74.5757C89.0269 73.9381 88.9136 73.3024 88.6683 72.7133C88.423 72.1241 88.0516 71.5959 87.5803 71.1657C86.6162 70.3449 85.3914 69.8942 84.1253 69.8942C82.8592 69.8942 81.6344 70.3449 80.6703 71.1657C80.2046 71.5983 79.8396 72.128 79.6011 72.7172C79.3627 73.3065 79.2566 73.9409 79.2903 74.5757C79.2604 75.2092 79.3724 75.8415 79.6181 76.4262C79.8638 77.011 80.2369 77.5335 80.7103 77.9557" fill="white"/>
<path d="M74.2002 101.216C75.5116 99.1843 76.256 96.8391 76.3562 94.4233C76.4564 92.0074 75.9089 89.6087 74.7702 87.4757C73.9642 85.7778 72.7458 84.309 71.226 83.2032C69.7063 82.0975 67.9337 81.3901 66.0702 81.1457C64.4428 80.8451 62.7686 80.9156 61.1722 81.3519C59.5758 81.7882 58.0985 82.5791 56.8502 83.6657V82.1157C56.8425 81.968 56.7776 81.8292 56.6694 81.7284C56.5612 81.6276 56.4181 81.5729 56.2702 81.5757H48.8202C48.6724 81.5729 48.5293 81.6276 48.421 81.7284C48.3128 81.8292 48.248 81.968 48.2402 82.1157V117.696C48.2413 117.806 48.2727 117.914 48.3309 118.007C48.3891 118.1 48.4719 118.176 48.5702 118.226C50.4135 118.863 52.4209 118.842 54.2502 118.166C57.1202 117.276 56.8502 113.846 56.8502 113.846V104.136C64.0002 109.306 71.5602 105.706 74.2002 101.216ZM62.4002 99.0657C59.1202 99.0657 56.8602 96.9657 56.8802 93.8757C56.8346 93.1583 56.9441 92.4396 57.2014 91.7684C57.4587 91.0972 57.8576 90.4894 58.3711 89.9863C58.8846 89.4833 59.5004 89.0969 60.1768 88.8535C60.8531 88.61 61.574 88.5153 62.2902 88.5757C62.9879 88.5412 63.6852 88.6507 64.3387 88.8974C64.9922 89.144 65.588 89.5226 66.0889 90.0094C66.5898 90.4962 66.9851 91.081 67.2503 91.7272C67.5155 92.3734 67.6448 93.0673 67.6302 93.7657C67.6717 94.4661 67.5653 95.1674 67.318 95.824C67.0707 96.4806 66.6879 97.0777 66.1946 97.5767C65.7013 98.0756 65.1086 98.4652 64.4548 98.72C63.8011 98.9748 63.1011 99.0892 62.4002 99.0557" fill="white"/>
<path d="M149.07 105.456V82.1157C149.06 81.9689 148.994 81.8314 148.887 81.7312C148.779 81.6309 148.637 81.5753 148.49 81.5757H141.04C140.893 81.5753 140.751 81.6309 140.643 81.7312C140.536 81.8314 140.47 81.9689 140.46 82.1157V83.6657C139.216 82.5753 137.741 81.7827 136.145 81.3478C134.549 80.9129 132.875 80.8472 131.25 81.1557C129.385 81.3958 127.611 82.1002 126.089 83.2044C124.567 84.3087 123.347 85.7773 122.54 87.4757C121.405 89.6094 120.859 92.0068 120.957 94.4216C121.056 96.8364 121.795 99.1814 123.1 101.216C123.994 102.612 125.171 103.805 126.555 104.719C127.938 105.634 129.498 106.248 131.133 106.523C132.768 106.798 134.443 106.728 136.049 106.316C137.656 105.905 139.158 105.162 140.46 104.136V105.766C140.46 109.566 138.13 111.156 134.8 111.156C133.547 111.187 132.326 110.756 131.37 109.946C130.804 109.454 130.377 108.823 130.13 108.116C130.091 107.984 130.006 107.87 129.89 107.795C129.775 107.72 129.637 107.688 129.5 107.706L122.92 109.706C122.784 109.743 122.666 109.831 122.592 109.952C122.518 110.073 122.492 110.217 122.52 110.356V110.456C122.564 110.632 122.618 110.805 122.68 110.976C123.84 114.366 127.36 117.776 133.23 118.376C133.46 118.376 133.69 118.376 133.93 118.436C134.17 118.496 134.7 118.436 135.11 118.436C143.26 118.436 148.94 113.606 149.03 105.376M134.89 98.9857C134.189 99.0192 133.489 98.9048 132.835 98.65C132.182 98.3952 131.589 98.0056 131.096 97.5067C130.602 97.0077 130.22 96.4106 129.972 95.754C129.725 95.0974 129.619 94.3961 129.66 93.6957C129.655 93.0032 129.792 92.3169 130.061 91.679C130.331 91.041 130.727 90.4648 131.227 89.9855C131.727 89.5062 132.32 89.1339 132.968 88.8915C133.617 88.6491 134.308 88.5416 135 88.5757C135.715 88.5154 136.435 88.61 137.111 88.8528C137.787 89.0957 138.402 89.4812 138.915 89.9831C139.428 90.485 139.828 91.0916 140.086 91.7615C140.344 92.4315 140.454 93.1491 140.41 93.8657C140.41 96.9557 138.17 99.0857 134.89 99.0557" fill="white"/>
<path d="M101.91 106.226C102.891 106.483 103.897 106.637 104.91 106.686H105.5C109.59 106.686 113.29 105.416 115.7 102.376C116.151 101.809 116.547 101.199 116.88 100.556V100.476C116.913 100.406 116.931 100.331 116.933 100.255C116.936 100.178 116.923 100.102 116.895 100.031C116.867 99.9595 116.824 99.8948 116.77 99.8406C116.716 99.7864 116.651 99.7439 116.58 99.7157L110.52 97.5757C110.418 97.5402 110.308 97.5336 110.202 97.5565C110.096 97.5794 109.998 97.631 109.92 97.7057V97.7557L109.71 97.9857C109.528 98.2155 109.328 98.4296 109.11 98.6257C108.833 98.8798 108.528 99.1012 108.2 99.2857C107.517 99.653 106.76 99.8606 105.985 99.893C105.21 99.9254 104.438 99.7817 103.727 99.4728C103.015 99.1638 102.383 98.6976 101.878 98.1092C101.373 97.5208 101.008 96.8255 100.81 96.0757H117.39C117.517 96.0664 117.637 96.0152 117.731 95.9301C117.825 95.8449 117.888 95.7307 117.91 95.6057V95.5357C117.97 94.8657 117.99 94.1857 117.99 93.5357C117.989 93.0612 117.962 92.5872 117.91 92.1157C117.682 89.694 116.735 87.3958 115.19 85.5173C113.645 83.6388 111.572 82.266 109.24 81.5757C107.98 81.1874 106.668 80.9918 105.35 80.9957C103.645 80.9692 101.951 81.2801 100.367 81.9104C98.782 82.5408 97.3376 83.4781 96.1165 84.6685C94.8954 85.859 93.9216 87.2791 93.2512 88.8472C92.5808 90.4153 92.2269 92.1004 92.21 93.8057C92.2028 96.663 93.1548 99.4401 94.9135 101.692C96.6723 103.944 99.136 105.54 101.91 106.226ZM105.33 87.4557C106.286 87.3937 107.234 87.6562 108.022 88.2007C108.81 88.7452 109.39 89.5398 109.67 90.4557C109.749 90.7035 109.806 90.9579 109.84 91.2157H100.68C100.928 90.1619 101.52 89.2207 102.362 88.54C103.203 87.8593 104.248 87.4779 105.33 87.4557Z" fill="white"/>
<path d="M88.4602 105.796V86.3757C88.4602 86.3757 88.7302 82.9457 85.8502 82.0457C84.0206 81.37 82.0136 81.3488 80.1702 81.9857C80.0722 82.0374 79.9904 82.1152 79.9339 82.2105C79.8774 82.3058 79.8485 82.4149 79.8502 82.5257V105.766C79.8501 105.918 79.9099 106.064 80.0165 106.172C80.1231 106.281 80.2681 106.343 80.4202 106.346H87.8802C88.0279 106.346 88.17 106.288 88.2763 106.186C88.3826 106.083 88.445 105.943 88.4502 105.796" fill="white"/>
<path d="M18.1999 106.406H25.7199C25.8608 106.398 25.994 106.339 26.0937 106.239C26.1935 106.14 26.2527 106.007 26.2599 105.866V93.3457C26.2561 92.1947 26.6721 91.0819 27.4299 90.2157C28.0856 89.4608 29.005 88.985 29.9999 88.8857C30.1999 88.8857 30.4099 88.8857 30.6199 88.8857C31.2219 88.8606 31.8221 88.9676 32.3783 89.1991C32.9346 89.4306 33.4334 89.781 33.8399 90.2257C34.4748 90.9315 34.8794 91.814 34.9999 92.7557C34.9999 92.7557 34.9999 92.8657 34.9999 92.9357C35.0103 93.1155 35.0103 93.2958 34.9999 93.4757V105.816C34.9999 105.891 35.015 105.966 35.0442 106.036C35.0735 106.106 35.1164 106.169 35.1704 106.222C35.2244 106.275 35.2884 106.317 35.3587 106.345C35.429 106.373 35.5042 106.387 35.5799 106.386H43.0999C43.2478 106.388 43.3909 106.334 43.4991 106.233C43.6073 106.132 43.6722 105.993 43.6799 105.846V92.2157C43.6799 86.0457 40.3999 80.9957 33.0399 80.9957C30.5289 80.9326 28.0938 81.8592 26.2599 83.5757V75.2157C26.2599 75.2157 26.5299 71.9257 23.6499 71.0357C21.83 70.3639 19.8337 70.3427 17.9999 70.9757C17.9009 71.0243 17.8174 71.0998 17.7591 71.1934C17.7007 71.2871 17.6699 71.3953 17.6699 71.5057V105.866C17.6749 106.007 17.7334 106.142 17.8336 106.242C17.9338 106.342 18.0683 106.401 18.2099 106.406" fill="white"/>
<path d="M5.12 77.9457C6.07153 78.7809 7.30448 79.2241 8.57 79.1857C9.82757 79.2121 11.0501 78.7702 12 77.9457C12.4758 77.5261 12.8527 77.0062 13.1034 76.4235C13.3541 75.8408 13.4725 75.2097 13.45 74.5757C13.4744 73.9341 13.3571 73.295 13.1065 72.7039C12.8559 72.1128 12.4781 71.5842 12 71.1557C11.0505 70.3072 9.81298 69.853 8.54 69.8857C7.27045 69.8555 6.037 70.3096 5.09 71.1557C4.62115 71.5885 4.2535 72.1194 4.01324 72.7105C3.77298 73.3017 3.66603 73.9385 3.7 74.5757C3.67014 75.2092 3.78213 75.8415 4.0278 76.4262C4.27347 77.011 4.64662 77.5335 5.12 77.9557" fill="white"/>
<path d="M2.00012 118.186C2.55396 118.445 3.15852 118.578 3.77012 118.576C7.66012 118.486 10.7701 116.576 12.1401 113.356C12.7445 111.981 13.061 110.497 13.0701 108.996C13.0701 107.996 13.0701 86.3757 13.0701 86.3757C13.0701 86.3757 13.3401 82.9457 10.4601 82.0457L10.2501 81.9857L10.0001 81.9157C8.30128 81.377 6.47388 81.4016 4.79012 81.9857C4.68951 82.0351 4.60503 82.1121 4.54659 82.2077C4.48815 82.3033 4.45816 82.4136 4.46012 82.5257V107.116C4.46012 110.116 4.01012 110.556 0.88012 111.026H0.76012C0.27012 111.026 0.10012 111.926 0.0501199 112.546C0.0501199 112.666 0.0501199 112.816 0.0501199 112.986V113.056H0.000119907C0.000119907 113.356 0.000119907 113.686 0.000119907 113.886C-0.00279452 114.452 0.0474251 115.018 0.15012 115.576C0.15012 115.576 0.15012 115.636 0.15012 115.676C0.15012 115.896 0.26012 116.106 0.33012 116.316C0.420246 116.571 0.537589 116.816 0.68012 117.046L0.76012 117.166C1.07697 117.596 1.49638 117.939 1.98012 118.166" fill="white"/>
<path d="M169.17 28.1657C170.437 29.211 172.028 29.7827 173.67 29.7827C175.313 29.7827 176.904 29.211 178.17 28.1657C178.787 27.6161 179.272 26.9359 179.593 26.1747C179.913 25.4135 180.059 24.5905 180.02 23.7657C180.055 22.9368 179.908 22.1104 179.588 21.3448C179.269 20.5793 178.785 19.8934 178.17 19.3357C176.916 18.2644 175.32 17.6759 173.67 17.6759C172.021 17.6759 170.425 18.2644 169.17 19.3357C168.557 19.8939 168.075 20.5801 167.757 21.3457C167.439 22.1113 167.293 22.9375 167.33 23.7657C167.29 24.5898 167.434 25.4126 167.753 26.1738C168.071 26.9351 168.555 27.6156 169.17 28.1657Z" fill="white"/>
<path d="M170 42.8657C168.9 44.4042 168.322 46.2546 168.35 48.1457C168.341 49.3017 168.458 50.4552 168.7 51.5857C168.717 51.6507 168.747 51.7116 168.789 51.7647C168.83 51.8179 168.882 51.8621 168.941 51.8948C168.999 51.9274 169.064 51.9479 169.131 51.9549C169.198 51.962 169.266 51.9554 169.33 51.9357C175.85 49.0957 179.71 44.7557 179.71 39.2957C179.71 34.4957 176.88 31.8357 173.41 31.8357C172.61 31.7981 171.812 31.9209 171.06 32.1968C170.309 32.4728 169.62 32.8962 169.035 33.4423C168.45 33.9883 167.98 34.646 167.653 35.3764C167.326 36.1069 167.148 36.8955 167.13 37.6957C167.091 38.7373 167.338 39.7698 167.844 40.6811C168.35 41.5925 169.095 42.348 170 42.8657Z" fill="white"/>
<path d="M151.61 12.5757C153.056 13.7706 154.874 14.4243 156.75 14.4243C158.626 14.4243 160.444 13.7706 161.89 12.5757C162.59 11.9504 163.142 11.1775 163.507 10.3129C163.872 9.4482 164.04 8.51331 164 7.57568C164.042 6.62811 163.873 5.68304 163.507 4.80823C163.14 3.93342 162.585 3.15053 161.88 2.51568C160.446 1.29479 158.624 0.624329 156.74 0.624329C154.856 0.624329 153.034 1.29479 151.6 2.51568C150.902 3.15419 150.353 3.93848 149.991 4.81293C149.63 5.68739 149.466 6.63059 149.51 7.57568C149.47 8.51236 149.637 9.44633 150 10.3107C150.363 11.1751 150.913 11.9486 151.61 12.5757Z" fill="white"/>
<path d="M149.58 70.5757C150.823 70.5487 152.058 70.3741 153.26 70.0557C154.747 69.6826 156.171 69.0965 157.49 68.3157C158.933 67.4738 160.216 66.3837 161.28 65.0957C162.477 63.6359 163.335 61.928 163.79 60.0957C164.146 58.6764 164.367 57.2266 164.45 55.7657C164.55 54.1657 164.59 52.8257 164.59 51.7657C164.59 51.7657 164.59 30.2157 164.59 26.4357V25.8857C164.59 25.7357 164.59 24.6157 164.59 24.4657C164.58 23.1274 164.147 21.8266 163.353 20.7491C162.559 19.6716 161.445 18.8724 160.17 18.4657C154.25 16.6257 150.48 18.3557 150.48 18.3557C150.309 18.4396 150.165 18.5708 150.066 18.7338C149.966 18.8969 149.916 19.0849 149.92 19.2757V52.8357C149.928 53.8436 149.828 54.8494 149.62 55.8357C149.435 56.7118 149.055 57.5352 148.51 58.2457C147.893 58.9867 147.108 59.5696 146.22 59.9457C144.853 60.4721 143.413 60.7825 141.95 60.8657C141.76 60.8805 141.582 60.9654 141.451 61.104C141.32 61.2426 141.244 61.4249 141.24 61.6157C141.103 63.6767 141.103 65.7446 141.24 67.8057C141.4 70.7057 149.64 70.5957 149.64 70.5957" fill="white"/>
<path d="M24.52 126.736C24.3222 126.736 24.1289 126.794 23.9644 126.904C23.8 127.014 23.6718 127.17 23.5961 127.353C23.5205 127.536 23.5006 127.737 23.5392 127.931C23.5778 128.125 23.6731 128.303 23.8129 128.443C23.9528 128.583 24.1309 128.678 24.3249 128.716C24.5189 128.755 24.72 128.735 24.9027 128.66C25.0854 128.584 25.2416 128.456 25.3515 128.291C25.4614 128.127 25.52 127.933 25.52 127.736C25.52 127.47 25.4147 127.216 25.2271 127.029C25.0396 126.841 24.7852 126.736 24.52 126.736Z" fill="white"/>
<path d="M49.1802 128.826C49.378 128.826 49.5713 128.767 49.7357 128.657C49.9002 128.547 50.0284 128.391 50.1041 128.208C50.1797 128.026 50.1995 127.825 50.161 127.631C50.1224 127.437 50.0271 127.258 49.8873 127.119C49.7474 126.979 49.5692 126.883 49.3753 126.845C49.1813 126.806 48.9802 126.826 48.7975 126.902C48.6148 126.977 48.4586 127.106 48.3487 127.27C48.2388 127.435 48.1802 127.628 48.1802 127.826C48.1945 128.086 48.3045 128.332 48.489 128.517C48.6735 128.701 48.9196 128.811 49.1802 128.826Z" fill="white"/>
<path d="M118.74 128.826C118.938 128.826 119.131 128.767 119.296 128.657C119.46 128.547 119.588 128.391 119.664 128.208C119.74 128.026 119.76 127.825 119.721 127.631C119.682 127.437 119.587 127.258 119.447 127.119C119.307 126.979 119.129 126.883 118.935 126.845C118.741 126.806 118.54 126.826 118.358 126.902C118.175 126.977 118.019 127.106 117.909 127.27C117.799 127.435 117.74 127.628 117.74 127.826C117.74 128.091 117.846 128.345 118.033 128.533C118.221 128.72 118.475 128.826 118.74 128.826Z" fill="white"/>
<path d="M4.84033 134.496C4.41042 134.495 3.9852 134.406 3.59121 134.234C3.19722 134.062 2.8429 133.811 2.55033 133.496C2.37033 133.316 2.19033 133.226 1.94033 133.406L1.22033 133.956C1.16632 133.998 1.12262 134.052 1.09256 134.113C1.0625 134.175 1.04687 134.242 1.04688 134.311C1.04688 134.379 1.0625 134.447 1.09256 134.508C1.12262 134.57 1.16632 134.624 1.22033 134.666C1.67603 135.128 2.22448 135.488 2.8295 135.722C3.43453 135.956 4.08239 136.06 4.73033 136.026C7.18033 136.026 8.34033 134.586 8.34033 133.226C8.34033 131.866 7.39033 131.046 5.93033 130.656L4.16033 130.196C3.36033 129.986 3.16033 129.636 3.16033 129.196C3.16033 128.516 3.84033 128.126 4.69033 128.126C5.42834 128.15 6.13519 128.429 6.69033 128.916C6.73509 128.962 6.7887 128.999 6.84797 129.024C6.90724 129.049 6.97096 129.062 7.03533 129.062C7.09971 129.062 7.16343 129.049 7.2227 129.024C7.28197 128.999 7.33558 128.962 7.38033 128.916L7.92033 128.366C8.05033 128.236 8.18033 128.016 7.87033 127.716C6.99889 126.983 5.88872 126.595 4.75033 126.626C2.75033 126.626 1.30033 127.746 1.30033 129.326C1.30778 129.932 1.53473 130.516 1.93919 130.968C2.34365 131.42 2.89824 131.711 3.50033 131.786L5.13033 132.206C6.02033 132.436 6.49033 132.766 6.49033 133.386C6.49033 134.006 5.95033 134.476 4.86033 134.476" fill="white"/>
<path d="M9.00019 132.736C8.9828 133.158 9.04995 133.579 9.1977 133.975C9.34545 134.371 9.57081 134.733 9.86055 135.04C10.1503 135.348 10.4986 135.594 10.8849 135.765C11.2712 135.936 11.6878 136.028 12.1102 136.036C12.4822 136.054 12.8529 135.978 13.1871 135.813C13.5213 135.649 13.808 135.402 14.0202 135.096V135.596C14.0202 135.665 14.0476 135.731 14.0963 135.78C14.1451 135.828 14.2112 135.856 14.2802 135.856H15.4102C15.4792 135.856 15.5453 135.828 15.594 135.78C15.6428 135.731 15.6702 135.665 15.6702 135.596V129.906C15.6715 129.871 15.6658 129.836 15.6533 129.803C15.6409 129.77 15.6219 129.741 15.5977 129.715C15.5734 129.69 15.5443 129.67 15.5121 129.656C15.4798 129.643 15.4452 129.636 15.4102 129.636H14.3102C14.2403 129.638 14.1742 129.668 14.1257 129.718C14.0772 129.769 14.0501 129.836 14.0502 129.906V130.396C13.8417 130.088 13.5571 129.84 13.2241 129.675C12.8911 129.511 12.5211 129.435 12.1502 129.456C11.725 129.454 11.3038 129.539 10.9122 129.704C10.5207 129.87 10.1669 130.114 9.87233 130.421C9.57777 130.727 9.34859 131.091 9.19867 131.489C9.04876 131.887 8.98123 132.311 9.00019 132.736ZM14.0002 132.736C13.9865 133.063 13.8767 133.379 13.6846 133.645C13.4925 133.91 13.2266 134.113 12.9199 134.229C12.6132 134.344 12.2794 134.367 11.9599 134.294C11.6405 134.221 11.3495 134.056 11.1233 133.818C10.8972 133.581 10.7457 133.283 10.6879 132.96C10.63 132.638 10.6684 132.305 10.7981 132.005C10.9278 131.704 11.1432 131.448 11.4174 131.268C11.6916 131.089 12.0125 130.994 12.3402 130.996C12.5639 131 12.7845 131.048 12.9894 131.138C13.1943 131.227 13.3793 131.357 13.5337 131.519C13.6881 131.681 13.8089 131.872 13.889 132.08C13.969 132.289 14.0068 132.512 14.0002 132.736Z" fill="white"/>
<path d="M20.8601 135.576L22.8601 130.026C22.8803 129.983 22.8894 129.936 22.8867 129.889C22.884 129.843 22.8695 129.797 22.8446 129.757C22.8197 129.717 22.7852 129.684 22.7442 129.661C22.7032 129.638 22.6571 129.626 22.6101 129.626H21.3901C21.3137 129.62 21.2379 129.644 21.1784 129.692C21.1189 129.74 21.0802 129.81 21.0701 129.886L19.7801 134.156L18.3701 129.886C18.356 129.812 18.3162 129.745 18.2576 129.697C18.1991 129.65 18.1256 129.624 18.0501 129.626H16.8001C16.7521 129.623 16.7043 129.634 16.6617 129.656C16.619 129.678 16.5831 129.711 16.5576 129.752C16.5322 129.793 16.518 129.84 16.5167 129.888C16.5154 129.936 16.5269 129.984 16.5501 130.026L18.5501 135.576C18.5682 135.652 18.6115 135.721 18.6732 135.77C18.7349 135.819 18.8114 135.846 18.8901 135.846H20.5401C20.6185 135.844 20.6941 135.816 20.7554 135.768C20.8168 135.719 20.8606 135.652 20.8801 135.576" fill="white"/>
<path d="M24 129.636C23.9284 129.636 23.8597 129.664 23.8091 129.715C23.7584 129.765 23.73 129.834 23.73 129.906V135.576C23.7325 135.647 23.7617 135.714 23.8118 135.764C23.8619 135.814 23.9292 135.843 24 135.846H25.13C25.2008 135.843 25.268 135.814 25.3181 135.764C25.3682 135.714 25.3975 135.647 25.4 135.576V129.896C25.4 129.86 25.393 129.825 25.3794 129.792C25.3659 129.76 25.346 129.73 25.3209 129.705C25.2958 129.68 25.2661 129.66 25.2333 129.646C25.2005 129.633 25.1654 129.626 25.13 129.626L24 129.636Z" fill="white"/>
<path d="M30.3999 129.456C30.0091 129.434 29.6187 129.505 29.2606 129.663C28.9026 129.822 28.5871 130.062 28.3399 130.366V129.876C28.3305 129.81 28.2982 129.75 28.2488 129.706C28.1994 129.662 28.136 129.637 28.0699 129.636H26.9299C26.8957 129.637 26.8622 129.645 26.8311 129.659C26.8001 129.674 26.7721 129.694 26.7489 129.719C26.7257 129.744 26.7076 129.773 26.6958 129.805C26.684 129.837 26.6785 129.872 26.6799 129.906V135.576C26.6798 135.643 26.7059 135.708 26.7525 135.756C26.7991 135.805 26.8627 135.833 26.9299 135.836H28.0699C28.1382 135.836 28.204 135.81 28.2541 135.764C28.3042 135.717 28.3348 135.654 28.3399 135.586V132.586C28.3243 132.374 28.3535 132.162 28.4255 131.962C28.4976 131.762 28.6109 131.58 28.7581 131.427C28.9053 131.274 29.0831 131.154 29.2798 131.075C29.4765 130.995 29.6878 130.958 29.8999 130.966C30.1095 130.956 30.3188 130.991 30.5134 131.07C30.7079 131.149 30.883 131.269 31.0265 131.422C31.1701 131.575 31.2788 131.758 31.3449 131.957C31.4111 132.156 31.4333 132.367 31.4099 132.576V135.576C31.4149 135.644 31.4456 135.707 31.4957 135.754C31.5458 135.8 31.6116 135.826 31.6799 135.826H32.7999C32.8682 135.826 32.934 135.8 32.9841 135.754C33.0342 135.707 33.0648 135.644 33.0699 135.576V132.116C33.0899 131.759 33.0348 131.402 32.9079 131.068C32.7811 130.734 32.5855 130.43 32.3337 130.176C32.082 129.923 31.7797 129.725 31.4466 129.595C31.1134 129.466 30.7568 129.408 30.3999 129.426" fill="white"/>
<path d="M37.41 137.386C37.0807 137.428 36.7467 137.357 36.4631 137.185C36.1795 137.012 35.9632 136.748 35.85 136.436C35.8223 136.383 35.7769 136.343 35.722 136.321C35.667 136.299 35.6061 136.297 35.55 136.316L34.35 136.636C34.3231 136.642 34.2979 136.654 34.2762 136.672C34.2545 136.689 34.2369 136.711 34.2245 136.735C34.2121 136.76 34.2053 136.787 34.2045 136.815C34.2037 136.843 34.209 136.87 34.22 136.896C34.5 138.066 35.72 138.816 37.37 138.816C39.44 138.816 40.71 137.616 40.71 135.886V129.886C40.7074 129.816 40.6778 129.75 40.6275 129.701C40.5771 129.653 40.5099 129.626 40.44 129.626H39.31C39.2428 129.628 39.1792 129.657 39.1326 129.705C39.086 129.754 39.0599 129.818 39.06 129.886V130.386C38.8413 130.061 38.5421 129.798 38.1917 129.622C37.8412 129.447 37.4513 129.366 37.06 129.386C36.2357 129.439 35.463 129.805 34.9008 130.411C34.3386 131.016 34.0296 131.813 34.0372 132.639C34.0449 133.465 34.3687 134.257 34.9421 134.851C35.5155 135.446 36.2949 135.798 37.12 135.836C37.484 135.855 37.847 135.783 38.1768 135.628C38.5065 135.473 38.7928 135.238 39.01 134.946V135.766C39.0234 135.981 38.9891 136.198 38.9095 136.399C38.8299 136.6 38.7069 136.78 38.5493 136.929C38.3917 137.077 38.2035 137.188 37.9979 137.255C37.7923 137.322 37.5745 137.343 37.36 137.316M37.36 134.316C37.0123 134.331 36.668 134.241 36.3727 134.057C36.0775 133.872 35.845 133.603 35.7062 133.284C35.5673 132.964 35.5286 132.611 35.595 132.269C35.6615 131.927 35.8301 131.614 36.0785 131.37C36.3268 131.126 36.6433 130.963 36.9862 130.903C37.329 130.843 37.682 130.888 37.9986 131.033C38.3151 131.178 38.5803 131.415 38.7591 131.714C38.9379 132.012 39.0219 132.358 39 132.706C39.0095 132.929 38.9735 133.151 38.8941 133.36C38.8147 133.568 38.6936 133.758 38.5382 133.918C38.3828 134.078 38.1964 134.205 37.9904 134.29C37.7844 134.376 37.5631 134.419 37.34 134.416" fill="white"/>
<path d="M47.2204 135.856C47.2653 135.86 47.3106 135.855 47.3532 135.84C47.3958 135.825 47.4346 135.801 47.467 135.77C47.4994 135.738 47.5245 135.7 47.5406 135.658C47.5568 135.616 47.5635 135.571 47.5604 135.526V134.716C47.5621 134.682 47.5564 134.648 47.5437 134.617C47.531 134.586 47.5115 134.558 47.4867 134.535C47.4619 134.512 47.4323 134.495 47.4001 134.484C47.3679 134.474 47.3338 134.471 47.3004 134.476H46.9204C46.856 134.481 46.7913 134.471 46.7311 134.448C46.6709 134.425 46.6166 134.388 46.5725 134.341C46.5283 134.294 46.4952 134.238 46.4758 134.176C46.4564 134.115 46.4511 134.05 46.4604 133.986V127.096C46.4579 127.025 46.4286 126.958 46.3785 126.908C46.3284 126.857 46.2612 126.828 46.1904 126.826H45.0704C44.9978 126.826 44.9281 126.854 44.8758 126.904C44.8236 126.954 44.793 127.023 44.7904 127.096V134.306C44.7689 134.519 44.7959 134.734 44.8695 134.936C44.9431 135.137 45.0612 135.319 45.2152 135.468C45.3691 135.617 45.5548 135.729 45.7583 135.797C45.9618 135.864 46.1779 135.884 46.3904 135.856H47.2204Z" fill="white"/>
<path d="M49.7303 129.636H48.6103C48.5387 129.636 48.47 129.664 48.4194 129.715C48.3688 129.765 48.3403 129.834 48.3403 129.906V135.576C48.3428 135.647 48.3721 135.714 48.4222 135.764C48.4723 135.814 48.5395 135.843 48.6103 135.846H49.7303C49.7658 135.846 49.8009 135.839 49.8337 135.825C49.8664 135.812 49.8962 135.792 49.9212 135.767C49.9463 135.742 49.9662 135.712 49.9798 135.679C49.9933 135.646 50.0003 135.611 50.0003 135.576V129.896C50.0017 129.86 49.9957 129.824 49.9826 129.791C49.9696 129.757 49.9497 129.727 49.9244 129.702C49.899 129.676 49.8687 129.656 49.8353 129.643C49.8019 129.63 49.7662 129.624 49.7303 129.626" fill="white"/>
<path d="M53.18 135.856H54.83C54.9071 135.853 54.9812 135.826 55.0409 135.777C55.1006 135.728 55.1424 135.661 55.16 135.586L57.16 130.036C57.1805 129.992 57.1897 129.945 57.1865 129.897C57.1833 129.849 57.1679 129.803 57.1419 129.763C57.1158 129.723 57.0799 129.69 57.0375 129.668C56.9952 129.646 56.9479 129.634 56.9 129.636H55.69C55.6146 129.634 55.5411 129.66 55.4826 129.707C55.424 129.755 55.3842 129.822 55.37 129.896L54.08 134.166L52.67 129.896C52.6559 129.822 52.616 129.755 52.5575 129.707C52.4989 129.66 52.4255 129.634 52.35 129.636H51.1C51.0528 129.635 51.0063 129.647 50.9651 129.67C50.9239 129.693 50.8894 129.726 50.8651 129.767C50.8409 129.807 50.8276 129.853 50.8267 129.901C50.8258 129.948 50.8373 129.994 50.86 130.036L52.86 135.586C52.8815 135.662 52.9272 135.73 52.9903 135.779C53.0533 135.827 53.1304 135.854 53.21 135.856" fill="white"/>
<path d="M60.7303 129.456C60.2956 129.449 59.864 129.53 59.4615 129.694C59.059 129.859 58.6939 130.103 58.3884 130.412C58.0828 130.722 57.8431 131.09 57.6836 131.494C57.5241 131.898 57.4481 132.331 57.4603 132.766C57.4477 133.201 57.5246 133.634 57.6864 134.039C57.8481 134.443 58.0913 134.81 58.4007 135.117C58.7101 135.423 59.0792 135.663 59.4851 135.821C59.891 135.979 60.325 136.052 60.7603 136.036C61.2734 136.065 61.786 135.971 62.2556 135.763C62.7252 135.554 63.1382 135.236 63.4603 134.836C63.4816 134.807 63.4969 134.774 63.5054 134.739C63.5139 134.705 63.5154 134.668 63.5099 134.633C63.5043 134.598 63.4917 134.564 63.4729 134.533C63.4541 134.503 63.4294 134.477 63.4003 134.456L62.5903 133.896C62.4503 133.786 62.3503 133.896 62.2603 133.956C62.0855 134.172 61.8623 134.345 61.6088 134.459C61.3552 134.574 61.0783 134.627 60.8003 134.616C60.394 134.625 59.9994 134.479 59.6967 134.208C59.394 133.937 59.2058 133.561 59.1703 133.156H63.6103C63.8403 133.156 63.9103 133.026 63.9103 132.876V132.576C63.9146 132.16 63.8347 131.748 63.6755 131.364C63.5163 130.98 63.2811 130.633 62.984 130.342C62.6869 130.052 62.3341 129.824 61.9468 129.673C61.5595 129.523 61.1457 129.452 60.7303 129.466M59.2103 132.106C59.2755 131.744 59.465 131.416 59.7461 131.178C60.0273 130.941 60.3824 130.809 60.7503 130.806C61.1187 130.8 61.4765 130.929 61.7564 131.168C62.0364 131.407 62.2191 131.741 62.2703 132.106H59.2103Z" fill="white"/>
<path d="M67.2099 136.036C68.8499 136.036 69.9799 135.156 69.9799 133.956C69.9799 132.756 69.1799 132.306 68.0899 132.096L67.0899 131.906C66.5199 131.806 66.2999 131.606 66.2999 131.316C66.2999 131.026 66.6599 130.756 67.2299 130.756C67.7617 130.782 68.2735 130.967 68.6999 131.286C68.738 131.324 68.7832 131.354 68.833 131.375C68.8828 131.395 68.9361 131.406 68.9899 131.406C69.0438 131.406 69.0971 131.395 69.1469 131.375C69.1967 131.354 69.2419 131.324 69.2799 131.286L69.6899 130.796C69.7276 130.765 69.758 130.726 69.7788 130.682C69.7997 130.638 69.8105 130.589 69.8105 130.541C69.8105 130.492 69.7997 130.444 69.7788 130.4C69.758 130.356 69.7276 130.317 69.6899 130.286C69.0044 129.747 68.1511 129.468 67.2799 129.496C65.6799 129.496 64.6499 130.356 64.6499 131.496C64.65 131.956 64.8208 132.4 65.1293 132.742C65.4378 133.083 65.862 133.299 66.3199 133.346L67.3199 133.556C67.9599 133.676 68.3199 133.806 68.3199 134.166C68.3199 134.526 67.9999 134.786 67.3199 134.786C66.7287 134.778 66.1615 134.55 65.7299 134.146C65.6919 134.108 65.6467 134.077 65.5969 134.057C65.5471 134.036 65.4938 134.026 65.4399 134.026C65.3861 134.026 65.3327 134.036 65.283 134.057C65.2332 134.077 65.188 134.108 65.1499 134.146L64.6699 134.536C64.4099 134.736 64.3899 135.036 64.8699 135.396C65.5586 135.893 66.3905 136.153 67.2399 136.136" fill="white"/>
<path d="M73.0802 134.896C73.0822 134.668 73.0164 134.445 72.8913 134.254C72.7661 134.064 72.5872 133.915 72.3773 133.826C72.1673 133.738 71.9358 133.713 71.7121 133.757C71.4883 133.8 71.2825 133.909 71.1207 134.069C70.9588 134.229 70.8483 134.434 70.8031 134.658C70.7579 134.881 70.7801 135.113 70.8668 135.323C70.9536 135.534 71.101 135.714 71.2903 135.841C71.4796 135.968 71.7024 136.036 71.9302 136.036C72.2327 136.033 72.5222 135.912 72.7371 135.7C72.9519 135.487 73.075 135.198 73.0802 134.896Z" fill="white"/>
<path d="M78.6902 126.826H77.5002C77.4293 126.828 77.3621 126.857 77.312 126.908C77.2619 126.958 77.2327 127.025 77.2302 127.096V135.576C77.2288 135.612 77.2347 135.649 77.2476 135.684C77.2604 135.718 77.28 135.75 77.305 135.777C77.3301 135.804 77.3603 135.825 77.3937 135.841C77.4272 135.856 77.4634 135.864 77.5002 135.866H78.6902C78.7302 135.87 78.7708 135.866 78.809 135.853C78.8472 135.84 78.8823 135.819 78.9117 135.792C78.9411 135.764 78.9643 135.731 78.9795 135.693C78.9948 135.656 79.0018 135.616 79.0002 135.576V127.106C78.9977 127.035 78.9684 126.968 78.9183 126.918C78.8682 126.867 78.801 126.838 78.7302 126.836" fill="white"/>
<path d="M84.8399 132.486V135.576C84.845 135.644 84.8757 135.707 84.9258 135.754C84.9759 135.8 85.0417 135.826 85.1099 135.826H86.2299C86.2982 135.826 86.364 135.8 86.4141 135.754C86.4642 135.707 86.4949 135.644 86.4999 135.576V132.456C86.4815 132.263 86.5042 132.068 86.5667 131.884C86.6291 131.701 86.7298 131.532 86.8622 131.39C86.9945 131.249 87.1555 131.137 87.3344 131.062C87.5133 130.987 87.706 130.951 87.8999 130.956C88.7999 130.956 89.2199 131.616 89.2199 132.456V135.576C89.225 135.644 89.2557 135.707 89.3058 135.754C89.3559 135.8 89.4217 135.826 89.4899 135.826H90.6199C90.6882 135.826 90.754 135.8 90.8041 135.754C90.8542 135.707 90.8849 135.644 90.8899 135.576V132.056C90.9091 131.703 90.8531 131.35 90.7258 131.02C90.5985 130.69 90.4027 130.391 90.1513 130.143C89.8999 129.894 89.5987 129.702 89.2675 129.578C88.9363 129.454 88.5827 129.403 88.2299 129.426C87.7925 129.42 87.3603 129.522 86.9714 129.722C86.5826 129.923 86.249 130.216 85.9999 130.576C85.8003 130.226 85.5076 129.94 85.1544 129.747C84.8013 129.555 84.4016 129.464 83.9999 129.486C83.6283 129.477 83.2598 129.555 82.9232 129.713C82.5867 129.871 82.2912 130.105 82.0599 130.396V129.906C82.0505 129.84 82.0182 129.78 81.9688 129.736C81.9194 129.692 81.856 129.667 81.7899 129.666H80.6999C80.6301 129.668 80.5639 129.698 80.5154 129.748C80.467 129.799 80.4399 129.866 80.4399 129.936V135.576C80.4399 135.645 80.4673 135.711 80.5161 135.76C80.5648 135.808 80.631 135.836 80.6999 135.836H81.8299C81.8982 135.836 81.964 135.81 82.0141 135.764C82.0642 135.717 82.0949 135.654 82.0999 135.586V132.466C82.083 132.272 82.1071 132.077 82.1707 131.893C82.2344 131.71 82.3361 131.542 82.4692 131.4C82.6023 131.258 82.7638 131.147 82.9432 131.072C83.1225 130.997 83.3157 130.961 83.5099 130.966C83.7004 130.962 83.8892 131 84.0636 131.077C84.2379 131.154 84.3936 131.267 84.52 131.41C84.6463 131.552 84.7403 131.72 84.7956 131.903C84.8508 132.085 84.8659 132.277 84.8399 132.466" fill="white"/>
<path d="M98.8199 132.736C98.8443 132.316 98.7832 131.896 98.6403 131.501C98.4973 131.106 98.2756 130.744 97.9884 130.437C97.7013 130.13 97.3548 129.885 96.97 129.717C96.5852 129.548 96.1701 129.459 95.7499 129.456C95.3647 129.434 94.98 129.508 94.6308 129.672C94.2816 129.836 93.9788 130.085 93.7499 130.396V129.906C93.7499 129.836 93.7229 129.769 93.6744 129.718C93.6259 129.668 93.5598 129.638 93.4899 129.636H92.4099C92.34 129.638 92.2739 129.668 92.2254 129.718C92.1769 129.769 92.1499 129.836 92.1499 129.906V138.366C92.1499 138.435 92.1773 138.501 92.2261 138.55C92.2748 138.598 92.3409 138.626 92.4099 138.626H93.5599C93.6271 138.623 93.6907 138.595 93.7373 138.546C93.7839 138.498 93.8099 138.433 93.8099 138.366V135.156C94.0365 135.442 94.3275 135.672 94.6595 135.825C94.9914 135.977 95.3547 136.05 95.7199 136.036C96.1431 136.032 96.5612 135.943 96.949 135.773C97.3367 135.604 97.6861 135.357 97.9758 135.049C98.2656 134.74 98.4898 134.376 98.6349 133.979C98.78 133.581 98.8429 133.158 98.8199 132.736ZM93.8199 132.736C93.8355 132.41 93.9464 132.095 94.1387 131.832C94.331 131.568 94.5964 131.366 94.902 131.252C95.2076 131.137 95.5401 131.115 95.8584 131.187C96.1766 131.26 96.4667 131.424 96.6927 131.659C96.9187 131.895 97.0708 132.191 97.1301 132.512C97.1895 132.833 97.1535 133.164 97.0266 133.465C96.8997 133.766 96.6875 134.023 96.4161 134.204C96.1448 134.385 95.8263 134.483 95.4999 134.486C95.2733 134.486 95.0489 134.44 94.8404 134.351C94.6319 134.263 94.4435 134.133 94.2865 133.969C94.1296 133.806 94.0073 133.612 93.9271 133.4C93.8469 133.188 93.8105 132.962 93.8199 132.736Z" fill="white"/>
<path d="M101.51 135.576V132.776C101.51 131.706 101.99 131.286 102.82 131.286H103.13C103.172 131.286 103.214 131.277 103.253 131.26C103.291 131.243 103.326 131.219 103.354 131.187C103.382 131.156 103.404 131.12 103.417 131.08C103.43 131.04 103.435 130.998 103.43 130.956V129.876C103.436 129.835 103.433 129.793 103.421 129.754C103.409 129.714 103.388 129.678 103.361 129.647C103.333 129.617 103.299 129.593 103.261 129.577C103.223 129.561 103.182 129.554 103.14 129.556H103C102.687 129.557 102.381 129.644 102.113 129.806C101.846 129.968 101.627 130.199 101.48 130.476V129.876C101.473 129.811 101.443 129.751 101.395 129.707C101.347 129.663 101.285 129.638 101.22 129.636H100.15C100.115 129.636 100.081 129.643 100.048 129.656C100.016 129.67 99.9871 129.69 99.9629 129.715C99.9386 129.741 99.9196 129.77 99.9072 129.803C99.8947 129.836 99.889 129.871 99.8903 129.906V135.576C99.8903 135.645 99.9177 135.711 99.9665 135.76C100.015 135.808 100.081 135.836 100.15 135.836H101.28C101.349 135.836 101.414 135.81 101.465 135.764C101.515 135.717 101.545 135.654 101.55 135.586" fill="white"/>
<path d="M110.46 132.756C110.472 132.093 110.286 131.441 109.927 130.884C109.567 130.327 109.05 129.89 108.441 129.627C107.831 129.365 107.158 129.291 106.506 129.413C105.854 129.535 105.254 129.848 104.781 130.313C104.307 130.777 103.983 131.372 103.849 132.022C103.716 132.671 103.778 133.346 104.029 133.96C104.28 134.573 104.708 135.099 105.259 135.468C105.809 135.838 106.457 136.036 107.12 136.036C107.556 136.042 107.988 135.962 108.392 135.801C108.797 135.639 109.165 135.399 109.475 135.093C109.786 134.788 110.033 134.425 110.202 134.023C110.371 133.622 110.459 133.191 110.46 132.756ZM107.12 134.486C106.773 134.5 106.43 134.41 106.135 134.227C105.84 134.045 105.606 133.778 105.464 133.461C105.321 133.145 105.277 132.793 105.336 132.451C105.395 132.109 105.555 131.793 105.795 131.542C106.035 131.292 106.345 131.119 106.684 131.046C107.023 130.973 107.377 131.003 107.699 131.133C108.021 131.262 108.297 131.485 108.491 131.772C108.686 132.06 108.79 132.399 108.79 132.746C108.798 132.97 108.761 133.195 108.681 133.405C108.601 133.615 108.479 133.807 108.323 133.969C108.168 134.131 107.981 134.261 107.774 134.349C107.568 134.438 107.345 134.484 107.12 134.486Z" fill="white"/>
<path d="M115.61 129.636C115.535 129.634 115.461 129.66 115.403 129.707C115.344 129.755 115.304 129.822 115.29 129.896L114 134.166L112.59 129.896C112.576 129.822 112.536 129.755 112.478 129.707C112.419 129.66 112.346 129.634 112.27 129.636H111C110.952 129.633 110.905 129.644 110.862 129.666C110.819 129.688 110.783 129.721 110.758 129.762C110.732 129.803 110.718 129.85 110.717 129.898C110.716 129.946 110.727 129.994 110.75 130.036L112.75 135.586C112.768 135.662 112.812 135.731 112.873 135.78C112.935 135.829 113.012 135.856 113.09 135.856H114.74C114.819 135.854 114.894 135.826 114.956 135.778C115.017 135.729 115.061 135.662 115.08 135.586L117.08 130.036C117.1 129.993 117.11 129.946 117.107 129.899C117.104 129.853 117.09 129.807 117.065 129.767C117.04 129.727 117.005 129.694 116.964 129.671C116.923 129.649 116.877 129.636 116.83 129.636H115.61Z" fill="white"/>
<path d="M119.57 135.576V129.896C119.572 129.86 119.565 129.824 119.552 129.791C119.539 129.757 119.52 129.727 119.494 129.702C119.469 129.676 119.438 129.656 119.405 129.643C119.372 129.63 119.336 129.624 119.3 129.626H118.17C118.134 129.624 118.099 129.63 118.065 129.643C118.032 129.656 118.001 129.676 117.976 129.702C117.951 129.727 117.931 129.757 117.918 129.791C117.905 129.824 117.899 129.86 117.9 129.896V135.576C117.903 135.647 117.932 135.714 117.982 135.764C118.032 135.814 118.099 135.843 118.17 135.846H119.3C119.371 135.843 119.438 135.814 119.488 135.764C119.538 135.714 119.568 135.647 119.57 135.576Z" fill="white"/>
<path d="M124.62 129.456C124.229 129.434 123.839 129.505 123.481 129.663C123.123 129.822 122.807 130.062 122.56 130.366V129.876C122.551 129.81 122.518 129.75 122.469 129.706C122.42 129.662 122.356 129.637 122.29 129.636H121.15C121.116 129.637 121.082 129.645 121.051 129.659C121.02 129.674 120.992 129.694 120.969 129.719C120.946 129.744 120.928 129.773 120.916 129.805C120.904 129.837 120.899 129.872 120.9 129.906V135.576C120.9 135.643 120.926 135.708 120.973 135.756C121.019 135.805 121.083 135.833 121.15 135.836H122.29C122.358 135.836 122.424 135.81 122.474 135.764C122.524 135.717 122.555 135.654 122.56 135.586V132.586C122.545 132.374 122.574 132.162 122.646 131.962C122.718 131.762 122.831 131.58 122.978 131.427C123.126 131.274 123.303 131.154 123.5 131.075C123.697 130.995 123.908 130.958 124.12 130.966C124.331 130.955 124.541 130.991 124.736 131.071C124.932 131.15 125.107 131.271 125.251 131.425C125.395 131.58 125.503 131.763 125.569 131.964C125.634 132.164 125.655 132.376 125.63 132.586V135.586C125.635 135.654 125.666 135.717 125.716 135.764C125.766 135.81 125.832 135.836 125.9 135.836H127C127.068 135.836 127.134 135.81 127.184 135.764C127.234 135.717 127.265 135.654 127.27 135.586V132.126C127.29 131.769 127.235 131.412 127.108 131.078C126.981 130.744 126.786 130.44 126.534 130.186C126.282 129.933 125.98 129.735 125.647 129.605C125.314 129.476 124.957 129.418 124.6 129.436" fill="white"/>
<path d="M134.66 129.646H133.53C133.463 129.648 133.399 129.677 133.353 129.725C133.306 129.774 133.28 129.838 133.28 129.906V130.406C133.066 130.088 132.775 129.83 132.434 129.655C132.093 129.48 131.713 129.394 131.33 129.406C130.506 129.459 129.733 129.825 129.171 130.431C128.609 131.036 128.3 131.833 128.307 132.659C128.315 133.485 128.639 134.277 129.212 134.871C129.786 135.466 130.565 135.818 131.39 135.856C131.754 135.875 132.117 135.803 132.447 135.648C132.777 135.493 133.063 135.258 133.28 134.966V135.786C133.252 136.157 133.102 136.508 132.853 136.785C132.604 137.063 132.271 137.25 131.905 137.318C131.539 137.387 131.161 137.332 130.829 137.164C130.497 136.995 130.23 136.722 130.07 136.386C130.042 136.333 129.997 136.293 129.942 136.271C129.887 136.249 129.826 136.247 129.77 136.266L128.57 136.586C128.543 136.592 128.518 136.604 128.496 136.622C128.475 136.639 128.457 136.661 128.445 136.685C128.432 136.71 128.425 136.737 128.425 136.765C128.424 136.793 128.429 136.82 128.44 136.846C128.72 138.016 129.94 138.766 131.59 138.766C133.66 138.766 134.93 137.566 134.93 135.836V129.836C134.927 129.766 134.898 129.7 134.847 129.651C134.797 129.603 134.73 129.576 134.66 129.576M131.6 134.346C131.257 134.358 130.918 134.267 130.628 134.085C130.337 133.903 130.107 133.638 129.968 133.324C129.829 133.011 129.786 132.663 129.847 132.325C129.907 131.987 130.067 131.675 130.306 131.429C130.545 131.182 130.852 131.013 131.188 130.943C131.524 130.873 131.873 130.905 132.191 131.035C132.508 131.164 132.78 131.386 132.97 131.671C133.161 131.957 133.262 132.293 133.26 132.636C133.27 132.859 133.234 133.081 133.154 133.29C133.075 133.498 132.954 133.688 132.798 133.848C132.643 134.008 132.456 134.135 132.25 134.22C132.044 134.306 131.823 134.349 131.6 134.346Z" fill="white"/>
<path d="M142.77 129.456C142.378 129.435 141.986 129.506 141.627 129.664C141.267 129.822 140.95 130.063 140.7 130.366V127.066C140.695 126.998 140.664 126.936 140.614 126.891C140.563 126.846 140.497 126.823 140.43 126.826H139.3C139.231 126.826 139.165 126.853 139.116 126.902C139.067 126.951 139.04 127.017 139.04 127.086V135.576C139.04 135.645 139.067 135.711 139.116 135.76C139.165 135.808 139.231 135.836 139.3 135.836H140.43C140.498 135.836 140.564 135.81 140.614 135.764C140.664 135.717 140.695 135.654 140.7 135.586V132.586C140.684 132.373 140.714 132.16 140.786 131.959C140.859 131.759 140.973 131.576 141.122 131.423C141.27 131.27 141.449 131.151 141.647 131.072C141.845 130.993 142.057 130.957 142.27 130.966C142.48 130.957 142.689 130.994 142.883 131.074C143.077 131.154 143.252 131.275 143.394 131.429C143.537 131.583 143.644 131.767 143.709 131.966C143.774 132.166 143.795 132.377 143.77 132.586V135.586C143.775 135.656 143.807 135.721 143.859 135.767C143.912 135.814 143.98 135.838 144.05 135.836H145.17C145.238 135.836 145.304 135.81 145.354 135.764C145.404 135.717 145.435 135.654 145.44 135.586V132.126C145.46 131.769 145.405 131.412 145.278 131.078C145.151 130.744 144.956 130.44 144.704 130.186C144.452 129.933 144.15 129.735 143.817 129.605C143.484 129.476 143.127 129.418 142.77 129.436" fill="white"/>
<path d="M149.67 129.456C149.235 129.449 148.803 129.53 148.4 129.694C147.997 129.859 147.631 130.103 147.325 130.412C147.019 130.721 146.778 131.089 146.617 131.493C146.457 131.898 146.379 132.331 146.39 132.766C146.379 133.201 146.457 133.633 146.619 134.037C146.782 134.441 147.025 134.807 147.334 135.114C147.643 135.42 148.011 135.66 148.417 135.818C148.822 135.977 149.255 136.051 149.69 136.036C150.203 136.065 150.716 135.971 151.185 135.763C151.655 135.554 152.068 135.236 152.39 134.836C152.416 134.811 152.437 134.782 152.451 134.749C152.465 134.717 152.473 134.681 152.473 134.646C152.473 134.61 152.465 134.575 152.451 134.542C152.437 134.509 152.416 134.48 152.39 134.456L151.58 133.896C151.43 133.786 151.33 133.896 151.24 133.956C151.066 134.173 150.843 134.346 150.589 134.46C150.335 134.575 150.058 134.628 149.78 134.616C149.375 134.625 148.982 134.479 148.68 134.207C148.379 133.936 148.193 133.56 148.16 133.156H152.59C152.83 133.156 152.89 133.026 152.89 132.876V132.576C152.894 132.161 152.815 131.75 152.656 131.367C152.498 130.983 152.263 130.636 151.967 130.346C151.671 130.055 151.32 129.828 150.934 129.676C150.547 129.525 150.135 129.454 149.72 129.466M148.2 132.106C148.261 131.744 148.448 131.415 148.728 131.177C149.008 130.939 149.363 130.808 149.73 130.806C150.099 130.8 150.456 130.929 150.736 131.168C151.016 131.407 151.199 131.741 151.25 132.106H148.2Z" fill="white"/>
<path d="M160 129.636H158.87C158.8 129.638 158.734 129.668 158.686 129.718C158.637 129.769 158.61 129.836 158.61 129.906V130.396C158.403 130.09 158.12 129.842 157.788 129.678C157.457 129.513 157.089 129.437 156.72 129.456C155.848 129.456 155.011 129.802 154.394 130.419C153.777 131.036 153.43 131.873 153.43 132.746C153.43 133.618 153.777 134.455 154.394 135.072C155.011 135.689 155.848 136.036 156.72 136.036C157.098 136.05 157.473 135.965 157.808 135.79C158.143 135.614 158.427 135.354 158.63 135.036V135.576C158.63 135.645 158.658 135.711 158.706 135.76C158.755 135.808 158.821 135.836 158.89 135.836H160C160.069 135.836 160.135 135.808 160.184 135.76C160.233 135.711 160.26 135.645 160.26 135.576V129.886C160.263 129.85 160.258 129.815 160.246 129.781C160.235 129.748 160.216 129.718 160.191 129.692C160.166 129.666 160.137 129.646 160.104 129.633C160.071 129.62 160.036 129.614 160 129.616M157 134.496C156.56 134.462 156.149 134.264 155.849 133.94C155.549 133.617 155.382 133.192 155.382 132.751C155.382 132.309 155.549 131.884 155.849 131.561C156.149 131.237 156.56 131.039 157 131.006C157.44 131.039 157.851 131.237 158.151 131.561C158.451 131.884 158.618 132.309 158.618 132.751C158.618 133.192 158.451 133.617 158.151 133.94C157.851 134.264 157.44 134.462 157 134.496Z" fill="white"/>
<path d="M164.09 134.476H163.71C163.646 134.481 163.581 134.471 163.521 134.448C163.461 134.425 163.406 134.388 163.362 134.341C163.318 134.294 163.285 134.238 163.266 134.176C163.246 134.115 163.241 134.05 163.25 133.986V127.096C163.248 127.025 163.218 126.958 163.168 126.908C163.118 126.857 163.051 126.828 162.98 126.826H161.85C161.779 126.828 161.712 126.857 161.662 126.908C161.612 126.958 161.583 127.025 161.58 127.096V134.306C161.557 134.519 161.582 134.736 161.655 134.938C161.728 135.14 161.846 135.323 162.001 135.472C162.155 135.622 162.342 135.734 162.546 135.801C162.75 135.867 162.967 135.886 163.18 135.856H164C164.044 135.859 164.089 135.852 164.13 135.837C164.171 135.821 164.209 135.797 164.24 135.766C164.271 135.734 164.296 135.697 164.311 135.655C164.327 135.614 164.333 135.57 164.33 135.526V134.716C164.332 134.683 164.326 134.65 164.314 134.62C164.302 134.589 164.283 134.562 164.26 134.539C164.236 134.516 164.208 134.499 164.177 134.488C164.146 134.477 164.113 134.473 164.08 134.476" fill="white"/>
<path d="M169 134.306C168.88 134.136 168.69 134.136 168.49 134.306C168.315 134.422 168.11 134.488 167.9 134.496C167.798 134.498 167.697 134.478 167.604 134.438C167.51 134.397 167.427 134.337 167.359 134.261C167.292 134.184 167.242 134.094 167.212 133.997C167.183 133.899 167.176 133.796 167.19 133.696V131.076H169C169.071 131.073 169.138 131.044 169.188 130.994C169.238 130.944 169.268 130.876 169.27 130.806V129.956C169.268 129.885 169.238 129.818 169.188 129.768C169.138 129.717 169.071 129.688 169 129.686H167.19V127.956C167.19 127.886 167.163 127.819 167.115 127.768C167.066 127.718 167 127.688 166.93 127.686H165.8C165.764 127.684 165.729 127.69 165.695 127.703C165.662 127.716 165.631 127.736 165.606 127.762C165.581 127.787 165.561 127.817 165.548 127.851C165.535 127.884 165.529 127.92 165.53 127.956V129.686H164.67C164.636 129.687 164.602 129.695 164.571 129.709C164.54 129.724 164.512 129.744 164.489 129.769C164.466 129.794 164.448 129.823 164.436 129.855C164.424 129.887 164.419 129.922 164.42 129.956V130.806C164.42 130.874 164.446 130.94 164.492 130.99C164.538 131.04 164.602 131.071 164.67 131.076H165.53V134.076C165.511 134.348 165.552 134.622 165.65 134.877C165.748 135.132 165.9 135.363 166.096 135.554C166.292 135.744 166.527 135.889 166.786 135.98C167.044 136.07 167.318 136.102 167.59 136.076C168.231 136.107 168.858 135.888 169.34 135.466C169.396 135.408 169.427 135.331 169.427 135.251C169.427 135.171 169.396 135.093 169.34 135.036L169 134.306Z" fill="white"/>
<path d="M174 129.456C173.609 129.434 173.219 129.505 172.861 129.663C172.503 129.822 172.187 130.062 171.94 130.366V127.066C171.935 126.998 171.904 126.936 171.854 126.891C171.803 126.846 171.737 126.823 171.67 126.826H170.53C170.461 126.826 170.395 126.853 170.346 126.902C170.297 126.951 170.27 127.017 170.27 127.086V135.576C170.27 135.645 170.297 135.711 170.346 135.76C170.395 135.808 170.461 135.836 170.53 135.836H171.67C171.738 135.836 171.804 135.81 171.854 135.764C171.904 135.717 171.935 135.654 171.94 135.586V132.586C171.924 132.374 171.954 132.162 172.026 131.962C172.098 131.762 172.211 131.58 172.358 131.427C172.505 131.274 172.683 131.154 172.88 131.075C173.077 130.995 173.288 130.958 173.5 130.966C173.709 130.957 173.917 130.994 174.11 131.073C174.304 131.153 174.477 131.273 174.62 131.426C174.762 131.579 174.87 131.761 174.936 131.959C175.001 132.158 175.023 132.368 175 132.576V135.576C175.005 135.644 175.036 135.707 175.086 135.754C175.136 135.8 175.202 135.826 175.27 135.826H176.39C176.458 135.826 176.524 135.8 176.574 135.754C176.624 135.707 176.655 135.644 176.66 135.576V132.116C176.68 131.759 176.625 131.402 176.498 131.068C176.371 130.734 176.176 130.43 175.924 130.176C175.672 129.923 175.37 129.725 175.037 129.595C174.704 129.466 174.347 129.408 173.99 129.426" fill="white"/>
<path d="M178.85 133.746C178.565 133.772 178.3 133.905 178.107 134.116C177.914 134.328 177.807 134.604 177.807 134.891C177.807 135.177 177.914 135.453 178.107 135.665C178.3 135.877 178.565 136.009 178.85 136.036C179.009 136.051 179.17 136.032 179.322 135.981C179.474 135.931 179.613 135.849 179.731 135.741C179.85 135.633 179.944 135.502 180.009 135.355C180.074 135.209 180.107 135.051 180.107 134.891C180.107 134.731 180.074 134.572 180.009 134.426C179.944 134.28 179.85 134.148 179.731 134.04C179.613 133.933 179.474 133.851 179.322 133.8C179.17 133.749 179.009 133.731 178.85 133.746Z" fill="white"/>
<path d="M8.61988 142.696V141.696C8.62122 141.659 8.61524 141.623 8.60227 141.589C8.5893 141.555 8.56963 141.524 8.54442 141.498C8.51922 141.472 8.48899 141.451 8.45557 141.437C8.42214 141.423 8.38619 141.416 8.34988 141.416H1.20988C1.17273 141.414 1.1357 141.421 1.10109 141.434C1.06648 141.448 1.03505 141.468 1.00877 141.495C0.982483 141.521 0.961909 141.552 0.948334 141.587C0.934759 141.621 0.928477 141.659 0.92988 141.696V142.696C0.929855 142.732 0.937156 142.768 0.951346 142.801C0.965536 142.835 0.986323 142.865 1.01246 142.89C1.0386 142.915 1.06956 142.935 1.10348 142.948C1.1374 142.961 1.17359 142.967 1.20988 142.966H3.88988V150.126C3.88854 150.162 3.89452 150.198 3.90749 150.232C3.92045 150.266 3.94013 150.297 3.96534 150.323C3.99054 150.349 4.02076 150.37 4.05419 150.384C4.08762 150.398 4.12357 150.406 4.15988 150.406H5.37988C5.45509 150.406 5.52738 150.377 5.58148 150.324C5.63559 150.272 5.66729 150.201 5.66988 150.126V142.966H8.34988C8.38571 142.967 8.42145 142.961 8.45485 142.948C8.48824 142.935 8.51857 142.915 8.54393 142.89C8.56929 142.864 8.58912 142.834 8.60219 142.801C8.61527 142.767 8.62129 142.732 8.61988 142.696Z" fill="white"/>
<path d="M11.4201 144.116H11.2401C10.9272 144.117 10.6206 144.204 10.3529 144.366C10.0853 144.528 9.86656 144.759 9.72008 145.036V144.436C9.71503 144.37 9.68542 144.309 9.6372 144.265C9.58898 144.22 9.5257 144.195 9.46008 144.196H8.39008C8.35507 144.196 8.32043 144.203 8.28821 144.216C8.256 144.23 8.22688 144.25 8.2026 144.275C8.17832 144.301 8.15938 144.33 8.14692 144.363C8.13446 144.396 8.12873 144.431 8.13008 144.466V150.156C8.13266 150.223 8.16119 150.286 8.20967 150.333C8.25816 150.38 8.32282 150.406 8.39008 150.406H9.52008C9.58741 150.408 9.65319 150.385 9.70356 150.34C9.75393 150.295 9.78495 150.233 9.79008 150.166V147.366C9.79008 146.296 10.2701 145.866 11.1001 145.866H11.4101C11.452 145.867 11.4939 145.86 11.5328 145.844C11.5718 145.828 11.607 145.805 11.6362 145.775C11.6654 145.744 11.688 145.708 11.7025 145.669C11.7169 145.63 11.7229 145.588 11.7201 145.546V144.436C11.7262 144.394 11.7229 144.351 11.7103 144.311C11.6977 144.271 11.6762 144.234 11.6474 144.203C11.6185 144.172 11.5831 144.149 11.5437 144.133C11.5044 144.118 11.4621 144.112 11.4201 144.116Z" fill="white"/>
<path d="M18.49 144.196H17.35C17.2801 144.198 17.214 144.228 17.1655 144.278C17.117 144.329 17.0899 144.396 17.09 144.466V144.956C16.8845 144.648 16.6019 144.399 16.2703 144.234C15.9387 144.069 15.5697 143.994 15.2 144.016C14.3601 144.062 13.5699 144.428 12.9917 145.039C12.4135 145.65 12.0913 146.46 12.0913 147.301C12.0913 148.142 12.4135 148.951 12.9917 149.562C13.5699 150.173 14.3601 150.539 15.2 150.586C15.5705 150.604 15.9395 150.527 16.2719 150.362C16.6044 150.198 16.8894 149.951 17.1 149.646V150.156C17.1026 150.223 17.1311 150.286 17.1796 150.333C17.2281 150.38 17.2927 150.406 17.36 150.406H18.5C18.5673 150.406 18.6319 150.38 18.6804 150.333C18.7289 150.286 18.7574 150.223 18.76 150.156V144.466C18.7613 144.431 18.7556 144.396 18.7431 144.363C18.7307 144.33 18.7117 144.301 18.6875 144.275C18.6632 144.25 18.6341 144.23 18.6019 144.216C18.5696 144.203 18.535 144.196 18.5 144.196M15.44 149.056C14.9759 149.056 14.5307 148.871 14.2026 148.543C13.8744 148.215 13.69 147.77 13.69 147.306C13.69 146.842 13.8744 146.396 14.2026 146.068C14.5307 145.74 14.9759 145.556 15.44 145.556C15.9041 145.556 16.3492 145.74 16.6774 146.068C17.0056 146.396 17.19 146.842 17.19 147.306C17.19 147.77 17.0056 148.215 16.6774 148.543C16.3492 148.871 15.9041 149.056 15.44 149.056Z" fill="white"/>
<path d="M23.8 144.016C23.4092 143.994 23.0188 144.065 22.6608 144.223C22.3027 144.382 21.9872 144.622 21.74 144.926V144.436C21.7306 144.37 21.6983 144.31 21.6489 144.266C21.5995 144.222 21.5361 144.197 21.47 144.196H20.33C20.295 144.196 20.2604 144.203 20.2282 144.216C20.1959 144.23 20.1668 144.25 20.1425 144.275C20.1183 144.301 20.0993 144.33 20.0869 144.363C20.0744 144.396 20.0687 144.431 20.07 144.466V150.156C20.0726 150.223 20.1011 150.286 20.1496 150.333C20.1981 150.38 20.2628 150.406 20.33 150.406H21.47C21.5367 150.406 21.6012 150.382 21.6511 150.337C21.7009 150.293 21.7326 150.232 21.74 150.166V147.166C21.7272 146.956 21.7586 146.746 21.8321 146.549C21.9055 146.353 22.0195 146.174 22.1665 146.024C22.3136 145.874 22.4904 145.757 22.6857 145.679C22.881 145.602 23.0902 145.567 23.3 145.576C23.5097 145.566 23.719 145.601 23.9135 145.68C24.108 145.759 24.2831 145.879 24.4267 146.032C24.5703 146.185 24.6789 146.368 24.7451 146.567C24.8113 146.766 24.8334 146.977 24.81 147.186V150.186C24.8151 150.253 24.8462 150.315 24.8965 150.36C24.9469 150.405 25.0127 150.428 25.08 150.426H26.2C26.2674 150.428 26.3331 150.405 26.3835 150.36C26.4339 150.315 26.4649 150.253 26.47 150.186V146.726C26.4901 146.369 26.4349 146.012 26.3081 145.678C26.1812 145.344 25.9856 145.04 25.7339 144.786C25.4821 144.533 25.1799 144.335 24.8467 144.205C24.5136 144.076 24.157 144.018 23.8 144.036" fill="white"/>
<path d="M31.0001 146.656L30.0001 146.466C29.4301 146.356 29.2101 146.166 29.2101 145.866C29.2101 145.566 29.5701 145.316 30.1401 145.316C30.6729 145.337 31.186 145.522 31.6101 145.846C31.8401 145.986 32.0401 145.986 32.1901 145.846L32.6001 145.356C32.638 145.324 32.6684 145.284 32.6893 145.239C32.7102 145.194 32.721 145.145 32.721 145.096C32.721 145.046 32.7102 144.997 32.6893 144.952C32.6684 144.907 32.638 144.868 32.6001 144.836C31.9128 144.302 31.0599 144.026 30.1901 144.056C28.5901 144.056 27.5601 144.916 27.5601 146.056C27.5602 146.516 27.731 146.96 28.0394 147.302C28.3479 147.643 28.7721 147.859 29.2301 147.906L30.2301 148.106C30.8701 148.236 31.2301 148.366 31.2301 148.726C31.2301 149.086 30.9101 149.346 30.2301 149.346C29.6388 149.338 29.0717 149.11 28.6401 148.706C28.6027 148.666 28.5578 148.635 28.5079 148.614C28.458 148.592 28.4044 148.581 28.3501 148.581C28.2958 148.581 28.2422 148.592 28.1923 148.614C28.1424 148.635 28.0975 148.666 28.0601 148.706L27.5801 149.086C27.3201 149.296 27.3001 149.596 27.7801 149.956C28.4703 150.449 29.3019 150.705 30.1501 150.686C31.7901 150.686 32.9201 149.816 32.9201 148.616C32.9201 147.416 32.1201 146.966 31.0301 146.756" fill="white"/>
<path d="M38.4404 141.626C37.9509 141.239 37.3441 141.031 36.7204 141.036C36.4283 141.017 36.1355 141.06 35.8614 141.163C35.5873 141.265 35.3381 141.425 35.1302 141.631C34.9223 141.837 34.7604 142.085 34.6553 142.358C34.5502 142.631 34.5042 142.923 34.5204 143.216V144.216H33.6804C33.6445 144.214 33.6088 144.22 33.5754 144.233C33.542 144.246 33.5117 144.266 33.4863 144.292C33.4609 144.317 33.4411 144.347 33.428 144.381C33.415 144.414 33.4089 144.45 33.4104 144.486V145.336C33.4104 145.407 33.4388 145.476 33.4894 145.527C33.5401 145.577 33.6087 145.606 33.6804 145.606H34.5204V150.156C34.5228 150.227 34.5521 150.294 34.6022 150.344C34.6523 150.394 34.7195 150.423 34.7904 150.426H35.9204C35.9902 150.423 36.0564 150.394 36.1048 150.343C36.1533 150.293 36.1804 150.226 36.1804 150.156V145.576H37.4104C37.4812 145.573 37.5484 145.544 37.5985 145.494C37.6486 145.444 37.6779 145.376 37.6804 145.306V144.456C37.6804 144.42 37.6734 144.385 37.6598 144.352C37.6462 144.32 37.6263 144.29 37.6013 144.265C37.5762 144.24 37.5464 144.22 37.5137 144.206C37.4809 144.193 37.4458 144.186 37.4104 144.186H36.1804V143.346C36.1676 143.246 36.1762 143.145 36.2055 143.049C36.2348 142.953 36.2841 142.864 36.3503 142.788C36.4165 142.713 36.4979 142.652 36.5893 142.61C36.6807 142.568 36.7799 142.546 36.8804 142.546C37.0952 142.554 37.3032 142.624 37.4804 142.746C37.6104 142.836 37.8304 142.946 37.9704 142.746L38.4604 142.076C38.5145 142.015 38.5444 141.937 38.5444 141.856C38.5444 141.775 38.5145 141.696 38.4604 141.636" fill="white"/>
<path d="M41.3303 144.016C40.6823 144.026 40.0516 144.227 39.5173 144.594C38.9831 144.961 38.5692 145.477 38.3276 146.079C38.0859 146.68 38.0273 147.339 38.159 147.974C38.2907 148.609 38.607 149.19 39.068 149.646C39.5291 150.101 40.1144 150.41 40.7505 150.534C41.3867 150.659 42.0453 150.592 42.6437 150.343C43.2422 150.094 43.7538 149.674 44.1143 149.135C44.4748 148.597 44.6683 147.964 44.6703 147.316C44.6717 146.879 44.5859 146.446 44.4181 146.042C44.2502 145.638 44.0036 145.272 43.6927 144.965C43.3817 144.658 43.0126 144.416 42.607 144.253C42.2014 144.09 41.7674 144.009 41.3303 144.016ZM41.3303 149.016C40.98 149.032 40.6329 148.942 40.3341 148.758C40.0353 148.575 39.7986 148.305 39.6547 147.986C39.5108 147.666 39.4663 147.31 39.5269 146.965C39.5876 146.619 39.7507 146.3 39.995 146.048C40.2393 145.797 40.5536 145.624 40.8971 145.554C41.2406 145.483 41.5974 145.517 41.9213 145.651C42.2453 145.786 42.5213 146.014 42.7137 146.307C42.9061 146.601 43.006 146.945 43.0003 147.296C43.0083 147.52 42.9715 147.744 42.8921 147.954C42.8126 148.164 42.6921 148.356 42.5375 148.519C42.383 148.682 42.1975 148.812 41.9919 148.903C41.7864 148.993 41.5649 149.042 41.3403 149.046" fill="white"/>
<path d="M49.0001 144.116H48.8201C48.5072 144.117 48.2007 144.204 47.933 144.366C47.6653 144.528 47.4466 144.759 47.3001 145.036V144.436C47.2951 144.37 47.2655 144.309 47.2172 144.265C47.169 144.22 47.1057 144.195 47.0401 144.196H45.9301C45.8951 144.196 45.8605 144.203 45.8283 144.216C45.796 144.23 45.7669 144.25 45.7426 144.275C45.7184 144.301 45.6994 144.33 45.687 144.363C45.6745 144.396 45.6688 144.431 45.6701 144.466V150.156C45.6727 150.223 45.7012 150.286 45.7497 150.333C45.7982 150.38 45.8629 150.406 45.9301 150.406H47.0701C47.1368 150.406 47.2013 150.382 47.2512 150.337C47.301 150.293 47.3327 150.232 47.3401 150.166V147.366C47.3401 146.296 47.8101 145.866 48.6401 145.866H49.0001C49.0421 145.867 49.0839 145.86 49.1229 145.844C49.1618 145.828 49.197 145.805 49.2263 145.775C49.2555 145.744 49.2781 145.708 49.2925 145.669C49.3069 145.63 49.3129 145.588 49.3101 145.546V144.436C49.3163 144.394 49.3129 144.351 49.3004 144.311C49.2878 144.271 49.2662 144.234 49.2374 144.203C49.2086 144.172 49.1731 144.149 49.1338 144.133C49.0944 144.118 49.0521 144.112 49.0101 144.116" fill="white"/>
<path d="M57.9002 144.016C57.4715 144.007 57.047 144.102 56.6625 144.292C56.2779 144.481 55.9445 144.76 55.6902 145.106C55.4933 144.754 55.2011 144.465 54.8473 144.272C54.4934 144.08 54.0924 143.991 53.6902 144.016C53.3185 144.007 52.95 144.085 52.6135 144.243C52.2769 144.401 51.9815 144.635 51.7502 144.926V144.436C51.7428 144.369 51.7111 144.308 51.6612 144.264C51.6114 144.22 51.5469 144.195 51.4802 144.196H50.3702C50.3348 144.194 50.2994 144.2 50.2665 144.213C50.2336 144.227 50.2039 144.247 50.1793 144.272C50.1547 144.298 50.1358 144.328 50.1239 144.361C50.112 144.395 50.1073 144.43 50.1102 144.466V150.156C50.1102 150.189 50.117 150.223 50.1301 150.254C50.1433 150.285 50.1626 150.313 50.1869 150.336C50.2112 150.359 50.24 150.378 50.2715 150.39C50.3029 150.402 50.3365 150.407 50.3702 150.406H51.5002C51.5675 150.408 51.6333 150.385 51.6837 150.34C51.7341 150.295 51.7651 150.233 51.7702 150.166V147.046C51.7532 146.852 51.7774 146.657 51.841 146.473C51.9046 146.29 52.0063 146.122 52.1394 145.98C52.2725 145.838 52.4341 145.727 52.6134 145.652C52.7928 145.577 52.9859 145.541 53.1802 145.546C53.3706 145.542 53.5595 145.58 53.7338 145.657C53.9082 145.734 54.0639 145.847 54.1902 145.99C54.3166 146.132 54.4106 146.3 54.4658 146.483C54.5211 146.665 54.5362 146.857 54.5102 147.046V150.166C54.5153 150.233 54.5463 150.295 54.5967 150.34C54.6471 150.385 54.7129 150.408 54.7802 150.406H55.9002C55.9675 150.408 56.0333 150.385 56.0837 150.34C56.1341 150.295 56.1651 150.233 56.1702 150.166V147.046C56.1502 146.853 56.1715 146.659 56.2328 146.475C56.294 146.291 56.3938 146.123 56.5254 145.981C56.657 145.839 56.8173 145.727 56.9958 145.651C57.1743 145.576 57.3667 145.54 57.5602 145.546C58.4702 145.546 58.8902 146.206 58.8902 147.046V150.166C58.8953 150.233 58.9263 150.295 58.9767 150.34C59.0271 150.385 59.0929 150.408 59.1602 150.406H60.2902C60.3575 150.408 60.4233 150.385 60.4737 150.34C60.5241 150.295 60.5551 150.233 60.5602 150.166V146.646C60.5793 146.293 60.5234 145.94 60.3961 145.61C60.2688 145.28 60.073 144.981 59.8216 144.733C59.5702 144.484 59.269 144.292 58.9378 144.168C58.6066 144.044 58.2529 143.993 57.9002 144.016Z" fill="white"/>
<path d="M62.6602 141.286C62.3831 141.286 62.1173 141.396 61.9213 141.592C61.7253 141.788 61.6152 142.054 61.6152 142.331C61.6152 142.608 61.7253 142.874 61.9213 143.07C62.1173 143.266 62.3831 143.376 62.6602 143.376C62.9374 143.376 63.2032 143.266 63.3992 143.07C63.5951 142.874 63.7052 142.608 63.7052 142.331C63.7052 142.054 63.5951 141.788 63.3992 141.592C63.2032 141.396 62.9374 141.286 62.6602 141.286Z" fill="white"/>
<path d="M63.21 144.196H62.09C62.0542 144.194 62.0185 144.2 61.9851 144.213C61.9517 144.226 61.9213 144.246 61.896 144.272C61.8706 144.297 61.8508 144.327 61.8377 144.361C61.8246 144.394 61.8186 144.43 61.82 144.466V150.136C61.82 150.171 61.827 150.206 61.8406 150.239C61.8541 150.272 61.874 150.302 61.8991 150.327C61.9242 150.352 61.9539 150.372 61.9867 150.385C62.0195 150.399 62.0546 150.406 62.09 150.406H63.21C63.2816 150.406 63.3503 150.377 63.4009 150.327C63.4516 150.276 63.48 150.207 63.48 150.136V144.466C63.4814 144.43 63.4754 144.394 63.4623 144.361C63.4493 144.327 63.4294 144.297 63.4041 144.272C63.3787 144.246 63.3484 144.226 63.315 144.213C63.2816 144.2 63.2459 144.194 63.21 144.196Z" fill="white"/>
<path d="M68.5403 144.016C68.1481 143.995 67.7565 144.066 67.397 144.224C67.0375 144.382 66.72 144.623 66.4703 144.926V144.436C66.4628 144.369 66.4312 144.308 66.3813 144.264C66.3314 144.22 66.267 144.195 66.2003 144.196H65.0703C65.0353 144.196 65.0006 144.203 64.9684 144.216C64.9362 144.23 64.9071 144.25 64.8828 144.275C64.8585 144.301 64.8396 144.33 64.8271 144.363C64.8146 144.396 64.8089 144.431 64.8103 144.466V150.156C64.8128 150.223 64.8414 150.286 64.8899 150.333C64.9383 150.38 65.003 150.406 65.0703 150.406H66.2003C66.2676 150.408 66.3334 150.385 66.3837 150.34C66.4341 150.295 66.4651 150.233 66.4703 150.166V147.166C66.4578 146.959 66.4883 146.751 66.56 146.557C66.6317 146.362 66.7429 146.185 66.8867 146.035C67.0304 145.886 67.2036 145.768 67.3953 145.689C67.587 145.61 67.793 145.571 68.0003 145.576C68.2103 145.564 68.4205 145.598 68.6158 145.677C68.8111 145.755 68.987 145.875 69.1309 146.028C69.2749 146.182 69.3834 146.365 69.449 146.565C69.5145 146.765 69.5354 146.977 69.5103 147.186V150.186C69.5154 150.253 69.5464 150.315 69.5968 150.36C69.6471 150.405 69.7129 150.428 69.7803 150.426H70.9103C70.9776 150.428 71.0434 150.405 71.0937 150.36C71.1441 150.315 71.1751 150.253 71.1803 150.186V146.726C71.2003 146.369 71.1451 146.012 71.0183 145.678C70.8915 145.344 70.6959 145.04 70.4441 144.786C70.1924 144.533 69.8901 144.335 69.557 144.205C69.2238 144.076 68.8672 144.018 68.5103 144.036" fill="white"/>
<path d="M78.5702 144.206H77.4502C77.3812 144.206 77.3151 144.233 77.2663 144.282C77.2176 144.331 77.1902 144.397 77.1902 144.466V144.966C76.967 144.648 76.6656 144.394 76.3151 144.228C75.9647 144.061 75.5772 143.988 75.1902 144.016C74.3658 144.07 73.5935 144.438 73.032 145.044C72.4705 145.65 72.1626 146.448 72.1716 147.274C72.1805 148.1 72.5057 148.891 73.0802 149.485C73.6547 150.079 74.4348 150.43 75.2602 150.466C75.6225 150.483 75.9836 150.411 76.3114 150.256C76.6393 150.1 76.9239 149.867 77.1402 149.576V150.396C77.11 150.766 76.9586 151.116 76.7093 151.392C76.46 151.668 76.1268 151.854 75.7613 151.921C75.3957 151.988 75.0182 151.933 74.6872 151.764C74.3562 151.595 74.0901 151.321 73.9302 150.986C73.9009 150.935 73.8548 150.897 73.8001 150.877C73.7453 150.856 73.6852 150.856 73.6302 150.876L72.4302 151.196C72.4041 151.204 72.38 151.217 72.3592 151.234C72.3384 151.252 72.3214 151.273 72.3092 151.298C72.297 151.322 72.2899 151.349 72.2884 151.376C72.2869 151.403 72.2909 151.43 72.3002 151.456C72.5902 152.626 73.8002 153.376 75.4502 153.376C77.5302 153.376 78.7902 152.176 78.7902 150.446V144.446C78.7902 144.411 78.7832 144.376 78.7695 144.344C78.7558 144.312 78.7358 144.282 78.7105 144.258C78.6853 144.234 78.6555 144.215 78.6228 144.203C78.5901 144.19 78.5552 144.184 78.5202 144.186M75.4602 148.956C75.1176 148.966 74.7799 148.873 74.4903 148.69C74.2007 148.506 73.9725 148.241 73.8349 147.927C73.6973 147.613 73.6566 147.265 73.7181 146.928C73.7795 146.591 73.9402 146.28 74.1797 146.035C74.4191 145.789 74.7264 145.621 75.062 145.552C75.3976 145.483 75.7463 145.515 76.0633 145.645C76.3803 145.775 76.6513 145.997 76.8414 146.282C77.0315 146.568 77.132 146.903 77.1302 147.246C77.1398 147.469 77.1035 147.693 77.0235 147.902C76.9435 148.111 76.8215 148.302 76.665 148.462C76.5085 148.622 76.3209 148.749 76.1137 148.833C75.9065 148.918 75.6841 148.96 75.4602 148.956Z" fill="white"/>
<path d="M87.5199 141.626C87.0343 141.239 86.4307 141.031 85.8099 141.036C85.5171 141.015 85.2232 141.058 84.9479 141.16C84.6726 141.262 84.4221 141.421 84.2131 141.627C84.0041 141.833 83.8413 142.081 83.7356 142.355C83.6299 142.629 83.5836 142.923 83.5999 143.216V144.216H82.76C82.7241 144.214 82.6884 144.22 82.655 144.233C82.6216 144.246 82.5913 144.266 82.5659 144.292C82.5405 144.317 82.5207 144.347 82.5076 144.381C82.4946 144.414 82.4885 144.45 82.4899 144.486V145.336C82.4924 145.406 82.5217 145.474 82.5718 145.524C82.6219 145.574 82.6891 145.603 82.76 145.606H83.5999V150.156C83.6024 150.227 83.6317 150.294 83.6818 150.344C83.7319 150.394 83.7991 150.423 83.87 150.426H84.9999C85.068 150.421 85.1317 150.39 85.1781 150.34C85.2245 150.29 85.2501 150.224 85.2499 150.156V145.576H86.48C86.5508 145.573 86.618 145.544 86.6681 145.494C86.7182 145.444 86.7475 145.376 86.7499 145.306V144.456C86.7499 144.384 86.7215 144.315 86.6709 144.265C86.6202 144.214 86.5516 144.186 86.48 144.186H85.26V143.346C85.2472 143.246 85.2558 143.145 85.2851 143.049C85.3144 142.953 85.3637 142.864 85.4299 142.788C85.4961 142.713 85.5775 142.652 85.6689 142.61C85.7603 142.568 85.8595 142.546 85.9599 142.546C86.178 142.554 86.3892 142.623 86.5699 142.746C86.6999 142.836 86.9099 142.946 87.0599 142.746L87.55 142.076C87.6041 142.015 87.634 141.937 87.634 141.856C87.634 141.775 87.6041 141.696 87.55 141.636" fill="white"/>
<path d="M93.3802 144.196H92.2402C92.1746 144.195 92.1113 144.22 92.0631 144.265C92.0149 144.309 91.9853 144.37 91.9802 144.436V147.686C91.9995 147.881 91.9761 148.077 91.9118 148.262C91.8475 148.447 91.7437 148.616 91.6076 148.757C91.4716 148.897 91.3065 149.007 91.124 149.077C90.9414 149.148 90.7456 149.178 90.5502 149.166C90.3549 149.178 90.1592 149.147 89.9775 149.074C89.7957 149.001 89.6324 148.889 89.4993 148.745C89.3663 148.602 89.2668 148.431 89.2082 148.244C89.1495 148.057 89.1332 147.86 89.1602 147.666V144.436C89.1551 144.368 89.1241 144.306 89.0737 144.261C89.0233 144.216 88.9576 144.193 88.8902 144.196H87.7702C87.7029 144.193 87.6371 144.216 87.5867 144.261C87.5364 144.306 87.5054 144.368 87.5002 144.436V147.946C87.4712 148.292 87.5166 148.64 87.6333 148.967C87.7501 149.293 87.9355 149.591 88.1771 149.841C88.4187 150.09 88.7109 150.284 89.034 150.411C89.3571 150.538 89.7036 150.594 90.0502 150.576C90.4253 150.607 90.802 150.54 91.1437 150.382C91.4855 150.225 91.7805 149.981 92.0002 149.676V150.166C92.0015 150.199 92.0093 150.231 92.023 150.261C92.0368 150.29 92.0563 150.317 92.0805 150.34C92.1046 150.362 92.1329 150.379 92.1638 150.391C92.1946 150.402 92.2274 150.407 92.2602 150.406H93.4002C93.4344 150.407 93.4685 150.402 93.5005 150.39C93.5326 150.378 93.562 150.36 93.5871 150.337C93.6121 150.313 93.6324 150.286 93.6467 150.254C93.6609 150.223 93.6689 150.19 93.6702 150.156V144.466C93.6716 144.43 93.6656 144.394 93.6525 144.361C93.6395 144.327 93.6196 144.297 93.5943 144.272C93.5689 144.246 93.5386 144.226 93.5052 144.213C93.4718 144.2 93.4361 144.194 93.4002 144.196" fill="white"/>
<path d="M98.9999 148.866C98.8899 148.696 98.6899 148.696 98.4999 148.806C98.3271 148.929 98.1219 148.998 97.9099 149.006C97.8081 149.008 97.7069 148.988 97.6135 148.948C97.5201 148.907 97.4367 148.847 97.3691 148.771C97.3015 148.694 97.2514 148.604 97.2221 148.507C97.1929 148.409 97.1853 148.306 97.1999 148.206V145.576H98.9999C99.0707 145.573 99.1379 145.544 99.188 145.494C99.2381 145.444 99.2674 145.376 99.2699 145.306V144.456C99.2699 144.384 99.2414 144.315 99.1908 144.265C99.1402 144.214 99.0715 144.186 98.9999 144.186H97.1999V142.456C97.2012 142.421 97.1955 142.386 97.183 142.353C97.1706 142.32 97.1516 142.291 97.1274 142.265C97.1031 142.24 97.074 142.22 97.0417 142.206C97.0095 142.193 96.9749 142.186 96.9399 142.186H95.8099C95.774 142.184 95.7383 142.19 95.7049 142.203C95.6715 142.216 95.6412 142.236 95.6158 142.262C95.5905 142.287 95.5706 142.317 95.5576 142.351C95.5445 142.384 95.5385 142.42 95.5399 142.456V144.186H94.6899C94.6549 144.186 94.6202 144.193 94.588 144.206C94.5558 144.22 94.5267 144.24 94.5024 144.265C94.4781 144.291 94.4592 144.32 94.4467 144.353C94.4343 144.386 94.4285 144.421 94.4299 144.456V145.306C94.4298 145.376 94.4569 145.443 94.5054 145.493C94.5539 145.544 94.62 145.573 94.6899 145.576H95.5399V148.576C95.5227 148.849 95.565 149.123 95.6639 149.378C95.7628 149.633 95.916 149.864 96.1129 150.054C96.3097 150.244 96.5455 150.389 96.804 150.479C97.0625 150.569 97.3375 150.602 97.6099 150.576C98.2516 150.604 98.8794 150.382 99.3599 149.956C99.4126 149.898 99.4418 149.823 99.4418 149.746C99.4418 149.668 99.4126 149.593 99.3599 149.536L98.9999 148.866Z" fill="white"/>
<path d="M106 144.196H104.86C104.794 144.195 104.731 144.22 104.683 144.265C104.635 144.309 104.605 144.37 104.6 144.436V147.686C104.619 147.881 104.596 148.077 104.532 148.262C104.467 148.447 104.363 148.616 104.227 148.757C104.091 148.897 103.926 149.007 103.744 149.077C103.561 149.148 103.365 149.178 103.17 149.166C102.975 149.178 102.779 149.147 102.597 149.074C102.415 149.001 102.252 148.889 102.119 148.745C101.986 148.602 101.887 148.431 101.828 148.244C101.769 148.057 101.753 147.86 101.78 147.666V144.436C101.775 144.368 101.744 144.306 101.693 144.261C101.643 144.216 101.577 144.193 101.51 144.196H100.39C100.323 144.193 100.257 144.216 100.207 144.261C100.156 144.306 100.125 144.368 100.12 144.436V147.946C100.09 148.294 100.137 148.645 100.255 148.974C100.374 149.303 100.562 149.603 100.807 149.853C101.052 150.102 101.348 150.296 101.674 150.421C102.001 150.546 102.351 150.599 102.7 150.576C103.073 150.602 103.446 150.532 103.784 150.373C104.122 150.214 104.413 149.97 104.63 149.666V150.156C104.631 150.189 104.639 150.221 104.653 150.251C104.667 150.28 104.686 150.307 104.71 150.33C104.734 150.352 104.763 150.369 104.794 150.381C104.824 150.392 104.857 150.397 104.89 150.396H106C106.034 150.397 106.068 150.392 106.1 150.38C106.132 150.368 106.162 150.35 106.187 150.327C106.212 150.303 106.232 150.276 106.246 150.244C106.261 150.213 106.269 150.18 106.27 150.146V144.456C106.271 144.42 106.265 144.384 106.252 144.351C106.239 144.317 106.219 144.287 106.194 144.262C106.169 144.236 106.138 144.216 106.105 144.203C106.072 144.19 106.036 144.184 106 144.186" fill="white"/>
<path d="M110.91 144.116H110.73C110.418 144.119 110.112 144.207 109.845 144.368C109.577 144.53 109.358 144.761 109.21 145.036V144.436C109.205 144.37 109.176 144.309 109.127 144.265C109.079 144.22 109.016 144.195 108.95 144.196H107.88C107.846 144.196 107.811 144.203 107.78 144.216C107.748 144.23 107.719 144.25 107.696 144.276C107.672 144.301 107.654 144.331 107.643 144.364C107.632 144.397 107.627 144.431 107.63 144.466V150.156C107.63 150.222 107.657 150.286 107.703 150.332C107.75 150.379 107.814 150.406 107.88 150.406H109C109.068 150.408 109.133 150.385 109.184 150.34C109.234 150.295 109.265 150.233 109.27 150.166V147.366C109.27 146.296 109.75 145.866 110.57 145.866H110.88C110.922 145.867 110.964 145.86 111.003 145.844C111.042 145.828 111.077 145.805 111.106 145.775C111.136 145.744 111.158 145.708 111.173 145.669C111.187 145.63 111.193 145.588 111.19 145.546V144.436C111.196 144.394 111.193 144.351 111.18 144.311C111.168 144.271 111.146 144.234 111.117 144.203C111.089 144.172 111.053 144.149 111.014 144.133C110.974 144.118 110.932 144.112 110.89 144.116" fill="white"/>
<path d="M114.85 144.016C114.415 144.009 113.983 144.09 113.58 144.254C113.177 144.419 112.811 144.663 112.505 144.972C112.199 145.281 111.958 145.649 111.797 146.053C111.637 146.458 111.56 146.891 111.57 147.326C111.601 148.009 111.837 148.668 112.247 149.215C112.657 149.763 113.222 150.175 113.87 150.397C114.517 150.619 115.216 150.641 115.876 150.461C116.536 150.281 117.126 149.906 117.57 149.386C117.596 149.362 117.617 149.334 117.631 149.302C117.645 149.27 117.652 149.236 117.652 149.201C117.652 149.166 117.645 149.131 117.631 149.1C117.617 149.068 117.596 149.039 117.57 149.016L116.76 148.446C116.61 148.346 116.51 148.446 116.42 148.516C116.244 148.731 116.021 148.903 115.768 149.017C115.515 149.132 115.238 149.186 114.96 149.176C114.556 149.182 114.164 149.035 113.863 148.764C113.562 148.494 113.376 148.119 113.34 147.716H117.77C118.01 147.716 118.07 147.586 118.07 147.426V147.116C118.075 146.701 117.995 146.291 117.836 145.908C117.678 145.525 117.443 145.179 117.147 144.889C116.851 144.599 116.499 144.373 116.113 144.223C115.727 144.073 115.314 144.002 114.9 144.016M113.38 146.656C113.44 146.293 113.626 145.963 113.906 145.724C114.187 145.486 114.543 145.356 114.91 145.356C115.279 145.35 115.636 145.479 115.916 145.718C116.196 145.957 116.379 146.291 116.43 146.656H113.38Z" fill="white"/>
<path d="M122.2 146.656L121.2 146.466C120.63 146.356 120.41 146.166 120.41 145.866C120.41 145.566 120.78 145.316 121.34 145.316C121.873 145.337 122.386 145.522 122.81 145.846C123.05 145.986 123.24 145.986 123.39 145.846L123.81 145.356C123.848 145.324 123.879 145.284 123.9 145.239C123.92 145.194 123.931 145.145 123.931 145.096C123.931 145.046 123.92 144.997 123.9 144.952C123.879 144.907 123.848 144.868 123.81 144.836C123.124 144.299 122.271 144.023 121.4 144.056C119.8 144.056 118.77 144.916 118.77 146.056C118.771 146.518 118.943 146.963 119.253 147.305C119.564 147.647 119.991 147.861 120.45 147.906L121.45 148.106C122.09 148.236 122.45 148.366 122.45 148.726C122.45 149.086 122.13 149.346 121.45 149.346C120.859 149.336 120.293 149.108 119.86 148.706C119.823 148.666 119.778 148.635 119.728 148.614C119.678 148.592 119.625 148.581 119.57 148.581C119.516 148.581 119.462 148.592 119.413 148.614C119.363 148.635 119.318 148.666 119.28 148.706L118.81 149.086C118.55 149.296 118.52 149.596 119 149.956C119.69 150.449 120.522 150.705 121.37 150.686C123.01 150.686 124.15 149.816 124.15 148.616C124.15 147.416 123.35 146.966 122.25 146.756" fill="white"/>
<path d="M126 148.306C125.775 148.308 125.556 148.376 125.371 148.502C125.185 148.628 125.04 148.806 124.955 149.014C124.87 149.222 124.848 149.45 124.893 149.671C124.937 149.891 125.045 150.093 125.204 150.252C125.363 150.411 125.565 150.519 125.785 150.563C126.005 150.608 126.234 150.586 126.442 150.501C126.65 150.416 126.828 150.271 126.954 150.085C127.08 149.899 127.148 149.68 127.15 149.456C127.147 149.151 127.025 148.861 126.81 148.645C126.595 148.43 126.304 148.308 126 148.306Z" fill="white"/>
</svg>
