<svg width="489" height="38" viewBox="0 0 489 38" fill="none" xmlns="http://www.w3.org/2000/svg">
<g opacity="0.5">
<path d="M24.6663 19H15.333M15.333 19L19.9997 23.6667M15.333 19L19.9997 14.3334" stroke="#070808" stroke-width="1.6" stroke-linecap="round" stroke-linejoin="round"/>
<path d="M37.4091 25V13.3636H41.3409C42.2538 13.3636 43 13.5284 43.5795 13.858C44.1629 14.1837 44.5947 14.625 44.875 15.1818C45.1553 15.7386 45.2955 16.3598 45.2955 17.0455C45.2955 17.7311 45.1553 18.3542 44.875 18.9148C44.5985 19.4754 44.1705 19.9223 43.5909 20.2557C43.0114 20.5852 42.2689 20.75 41.3636 20.75H38.5455V19.5H41.3182C41.9432 19.5 42.4451 19.392 42.8239 19.1761C43.2027 18.9602 43.4773 18.6686 43.6477 18.3011C43.822 17.9299 43.9091 17.5114 43.9091 17.0455C43.9091 16.5795 43.822 16.1629 43.6477 15.7955C43.4773 15.428 43.2008 15.1402 42.8182 14.9318C42.4356 14.7197 41.928 14.6136 41.2955 14.6136H38.8182V25H37.4091ZM47.3835 25V16.2727H48.679V17.5909H48.7699C48.929 17.1591 49.2169 16.8087 49.6335 16.5398C50.0502 16.2708 50.5199 16.1364 51.0426 16.1364C51.1411 16.1364 51.2642 16.1383 51.4119 16.142C51.5597 16.1458 51.6714 16.1515 51.7472 16.1591V17.5227C51.7017 17.5114 51.5975 17.4943 51.4347 17.4716C51.2756 17.4451 51.107 17.4318 50.929 17.4318C50.5047 17.4318 50.1259 17.5208 49.7926 17.6989C49.4631 17.8731 49.2017 18.1155 49.0085 18.4261C48.8191 18.733 48.7244 19.0833 48.7244 19.4773V25H47.3835ZM56.7301 25.1818C55.8892 25.1818 55.1638 24.9962 54.554 24.625C53.9479 24.25 53.4801 23.7273 53.1506 23.0568C52.8248 22.3826 52.6619 21.5985 52.6619 20.7045C52.6619 19.8106 52.8248 19.0227 53.1506 18.3409C53.4801 17.6553 53.9384 17.1212 54.5256 16.7386C55.1165 16.3523 55.8059 16.1591 56.5938 16.1591C57.0483 16.1591 57.4972 16.2348 57.9403 16.3864C58.3835 16.5379 58.7869 16.7841 59.1506 17.125C59.5142 17.4621 59.804 17.9091 60.0199 18.4659C60.2358 19.0227 60.3438 19.7083 60.3438 20.5227V21.0909H53.6165V19.9318H58.9801C58.9801 19.4394 58.8816 19 58.6847 18.6136C58.4915 18.2273 58.215 17.9223 57.8551 17.6989C57.4991 17.4754 57.0786 17.3636 56.5938 17.3636C56.0597 17.3636 55.5975 17.4962 55.2074 17.7614C54.821 18.0227 54.5237 18.3636 54.3153 18.7841C54.107 19.2045 54.0028 19.6553 54.0028 20.1364V20.9091C54.0028 21.5682 54.1165 22.1269 54.3438 22.5852C54.5748 23.0398 54.8949 23.3864 55.304 23.625C55.7131 23.8598 56.1884 23.9773 56.7301 23.9773C57.0824 23.9773 57.4006 23.928 57.6847 23.8295C57.9725 23.7273 58.2206 23.5758 58.429 23.375C58.6373 23.1705 58.7983 22.9167 58.9119 22.6136L60.2074 22.9773C60.071 23.4167 59.8419 23.803 59.5199 24.1364C59.1979 24.4659 58.8002 24.7235 58.3267 24.9091C57.8532 25.0909 57.321 25.1818 56.7301 25.1818ZM69.2543 16.2727L66.027 25H64.6634L61.4361 16.2727H62.8906L65.2997 23.2273H65.3906L67.7997 16.2727H69.2543ZM71.0241 25V16.2727H72.3651V25H71.0241ZM71.706 14.8182C71.4446 14.8182 71.2192 14.7292 71.0298 14.5511C70.8442 14.3731 70.7514 14.1591 70.7514 13.9091C70.7514 13.6591 70.8442 13.4451 71.0298 13.267C71.2192 13.089 71.4446 13 71.706 13C71.9673 13 72.1908 13.089 72.3764 13.267C72.5658 13.4451 72.6605 13.6591 72.6605 13.9091C72.6605 14.1591 72.5658 14.3731 72.3764 14.5511C72.1908 14.7292 71.9673 14.8182 71.706 14.8182ZM78.3665 25.1818C77.5786 25.1818 76.8873 24.9943 76.2926 24.6193C75.7017 24.2443 75.2396 23.7197 74.9062 23.0455C74.5767 22.3712 74.4119 21.5833 74.4119 20.6818C74.4119 19.7727 74.5767 18.9792 74.9062 18.3011C75.2396 17.6231 75.7017 17.0966 76.2926 16.7216C76.8873 16.3466 77.5786 16.1591 78.3665 16.1591C79.1544 16.1591 79.8438 16.3466 80.4347 16.7216C81.0294 17.0966 81.4915 17.6231 81.821 18.3011C82.1544 18.9792 82.321 19.7727 82.321 20.6818C82.321 21.5833 82.1544 22.3712 81.821 23.0455C81.4915 23.7197 81.0294 24.2443 80.4347 24.6193C79.8438 24.9943 79.1544 25.1818 78.3665 25.1818ZM78.3665 23.9773C78.965 23.9773 79.4574 23.8239 79.8438 23.517C80.2301 23.2102 80.5161 22.8068 80.7017 22.3068C80.8873 21.8068 80.9801 21.2652 80.9801 20.6818C80.9801 20.0985 80.8873 19.5549 80.7017 19.0511C80.5161 18.5473 80.2301 18.1402 79.8438 17.8295C79.4574 17.5189 78.965 17.3636 78.3665 17.3636C77.768 17.3636 77.2756 17.5189 76.8892 17.8295C76.5028 18.1402 76.2169 18.5473 76.0312 19.0511C75.8456 19.5549 75.7528 20.0985 75.7528 20.6818C75.7528 21.2652 75.8456 21.8068 76.0312 22.3068C76.2169 22.8068 76.5028 23.2102 76.8892 23.517C77.2756 23.8239 77.768 23.9773 78.3665 23.9773ZM89.8679 21.4318V16.2727H91.2088V25H89.8679V23.5227H89.777C89.5724 23.9659 89.2543 24.3428 88.8224 24.6534C88.3906 24.9602 87.8452 25.1136 87.1861 25.1136C86.6406 25.1136 86.1558 24.9943 85.7315 24.7557C85.3073 24.5133 84.974 24.1496 84.7315 23.6648C84.4891 23.1761 84.3679 22.5606 84.3679 21.8182V16.2727H85.7088V21.7273C85.7088 22.3636 85.8868 22.8712 86.2429 23.25C86.6027 23.6288 87.0611 23.8182 87.6179 23.8182C87.9512 23.8182 88.2902 23.733 88.6349 23.5625C88.9834 23.392 89.2751 23.1307 89.5099 22.7784C89.7486 22.4261 89.8679 21.9773 89.8679 21.4318ZM99.8466 18.2273L98.642 18.5682C98.5663 18.3674 98.4545 18.1723 98.3068 17.983C98.1629 17.7898 97.9659 17.6307 97.7159 17.5057C97.4659 17.3807 97.1458 17.3182 96.7557 17.3182C96.2216 17.3182 95.7765 17.4413 95.4205 17.6875C95.0682 17.9299 94.892 18.2386 94.892 18.6136C94.892 18.947 95.0133 19.2102 95.2557 19.4034C95.4981 19.5966 95.8769 19.7576 96.392 19.8864L97.6875 20.2045C98.4678 20.3939 99.0492 20.6837 99.4318 21.0739C99.8144 21.4602 100.006 21.9583 100.006 22.5682C100.006 23.0682 99.8617 23.5152 99.5739 23.9091C99.2898 24.303 98.892 24.6136 98.3807 24.8409C97.8693 25.0682 97.2746 25.1818 96.5966 25.1818C95.7064 25.1818 94.9697 24.9886 94.3864 24.6023C93.803 24.2159 93.4337 23.6515 93.2784 22.9091L94.5511 22.5909C94.6723 23.0606 94.9015 23.4129 95.2386 23.6477C95.5795 23.8826 96.0246 24 96.5739 24C97.1989 24 97.6951 23.8674 98.0625 23.6023C98.4337 23.3333 98.6193 23.0114 98.6193 22.6364C98.6193 22.3333 98.5133 22.0795 98.3011 21.875C98.089 21.6667 97.7633 21.5114 97.3239 21.4091L95.8693 21.0682C95.0701 20.8788 94.483 20.5852 94.108 20.1875C93.7367 19.786 93.5511 19.2841 93.5511 18.6818C93.5511 18.1894 93.6894 17.7538 93.9659 17.375C94.2462 16.9962 94.6269 16.6989 95.108 16.483C95.5928 16.267 96.142 16.1591 96.7557 16.1591C97.6193 16.1591 98.2973 16.3485 98.7898 16.7273C99.286 17.1061 99.6383 17.6061 99.8466 18.2273Z" fill="#6C757D"/>
</g>
<path d="M121 11C121 6.58172 124.582 3 129 3H145C149.418 3 153 6.58172 153 11V27C153 31.4183 149.418 35 145 35H129C124.582 35 121 31.4183 121 27V11Z" fill="#006580"/>
<path d="M138.295 13.3636V25H136.886V14.8409H136.818L133.977 16.7273V15.2955L136.886 13.3636H138.295Z" fill="#F5F5F5"/>
<path d="M174.205 25V23.9773L178.045 19.7727C178.496 19.2803 178.867 18.8523 179.159 18.4886C179.451 18.1212 179.667 17.7765 179.807 17.4545C179.951 17.1288 180.023 16.7879 180.023 16.4318C180.023 16.0227 179.924 15.6686 179.727 15.3693C179.534 15.0701 179.269 14.839 178.932 14.6761C178.595 14.5133 178.216 14.4318 177.795 14.4318C177.348 14.4318 176.958 14.5246 176.625 14.7102C176.295 14.892 176.04 15.1477 175.858 15.4773C175.68 15.8068 175.591 16.1932 175.591 16.6364H174.25C174.25 15.9545 174.407 15.3561 174.722 14.8409C175.036 14.3258 175.464 13.9242 176.006 13.6364C176.551 13.3485 177.163 13.2045 177.841 13.2045C178.523 13.2045 179.127 13.3485 179.653 13.6364C180.18 13.9242 180.593 14.3125 180.892 14.8011C181.191 15.2898 181.341 15.8333 181.341 16.4318C181.341 16.8598 181.263 17.2784 181.108 17.6875C180.956 18.0928 180.691 18.5455 180.312 19.0455C179.938 19.5417 179.417 20.1477 178.75 20.8636L176.136 23.6591V23.75H181.545V25H174.205Z" fill="#343A40"/>
<path d="M220.136 25.1591C219.386 25.1591 218.718 25.0303 218.131 24.7727C217.547 24.5152 217.083 24.1572 216.739 23.6989C216.398 23.2367 216.212 22.7008 216.182 22.0909H217.614C217.644 22.4659 217.773 22.7898 218 23.0625C218.227 23.3314 218.525 23.5398 218.892 23.6875C219.259 23.8352 219.667 23.9091 220.114 23.9091C220.614 23.9091 221.057 23.822 221.443 23.6477C221.83 23.4735 222.133 23.2311 222.352 22.9205C222.572 22.6098 222.682 22.25 222.682 21.8409C222.682 21.4129 222.576 21.036 222.364 20.7102C222.152 20.3807 221.841 20.1231 221.432 19.9375C221.023 19.7519 220.523 19.6591 219.932 19.6591H219V18.4091H219.932C220.394 18.4091 220.799 18.3258 221.148 18.1591C221.5 17.9924 221.775 17.7576 221.972 17.4545C222.172 17.1515 222.273 16.7955 222.273 16.3864C222.273 15.9924 222.186 15.6496 222.011 15.358C221.837 15.0663 221.591 14.839 221.273 14.6761C220.958 14.5133 220.587 14.4318 220.159 14.4318C219.758 14.4318 219.379 14.5057 219.023 14.6534C218.67 14.7973 218.383 15.0076 218.159 15.2841C217.936 15.5568 217.814 15.8864 217.795 16.2727H216.432C216.455 15.6629 216.638 15.1288 216.983 14.6705C217.328 14.2083 217.778 13.8485 218.335 13.5909C218.896 13.3333 219.511 13.2045 220.182 13.2045C220.902 13.2045 221.519 13.3504 222.034 13.642C222.549 13.9299 222.945 14.3106 223.222 14.7841C223.498 15.2576 223.636 15.7689 223.636 16.3182C223.636 16.9735 223.464 17.5322 223.119 17.9943C222.778 18.4564 222.314 18.7765 221.727 18.9545V19.0455C222.462 19.1667 223.036 19.4792 223.449 19.983C223.862 20.483 224.068 21.1023 224.068 21.8409C224.068 22.4735 223.896 23.0417 223.551 23.5455C223.21 24.0455 222.744 24.4394 222.153 24.7273C221.563 25.0152 220.89 25.1591 220.136 25.1591Z" fill="#343A40"/>
<path d="M264.381 25.1477C264.006 25.1477 263.684 25.0152 263.415 24.75C263.15 24.4811 263.017 24.1591 263.017 23.7841C263.017 23.4129 263.15 23.0947 263.415 22.8295C263.684 22.5644 264.006 22.4318 264.381 22.4318C264.744 22.4318 265.063 22.5644 265.335 22.8295C265.608 23.0947 265.744 23.4129 265.744 23.7841C265.744 24.0341 265.68 24.2633 265.551 24.4716C265.426 24.6761 265.261 24.8409 265.057 24.9659C264.852 25.0871 264.627 25.1477 264.381 25.1477ZM269.146 25.1477C268.771 25.1477 268.449 25.0152 268.18 24.75C267.915 24.4811 267.783 24.1591 267.783 23.7841C267.783 23.4129 267.915 23.0947 268.18 22.8295C268.449 22.5644 268.771 22.4318 269.146 22.4318C269.51 22.4318 269.828 22.5644 270.101 22.8295C270.374 23.0947 270.51 23.4129 270.51 23.7841C270.51 24.0341 270.446 24.2633 270.317 24.4716C270.192 24.6761 270.027 24.8409 269.822 24.9659C269.618 25.0871 269.393 25.1477 269.146 25.1477ZM273.912 25.1477C273.537 25.1477 273.215 25.0152 272.946 24.75C272.681 24.4811 272.548 24.1591 272.548 23.7841C272.548 23.4129 272.681 23.0947 272.946 22.8295C273.215 22.5644 273.537 22.4318 273.912 22.4318C274.276 22.4318 274.594 22.5644 274.866 22.8295C275.139 23.0947 275.276 23.4129 275.276 23.7841C275.276 24.0341 275.211 24.2633 275.082 24.4716C274.957 24.6761 274.793 24.8409 274.588 24.9659C274.384 25.0871 274.158 25.1477 273.912 25.1477Z" fill="#070808"/>
<path d="M317.841 25.1591C317.174 25.1591 316.574 25.0265 316.04 24.7614C315.506 24.4962 315.078 24.1326 314.756 23.6705C314.434 23.2083 314.258 22.6818 314.227 22.0909H315.591C315.644 22.6174 315.883 23.053 316.307 23.3977C316.735 23.7386 317.246 23.9091 317.841 23.9091C318.318 23.9091 318.742 23.7973 319.114 23.5739C319.489 23.3504 319.782 23.0436 319.994 22.6534C320.21 22.2595 320.318 21.8144 320.318 21.3182C320.318 20.8106 320.206 20.358 319.983 19.9602C319.763 19.5587 319.46 19.2424 319.074 19.0114C318.688 18.7803 318.246 18.6629 317.75 18.6591C317.394 18.6553 317.028 18.7102 316.653 18.8239C316.278 18.9337 315.97 19.0758 315.727 19.25L314.409 19.0909L315.114 13.3636H321.159V14.6136H316.295L315.886 18.0455H315.955C316.193 17.8561 316.492 17.6989 316.852 17.5739C317.212 17.4489 317.587 17.3864 317.977 17.3864C318.689 17.3864 319.324 17.5568 319.881 17.8977C320.441 18.2348 320.881 18.697 321.199 19.2841C321.521 19.8712 321.682 20.5417 321.682 21.2955C321.682 22.0379 321.515 22.7008 321.182 23.2841C320.852 23.8636 320.398 24.322 319.818 24.6591C319.239 24.9924 318.58 25.1591 317.841 25.1591ZM323.939 25V23.9773L327.78 19.7727C328.231 19.2803 328.602 18.8523 328.893 18.4886C329.185 18.1212 329.401 17.7765 329.541 17.4545C329.685 17.1288 329.757 16.7879 329.757 16.4318C329.757 16.0227 329.659 15.6686 329.462 15.3693C329.268 15.0701 329.003 14.839 328.666 14.6761C328.329 14.5133 327.95 14.4318 327.53 14.4318C327.083 14.4318 326.693 14.5246 326.359 14.7102C326.03 14.892 325.774 15.1477 325.592 15.4773C325.414 15.8068 325.325 16.1932 325.325 16.6364H323.984C323.984 15.9545 324.142 15.3561 324.456 14.8409C324.77 14.3258 325.198 13.9242 325.74 13.6364C326.286 13.3485 326.897 13.2045 327.575 13.2045C328.257 13.2045 328.861 13.3485 329.388 13.6364C329.914 13.9242 330.327 14.3125 330.626 14.8011C330.926 15.2898 331.075 15.8333 331.075 16.4318C331.075 16.8598 330.998 17.2784 330.842 17.6875C330.691 18.0928 330.426 18.5455 330.047 19.0455C329.672 19.5417 329.151 20.1477 328.484 20.8636L325.871 23.6591V23.75H331.28V25H323.939Z" fill="#343A40"/>
<path d="M369.841 25.1591C369.174 25.1591 368.574 25.0265 368.04 24.7614C367.506 24.4962 367.078 24.1326 366.756 23.6705C366.434 23.2083 366.258 22.6818 366.227 22.0909H367.591C367.644 22.6174 367.883 23.053 368.307 23.3977C368.735 23.7386 369.246 23.9091 369.841 23.9091C370.318 23.9091 370.742 23.7973 371.114 23.5739C371.489 23.3504 371.782 23.0436 371.994 22.6534C372.21 22.2595 372.318 21.8144 372.318 21.3182C372.318 20.8106 372.206 20.358 371.983 19.9602C371.763 19.5587 371.46 19.2424 371.074 19.0114C370.688 18.7803 370.246 18.6629 369.75 18.6591C369.394 18.6553 369.028 18.7102 368.653 18.8239C368.278 18.9337 367.97 19.0758 367.727 19.25L366.409 19.0909L367.114 13.3636H373.159V14.6136H368.295L367.886 18.0455H367.955C368.193 17.8561 368.492 17.6989 368.852 17.5739C369.212 17.4489 369.587 17.3864 369.977 17.3864C370.689 17.3864 371.324 17.5568 371.881 17.8977C372.441 18.2348 372.881 18.697 373.199 19.2841C373.521 19.8712 373.682 20.5417 373.682 21.2955C373.682 22.0379 373.515 22.7008 373.182 23.2841C372.852 23.8636 372.398 24.322 371.818 24.6591C371.239 24.9924 370.58 25.1591 369.841 25.1591ZM379.871 25.1591C379.121 25.1591 378.452 25.0303 377.865 24.7727C377.282 24.5152 376.818 24.1572 376.473 23.6989C376.132 23.2367 375.946 22.7008 375.916 22.0909H377.348C377.378 22.4659 377.507 22.7898 377.734 23.0625C377.962 23.3314 378.259 23.5398 378.626 23.6875C378.994 23.8352 379.401 23.9091 379.848 23.9091C380.348 23.9091 380.791 23.822 381.178 23.6477C381.564 23.4735 381.867 23.2311 382.087 22.9205C382.306 22.6098 382.416 22.25 382.416 21.8409C382.416 21.4129 382.31 21.036 382.098 20.7102C381.886 20.3807 381.575 20.1231 381.166 19.9375C380.757 19.7519 380.257 19.6591 379.666 19.6591H378.734V18.4091H379.666C380.128 18.4091 380.534 18.3258 380.882 18.1591C381.234 17.9924 381.509 17.7576 381.706 17.4545C381.907 17.1515 382.007 16.7955 382.007 16.3864C382.007 15.9924 381.92 15.6496 381.746 15.358C381.571 15.0663 381.325 14.839 381.007 14.6761C380.693 14.5133 380.321 14.4318 379.893 14.4318C379.492 14.4318 379.113 14.5057 378.757 14.6534C378.405 14.7973 378.117 15.0076 377.893 15.2841C377.67 15.5568 377.549 15.8864 377.53 16.2727H376.166C376.189 15.6629 376.373 15.1288 376.717 14.6705C377.062 14.2083 377.513 13.8485 378.07 13.5909C378.63 13.3333 379.246 13.2045 379.916 13.2045C380.636 13.2045 381.253 13.3504 381.768 13.642C382.284 13.9299 382.679 14.3106 382.956 14.7841C383.232 15.2576 383.371 15.7689 383.371 16.3182C383.371 16.9735 383.198 17.5322 382.854 17.9943C382.513 18.4564 382.049 18.7765 381.462 18.9545V19.0455C382.196 19.1667 382.77 19.4792 383.183 19.983C383.596 20.483 383.803 21.1023 383.803 21.8409C383.803 22.4735 383.63 23.0417 383.286 23.5455C382.945 24.0455 382.479 24.4394 381.888 24.7273C381.297 25.0152 380.625 25.1591 379.871 25.1591Z" fill="#343A40"/>
<path d="M427.636 13.3636V25H426.273L419.932 15.8636H419.818V25H418.409V13.3636H419.773L426.136 22.5227H426.25V13.3636H427.636ZM433.933 25.1818C433.092 25.1818 432.367 24.9962 431.757 24.625C431.151 24.25 430.683 23.7273 430.354 23.0568C430.028 22.3826 429.865 21.5985 429.865 20.7045C429.865 19.8106 430.028 19.0227 430.354 18.3409C430.683 17.6553 431.142 17.1212 431.729 16.7386C432.32 16.3523 433.009 16.1591 433.797 16.1591C434.251 16.1591 434.7 16.2348 435.143 16.3864C435.587 16.5379 435.99 16.7841 436.354 17.125C436.717 17.4621 437.007 17.9091 437.223 18.4659C437.439 19.0227 437.547 19.7083 437.547 20.5227V21.0909H430.82V19.9318H436.183C436.183 19.4394 436.085 19 435.888 18.6136C435.695 18.2273 435.418 17.9223 435.058 17.6989C434.702 17.4754 434.282 17.3636 433.797 17.3636C433.263 17.3636 432.801 17.4962 432.411 17.7614C432.024 18.0227 431.727 18.3636 431.518 18.7841C431.31 19.2045 431.206 19.6553 431.206 20.1364V20.9091C431.206 21.5682 431.32 22.1269 431.547 22.5852C431.778 23.0398 432.098 23.3864 432.507 23.625C432.916 23.8598 433.392 23.9773 433.933 23.9773C434.286 23.9773 434.604 23.928 434.888 23.8295C435.176 23.7273 435.424 23.5758 435.632 23.375C435.84 23.1705 436.001 22.9167 436.115 22.6136L437.411 22.9773C437.274 23.4167 437.045 23.803 436.723 24.1364C436.401 24.4659 436.003 24.7235 435.53 24.9091C435.056 25.0909 434.524 25.1818 433.933 25.1818ZM440.352 16.2727L442.443 19.8409L444.534 16.2727H446.08L443.261 20.6364L446.08 25H444.534L442.443 21.6136L440.352 25H438.807L441.58 20.6364L438.807 16.2727H440.352ZM451.788 16.2727V17.4091H447.266V16.2727H451.788ZM448.584 14.1818H449.925V22.5C449.925 22.8788 449.98 23.1629 450.089 23.3523C450.203 23.5379 450.347 23.6629 450.521 23.7273C450.699 23.7879 450.887 23.8182 451.084 23.8182C451.232 23.8182 451.353 23.8106 451.447 23.7955C451.542 23.7765 451.618 23.7614 451.675 23.75L451.947 24.9545C451.857 24.9886 451.73 25.0227 451.567 25.0568C451.404 25.0947 451.197 25.1136 450.947 25.1136C450.569 25.1136 450.197 25.0322 449.834 24.8693C449.474 24.7064 449.175 24.4583 448.936 24.125C448.701 23.7917 448.584 23.3712 448.584 22.8636V14.1818Z" fill="#343A40"/>
<path d="M464.333 19H473.666M473.666 19L469 14.3334M473.666 19L469 23.6667" stroke="#343A40" stroke-width="1.6" stroke-linecap="round" stroke-linejoin="round"/>
</svg>
