<svg width="23" height="22" viewBox="0 0 23 22" fill="none" xmlns="http://www.w3.org/2000/svg">
<path d="M4.5 18V21H18.5V18M18.5 9V6L14.5 1H4.5V9" stroke="#00BCD4" stroke-width="2" stroke-linecap="round" stroke-linejoin="round"/>
<path d="M13.5 1V6H18.5" stroke="#00BCD4" stroke-width="2" stroke-linecap="round" stroke-linejoin="round"/>
<path d="M20.5 9H2.5C1.94772 9 1.5 9.44772 1.5 10V17C1.5 17.5523 1.94772 18 2.5 18H20.5C21.0523 18 21.5 17.5523 21.5 17V10C21.5 9.44772 21.0523 9 20.5 9Z" stroke="#00BCD4" stroke-width="2" stroke-linejoin="round"/>
<path d="M10 11.5V15.5M4.5 11.5V15.5" stroke="#00BCD4" stroke-width="2" stroke-linecap="round"/>
<path d="M15.5 15.5V11.5H18M15.5 14H18M4.5 11.5H6.25C6.58152 11.5 6.89946 11.6317 7.13388 11.8661C7.3683 12.1005 7.5 12.4185 7.5 12.75C7.5 13.0815 7.3683 13.3995 7.13388 13.6339C6.89946 13.8683 6.58152 14 6.25 14H4.5M10 11.5H11C11.5304 11.5 12.0391 11.7107 12.4142 12.0858C12.7893 12.4609 13 12.9696 13 13.5C13 14.0304 12.7893 14.5391 12.4142 14.9142C12.0391 15.2893 11.5304 15.5 11 15.5H10" stroke="#00BCD4" stroke-width="2" stroke-linecap="round" stroke-linejoin="round"/>
<path d="M7.5 5H9.5" stroke="#00BCD4" stroke-width="2" stroke-linecap="round"/>
</svg>
