<svg width="24" height="25" viewBox="0 0 24 25" fill="none" xmlns="http://www.w3.org/2000/svg">
<path d="M10.9532 11.2166C10.0303 11.2166 9.12801 10.9429 8.36058 10.4302C7.59315 9.91738 6.99501 9.18855 6.6418 8.33583C6.28859 7.4831 6.19618 6.54479 6.37624 5.63955C6.5563 4.7343 7.00076 3.90278 7.65341 3.25014C8.30605 2.59749 9.13757 2.15304 10.0428 1.97297C10.9481 1.79291 11.8864 1.88532 12.7391 2.23853C13.5918 2.59174 14.3207 3.18988 14.8334 3.95731C15.3462 4.72474 15.6199 5.62699 15.6199 6.54997C15.6199 7.78765 15.1282 8.97463 14.2531 9.8498C13.3779 10.725 12.1909 11.2166 10.9532 11.2166ZM10.9532 3.26997C10.294 3.26997 9.6495 3.46547 9.10134 3.83174C8.55317 4.19801 8.12593 4.7186 7.87364 5.32769C7.62135 5.93678 7.55534 6.607 7.68395 7.2536C7.81257 7.90021 8.13004 8.49415 8.59622 8.96033C9.06239 9.4265 9.65633 9.74397 10.3029 9.87259C10.9495 10.0012 11.6198 9.93519 12.2288 9.6829C12.8379 9.43061 13.3585 9.00337 13.7248 8.4552C14.0911 7.90704 14.2866 7.26257 14.2866 6.6033C14.2866 6.16556 14.2004 5.73211 14.0328 5.32769C13.8653 4.92327 13.6198 4.55581 13.3103 4.24628C13.0007 3.93675 12.6333 3.69122 12.2288 3.5237C11.8244 3.35619 11.391 3.26997 10.9532 3.26997ZM14.6666 12.0233C11.0589 11.211 7.28446 11.602 3.91991 13.1366C3.45717 13.3577 3.06675 13.7056 2.7941 14.14C2.52146 14.5743 2.37782 15.0772 2.37991 15.59V19.5566C2.37991 19.6442 2.39715 19.7309 2.43065 19.8118C2.46416 19.8926 2.51326 19.9661 2.57517 20.028C2.63707 20.0899 2.71057 20.1391 2.79145 20.1726C2.87233 20.2061 2.95902 20.2233 3.04657 20.2233C3.13412 20.2233 3.22081 20.2061 3.30169 20.1726C3.38258 20.1391 3.45607 20.0899 3.51798 20.028C3.57988 19.9661 3.62899 19.8926 3.66249 19.8118C3.69599 19.7309 3.71324 19.6442 3.71324 19.5566V15.59C3.70743 15.3304 3.77752 15.0749 3.91489 14.8546C4.05226 14.6343 4.25095 14.4589 4.48657 14.35C6.51335 13.4139 8.72076 12.9337 10.9532 12.9433C12.2041 12.9418 13.4507 13.0895 14.6666 13.3833V12.0233ZM14.7599 18.3633H18.8532V19.2966H14.7599V18.3633Z" fill="white"/>
<path d="M22.1137 14.403H18.667V15.7363H21.447V21.3163H12.0003V15.7363H16.2003V16.0163C16.2003 16.1932 16.2706 16.3627 16.3956 16.4878C16.5206 16.6128 16.6902 16.683 16.867 16.683C17.0438 16.683 17.2134 16.6128 17.3384 16.4878C17.4634 16.3627 17.5337 16.1932 17.5337 16.0163V13.423C17.5337 13.2462 17.4634 13.0766 17.3384 12.9516C17.2134 12.8266 17.0438 12.7563 16.867 12.7563C16.6902 12.7563 16.5206 12.8266 16.3956 12.9516C16.2706 13.0766 16.2003 13.2462 16.2003 13.423V14.403H11.3337C11.1568 14.403 10.9873 14.4733 10.8623 14.5983C10.7372 14.7233 10.667 14.8929 10.667 15.0697V21.983C10.667 22.1598 10.7372 22.3294 10.8623 22.4544C10.9873 22.5794 11.1568 22.6497 11.3337 22.6497H22.1137C22.2905 22.6497 22.46 22.5794 22.5851 22.4544C22.7101 22.3294 22.7803 22.1598 22.7803 21.983V15.0697C22.7803 14.8929 22.7101 14.7233 22.5851 14.5983C22.46 14.4733 22.2905 14.403 22.1137 14.403Z" fill="white"/>
</svg>
