<svg width="24" height="25" viewBox="0 0 24 25" fill="none" xmlns="http://www.w3.org/2000/svg">
<g clip-path="url(#clip0_119_277)">
<path fill-rule="evenodd" clip-rule="evenodd" d="M20.25 5.34H16.5V4.59C16.5 3.34736 15.4926 2.34 14.25 2.34H9.75C8.50736 2.34 7.5 3.34736 7.5 4.59V5.34H3.75C2.92157 5.34 2.25 6.01157 2.25 6.84V18.84C2.25 19.6684 2.92157 20.34 3.75 20.34H20.25C21.0784 20.34 21.75 19.6684 21.75 18.84V6.84C21.75 6.01157 21.0784 5.34 20.25 5.34ZM9 4.59C9 4.17578 9.33579 3.84 9.75 3.84H14.25C14.6642 3.84 15 4.17578 15 4.59V5.34H9V4.59ZM20.25 6.84V10.7409C17.7185 12.1188 14.8822 12.8405 12 12.84C9.11794 12.8405 6.28165 12.1192 3.75 10.7419V6.84H20.25ZM20.25 18.84H3.75V12.4312C6.31868 13.6877 9.1405 14.3405 12 14.34C14.8596 14.3401 17.6813 13.6869 20.25 12.4303V18.84ZM9.75 10.59C9.75 10.1758 10.0858 9.84 10.5 9.84H13.5C13.9142 9.84 14.25 10.1758 14.25 10.59C14.25 11.0042 13.9142 11.34 13.5 11.34H10.5C10.0858 11.34 9.75 11.0042 9.75 10.59Z" fill="#F8F9FA"/>
</g>
<defs>
<clipPath id="clip0_119_277">
<rect width="24" height="24" fill="white" transform="translate(0 0.0899963)"/>
</clipPath>
</defs>
</svg>
