<svg width="28" height="30" viewBox="0 0 28 30" fill="none" xmlns="http://www.w3.org/2000/svg">
<path d="M4.00033 30C3.06033 30 2.26977 29.6794 1.62866 29.0383C0.987548 28.3972 0.666992 27.6067 0.666992 26.6667V24.7433C0.666992 24.0033 0.930881 23.37 1.45866 22.8433C1.98644 22.3167 2.61977 22.0528 3.35866 22.0517H5.66699V2.69333C5.66699 1.95222 5.93088 1.31833 6.45866 0.791667C6.98644 0.265 7.61977 0.00111111 8.35866 0H24.642C25.382 0 26.0153 0.263889 26.542 0.791667C27.0687 1.31944 27.3325 1.95278 27.3337 2.69167V26.6667C27.3337 27.6067 27.0131 28.3972 26.372 29.0383C25.7309 29.6794 24.9403 30 24.0003 30H4.00033ZM24.0003 28.3333C24.4725 28.3333 24.8687 28.1733 25.1887 27.8533C25.5087 27.5333 25.6681 27.1378 25.667 26.6667V2.69333C25.667 2.39333 25.5709 2.14722 25.3787 1.955C25.1864 1.76278 24.9409 1.66667 24.642 1.66667H8.35866C8.05977 1.66667 7.81421 1.76278 7.62199 1.955C7.42977 2.14722 7.33366 2.39333 7.33366 2.69333V22.05H19.642C20.382 22.05 21.0153 22.3133 21.542 22.84C22.0687 23.3667 22.3325 24.0011 22.3337 24.7433V26.6667C22.3337 27.1389 22.4937 27.535 22.8137 27.855C23.1337 28.175 23.5292 28.3344 24.0003 28.3333ZM10.4753 8.975C10.2387 8.975 10.0403 8.895 9.88033 8.735C9.72144 8.575 9.64199 8.37667 9.64199 8.14C9.64199 7.90333 9.72144 7.70555 9.88033 7.54667C10.0392 7.38778 10.2375 7.30833 10.4753 7.30833H22.5253C22.762 7.30833 22.9603 7.38833 23.1203 7.54833C23.2803 7.70833 23.3598 7.90611 23.3587 8.14167C23.3575 8.37722 23.2781 8.575 23.1203 8.735C22.9625 8.895 22.7642 8.975 22.5253 8.975H10.4753ZM10.4753 13.59C10.2387 13.59 10.0403 13.51 9.88033 13.35C9.72144 13.19 9.64199 12.9917 9.64199 12.755C9.64199 12.5183 9.72144 12.3206 9.88033 12.1617C10.0392 12.0028 10.2375 11.9233 10.4753 11.9233H22.5253C22.762 11.9233 22.9603 12.0033 23.1203 12.1633C23.2803 12.3233 23.3598 12.5217 23.3587 12.7583C23.3575 12.995 23.2781 13.1928 23.1203 13.3517C22.9625 13.5106 22.7642 13.59 22.5253 13.59H10.4753ZM4.00033 28.3333H20.667V24.7433C20.667 24.4444 20.5709 24.1989 20.3787 24.0067C20.1864 23.8144 19.9409 23.7183 19.642 23.7183H3.35866C3.05977 23.7183 2.81421 23.8144 2.62199 24.0067C2.42977 24.1989 2.33366 24.4444 2.33366 24.7433V26.6667C2.33366 27.1389 2.49366 27.535 2.81366 27.855C3.13366 28.175 3.52921 28.3344 4.00033 28.3333ZM4.00033 28.3333H2.33366H20.667H4.00033Z" fill="#006580"/>
</svg>
