<svg width="41" height="40" viewBox="0 0 41 40" fill="none" xmlns="http://www.w3.org/2000/svg">
<path d="M28.8337 16.6667H33.8337M33.8337 16.6667H38.8337M33.8337 16.6667V11.6667M33.8337 16.6667V21.6667M2.16699 33.3333V31.6667C2.16699 28.5725 3.39616 25.605 5.58408 23.4171C7.772 21.2292 10.7395 20 13.8337 20M13.8337 20C16.9278 20 19.8953 21.2292 22.0832 23.4171C24.2712 25.605 25.5003 28.5725 25.5003 31.6667V33.3333M13.8337 20C15.6018 20 17.2975 19.2976 18.5477 18.0474C19.7979 16.7971 20.5003 15.1014 20.5003 13.3333C20.5003 11.5652 19.7979 9.86954 18.5477 8.61929C17.2975 7.36905 15.6018 6.66667 13.8337 6.66667C12.0655 6.66667 10.3699 7.36905 9.11961 8.61929C7.86937 9.86954 7.16699 11.5652 7.16699 13.3333C7.16699 15.1014 7.86937 16.7971 9.11961 18.0474C10.3699 19.2976 12.0655 20 13.8337 20Z" stroke="#006580" stroke-width="2" stroke-linecap="round" stroke-linejoin="round"/>
</svg>
