<svg width="28" height="37" viewBox="0 0 28 37" fill="none" xmlns="http://www.w3.org/2000/svg">
<path d="M8.49967 5.66667H2.66634C2.44533 5.66667 2.23337 5.75447 2.07709 5.91075C1.92081 6.06703 1.83301 6.27899 1.83301 6.50001V34.8333C1.83301 35.0544 1.92081 35.2663 2.07709 35.4226C2.23337 35.5789 2.44533 35.6667 2.66634 35.6667H25.9997C26.2207 35.6667 26.4326 35.5789 26.5889 35.4226C26.7452 35.2663 26.833 35.0544 26.833 34.8333V6.50001C26.833 6.27899 26.7452 6.06703 26.5889 5.91075C26.4326 5.75447 26.2207 5.66667 25.9997 5.66667H20.1663" stroke="#006580" stroke-width="2"/>
<path d="M8.5 9.83333V5.66667H11.7917C11.8027 5.66667 11.8133 5.66228 11.8211 5.65446C11.8289 5.64665 11.8333 5.63605 11.8333 5.625V4C11.8333 3.6717 11.898 3.34661 12.0236 3.04329C12.1493 2.73998 12.3334 2.46438 12.5656 2.23223C12.7977 2.00009 13.0733 1.81594 13.3766 1.6903C13.6799 1.56466 14.005 1.5 14.3333 1.5C14.6616 1.5 14.9867 1.56466 15.29 1.6903C15.5934 1.81594 15.869 2.00009 16.1011 2.23223C16.3332 2.46438 16.5174 2.73998 16.643 3.04329C16.7687 3.34661 16.8333 3.6717 16.8333 4V5.625C16.8333 5.64833 16.8517 5.66667 16.875 5.66667H20.1667V9.83333C20.1667 10.0543 20.0789 10.2663 19.9226 10.4226C19.7663 10.5789 19.5543 10.6667 19.3333 10.6667H9.33333C9.11232 10.6667 8.90036 10.5789 8.74408 10.4226C8.5878 10.2663 8.5 10.0543 8.5 9.83333Z" stroke="#006580" stroke-width="2"/>
</svg>
