<svg width="41" height="40" viewBox="0 0 41 40" fill="none" xmlns="http://www.w3.org/2000/svg">
<path d="M36.2212 13.4214C36.8086 13.7478 37.3438 14.1459 37.8267 14.6158C38.3097 15.0857 38.7143 15.6078 39.0406 16.1821C39.3669 16.7564 39.628 17.3634 39.8238 18.0029C40.0196 18.6425 40.111 19.3082 40.0979 20H37.5918C37.5918 19.3213 37.4613 18.6751 37.2002 18.0617C36.9391 17.4482 36.5802 16.9196 36.1234 16.4758C35.6665 16.032 35.1313 15.673 34.5179 15.3989C33.9044 15.1248 33.2583 14.9878 32.5795 14.9878C31.8878 14.9878 31.2416 15.1183 30.6412 15.3793C30.0408 15.6404 29.5122 15.9993 29.0553 16.4562C28.5985 16.913 28.2395 17.4482 27.9785 18.0617C27.7174 18.6751 27.5804 19.3213 27.5673 20C27.5673 21.1878 27.2997 22.3169 26.7646 23.3872C26.2294 24.4575 25.4789 25.3451 24.513 26.0499C25.3614 26.4807 26.125 27.0093 26.8037 27.6358C27.4825 28.2624 28.0698 28.9672 28.5658 29.7504C29.0618 30.5335 29.4338 31.3689 29.6818 32.2565C29.9298 33.1441 30.0604 34.0708 30.0734 35.0367H27.5673C27.5673 34.0055 27.3715 33.0331 26.9799 32.1194C26.5884 31.2057 26.0467 30.4095 25.3549 29.7308C24.6631 29.052 23.8669 28.5169 22.9662 28.1253C22.0656 27.7337 21.0932 27.5314 20.049 27.5184C19.0178 27.5184 18.0454 27.7141 17.1317 28.1057C16.218 28.4973 15.4218 29.039 14.743 29.7308C14.0643 30.4226 13.5291 31.2188 13.1375 32.1194C12.746 33.0201 12.5436 33.9925 12.5306 35.0367H10.0245C10.0245 34.0839 10.155 33.1636 10.4161 32.2761C10.6771 31.3885 11.0491 30.5531 11.5321 29.7699C12.015 28.9868 12.5959 28.2819 13.2746 27.6554C13.9533 27.0289 14.7234 26.4937 15.5849 26.0499C14.6321 25.3451 13.8881 24.4575 13.3529 23.3872C12.8178 22.3169 12.5436 21.1878 12.5306 20C12.5306 19.3213 12.4001 18.6751 12.139 18.0617C11.878 17.4482 11.519 16.9196 11.0622 16.4758C10.6053 16.032 10.0702 15.673 9.45668 15.3989C8.84321 15.1248 8.1971 14.9878 7.51836 14.9878C6.82656 14.9878 6.18045 15.1183 5.58003 15.3793C4.97961 15.6404 4.45097 15.9993 3.99413 16.4562C3.53728 16.913 3.17833 17.4482 2.91728 18.0617C2.65622 18.6751 2.51917 19.3213 2.50612 20H0C0 19.3213 0.0913689 18.6621 0.274107 18.0225C0.456845 17.3829 0.711372 16.776 1.03769 16.2017C1.36401 15.6273 1.77517 15.1052 2.27117 14.6353C2.76717 14.1654 3.30233 13.7608 3.87665 13.4214C3.44591 12.9646 3.11307 12.436 2.87812 11.8355C2.64317 11.2351 2.51917 10.6151 2.50612 9.97552C2.50612 9.29678 2.63665 8.65068 2.8977 8.0372C3.15875 7.42372 3.5177 6.89509 3.97455 6.4513C4.43139 6.0075 4.96003 5.64855 5.56045 5.37445C6.16088 5.10034 6.81351 4.96329 7.51836 4.96329C8.1971 4.96329 8.84321 5.09381 9.45668 5.35487C10.0702 5.61592 10.5988 5.97487 11.0426 6.43172C11.4864 6.88856 11.8453 7.42372 12.1194 8.0372C12.3935 8.65068 12.5306 9.29678 12.5306 9.97552C12.5306 10.6151 12.4131 11.2351 12.1782 11.8355C11.9432 12.436 11.6039 12.9646 11.1601 13.4214C12.2304 14.0088 13.1049 14.8181 13.7837 15.8492C14.4885 14.805 15.3891 13.9827 16.4856 13.3823C17.582 12.7819 18.7698 12.4816 20.049 12.4816C21.3151 12.4816 22.4963 12.7819 23.5928 13.3823C24.6892 13.9827 25.5963 14.805 26.3142 15.8492C26.993 14.8181 27.8675 14.0088 28.9378 13.4214C28.5071 12.9646 28.1743 12.436 27.9393 11.8355C27.7044 11.2351 27.5804 10.6151 27.5673 9.97552C27.5673 9.29678 27.6978 8.65068 27.9589 8.0372C28.2199 7.42372 28.5789 6.89509 29.0357 6.4513C29.4926 6.0075 30.0212 5.64855 30.6216 5.37445C31.2221 5.10034 31.8747 4.96329 32.5795 4.96329C33.2583 4.96329 33.9044 5.09381 34.5179 5.35487C35.1313 5.61592 35.66 5.97487 36.1038 6.43172C36.5476 6.88856 36.9065 7.42372 37.1806 8.0372C37.4547 8.65068 37.5918 9.29678 37.5918 9.97552C37.5918 10.6151 37.4743 11.2351 37.2394 11.8355C37.0044 12.436 36.665 12.9646 36.2212 13.4214ZM5.01224 9.97552C5.01224 10.3279 5.0775 10.6543 5.20803 10.9545C5.33855 11.2547 5.51477 11.5157 5.73666 11.7376C5.95856 11.9595 6.22614 12.1423 6.5394 12.2859C6.85267 12.4294 7.17899 12.4947 7.51836 12.4816C7.87078 12.4816 8.1971 12.4164 8.49731 12.2859C8.79752 12.1553 9.05858 11.9791 9.28047 11.7572C9.50237 11.5353 9.6851 11.2677 9.82868 10.9545C9.97226 10.6412 10.0375 10.3149 10.0245 9.97552C10.0245 9.6231 9.95921 9.29678 9.82868 8.99657C9.69816 8.69636 9.52195 8.43531 9.30005 8.21341C9.07815 7.99151 8.81057 7.80878 8.49731 7.6652C8.18404 7.52162 7.85773 7.45635 7.51836 7.46941C7.16593 7.46941 6.83962 7.53467 6.5394 7.6652C6.23919 7.79572 5.97814 7.97193 5.75624 8.19383C5.53435 8.41573 5.35161 8.68331 5.20803 8.99657C5.06445 9.30984 4.99918 9.63615 5.01224 9.97552ZM20.049 25.0122C20.7277 25.0122 21.3738 24.8817 21.9873 24.6207C22.6008 24.3596 23.1294 24.0007 23.5732 23.5438C24.017 23.087 24.3759 22.5583 24.65 21.9579C24.9241 21.3575 25.0612 20.7048 25.0612 20C25.0612 19.3213 24.9307 18.6751 24.6696 18.0617C24.4086 17.4482 24.0496 16.9196 23.5928 16.4758C23.1359 16.032 22.6008 15.673 21.9873 15.3989C21.3738 15.1248 20.7277 14.9878 20.049 14.9878C19.3572 14.9878 18.711 15.1183 18.1106 15.3793C17.5102 15.6404 16.9816 15.9993 16.5247 16.4562C16.0679 16.913 15.7089 17.4482 15.4479 18.0617C15.1868 18.6751 15.0498 19.3213 15.0367 20C15.0367 20.6918 15.1672 21.3379 15.4283 21.9383C15.6893 22.5387 16.0483 23.0674 16.5051 23.5242C16.962 23.9811 17.4906 24.34 18.091 24.6011C18.6915 24.8621 19.3441 24.9992 20.049 25.0122ZM30.0734 9.97552C30.0734 10.3279 30.1387 10.6543 30.2692 10.9545C30.3997 11.2547 30.576 11.5157 30.7978 11.7376C31.0197 11.9595 31.2873 12.1423 31.6006 12.2859C31.9139 12.4294 32.2402 12.4947 32.5795 12.4816C32.932 12.4816 33.2583 12.4164 33.5585 12.2859C33.8587 12.1553 34.1198 11.9791 34.3417 11.7572C34.5636 11.5353 34.7463 11.2677 34.8899 10.9545C35.0335 10.6412 35.0987 10.3149 35.0857 9.97552C35.0857 9.6231 35.0204 9.29678 34.8899 8.99657C34.7593 8.69636 34.5831 8.43531 34.3612 8.21341C34.1393 7.99151 33.8718 7.80878 33.5585 7.6652C33.2452 7.52162 32.9189 7.45635 32.5795 7.46941C32.2271 7.46941 31.9008 7.53467 31.6006 7.6652C31.3004 7.79572 31.0393 7.97193 30.8174 8.19383C30.5955 8.41573 30.4128 8.68331 30.2692 8.99657C30.1256 9.30984 30.0604 9.63615 30.0734 9.97552Z" fill="#006580"/>
</svg>
