<svg width="24" height="25" viewBox="0 0 24 25" fill="none" xmlns="http://www.w3.org/2000/svg">
<g clip-path="url(#clip0_119_291)">
<path fill-rule="evenodd" clip-rule="evenodd" d="M20.0306 7.80937L14.7806 2.55937C14.6399 2.41875 14.449 2.33984 14.25 2.34H5.25C4.42157 2.34 3.75 3.01157 3.75 3.84V20.34C3.75 21.1684 4.42157 21.84 5.25 21.84H18.75C19.5784 21.84 20.25 21.1684 20.25 20.34V8.34C20.2502 8.14102 20.1712 7.95014 20.0306 7.80937ZM15 4.90031L17.6897 7.59H15V4.90031ZM18.75 20.34H5.25V3.84H13.5V8.34C13.5 8.75421 13.8358 9.09 14.25 9.09H18.75V20.34Z" fill="#F8F9FA"/>
</g>
<defs>
<clipPath id="clip0_119_291">
<rect width="24" height="24" fill="white" transform="translate(0 0.0899963)"/>
</clipPath>
</defs>
</svg>
