<svg width="24" height="25" viewBox="0 0 24 25" fill="none" xmlns="http://www.w3.org/2000/svg">
<path d="M13 9.08984H18.5L13 3.58984V9.08984ZM6 2.08984H14L20 8.08984V20.0898C20 20.6203 19.7893 21.129 19.4142 21.5041C19.0391 21.8791 18.5304 22.0898 18 22.0898H6C5.46957 22.0898 4.96086 21.8791 4.58579 21.5041C4.21071 21.129 4 20.6203 4 20.0898V4.08984C4 2.97984 4.89 2.08984 6 2.08984ZM14 20.0898V19.0898C14 17.7598 11.33 17.0898 10 17.0898C8.67 17.0898 6 17.7598 6 19.0898V20.0898H14ZM10 12.0898C9.46957 12.0898 8.96086 12.3006 8.58579 12.6756C8.21071 13.0507 8 13.5594 8 14.0898C8 14.6203 8.21071 15.129 8.58579 15.5041C8.96086 15.8791 9.46957 16.0898 10 16.0898C10.5304 16.0898 11.0391 15.8791 11.4142 15.5041C11.7893 15.129 12 14.6203 12 14.0898C12 13.5594 11.7893 13.0507 11.4142 12.6756C11.0391 12.3006 10.5304 12.0898 10 12.0898Z" fill="white"/>
</svg>
