<svg width="180" height="119" viewBox="0 0 180 119" fill="none" xmlns="http://www.w3.org/2000/svg">
<g clip-path="url(#clip0_216_2549)">
<path d="M152.32 93.2102C152.25 100.27 158.47 106.11 166.1 106.14C173.73 106.17 179.88 100.59 180 93.3602C180.11 86.2902 173.92 80.4502 166.25 80.4302C158.58 80.4102 152.38 86.0802 152.32 93.2102ZM162.39 89.6002C163.442 88.71 164.776 88.2215 166.155 88.2215C167.533 88.2215 168.867 88.71 169.92 89.6002C170.433 90.0677 170.837 90.6425 171.103 91.2836C171.369 91.9248 171.491 92.6167 171.46 93.3102C171.495 94.0012 171.374 94.6912 171.108 95.3296C170.841 95.9681 170.435 96.5389 169.92 97.0002C168.859 97.8721 167.528 98.3488 166.155 98.3488C164.782 98.3488 163.451 97.8721 162.39 97.0002C161.877 96.5386 161.473 95.9692 161.207 95.3329C160.941 94.6967 160.819 94.0093 160.85 93.3202C160.821 92.627 160.943 91.9357 161.209 91.2948C161.475 90.654 161.878 90.079 162.39 89.6102" fill="white"/>
<path d="M80.7103 77.3703C81.683 78.1725 82.9045 78.6113 84.1653 78.6113C85.4261 78.6113 86.6476 78.1725 87.6203 77.3703C88.0834 76.9442 88.4471 76.4214 88.6856 75.839C88.9241 75.2566 89.0315 74.6288 89.0003 74.0003C89.0269 73.3627 88.9136 72.727 88.6683 72.1379C88.423 71.5488 88.0516 71.0205 87.5803 70.5903C86.6162 69.7696 85.3914 69.3188 84.1253 69.3188C82.8592 69.3188 81.6344 69.7696 80.6703 70.5903C80.2046 71.0229 79.8396 71.5526 79.6011 72.1418C79.3627 72.7311 79.2566 73.3655 79.2903 74.0003C79.2604 74.6339 79.3724 75.2661 79.6181 75.8509C79.8638 76.4356 80.2369 76.9581 80.7103 77.3803" fill="white"/>
<path d="M74.2002 100.64C75.5116 98.6087 76.256 96.2636 76.3562 93.8478C76.4564 91.4319 75.9089 89.0332 74.7702 86.9002C73.9642 85.2023 72.7458 83.7334 71.226 82.6277C69.7063 81.522 67.9337 80.8146 66.0702 80.5702C64.4428 80.2696 62.7686 80.3401 61.1722 80.7764C59.5758 81.2127 58.0985 82.0036 56.8502 83.0902V81.5402C56.8425 81.3925 56.7776 81.2536 56.6694 81.1529C56.5612 81.0521 56.4181 80.9974 56.2702 81.0002H48.8202C48.6724 80.9974 48.5293 81.0521 48.421 81.1529C48.3128 81.2536 48.248 81.3925 48.2402 81.5402V117.12C48.2413 117.23 48.2727 117.338 48.3309 117.431C48.3891 117.525 48.4719 117.601 48.5702 117.65C50.4135 118.288 52.4209 118.267 54.2502 117.59C57.1202 116.7 56.8502 113.27 56.8502 113.27V103.56C64.0002 108.73 71.5602 105.13 74.2002 100.64ZM62.4002 98.4902C59.1202 98.4902 56.8602 96.3902 56.8802 93.3002C56.8346 92.5828 56.9441 91.864 57.2014 91.1929C57.4587 90.5217 57.8576 89.9138 58.3711 89.4108C58.8846 88.9078 59.5004 88.5214 60.1768 88.278C60.8531 88.0345 61.574 87.9398 62.2902 88.0002C62.9879 87.9657 63.6852 88.0752 64.3387 88.3219C64.9922 88.5685 65.588 88.9471 66.0889 89.4339C66.5898 89.9207 66.9851 90.5055 67.2503 91.1517C67.5155 91.7979 67.6448 92.4918 67.6302 93.1902C67.6717 93.8906 67.5653 94.5919 67.318 95.2485C67.0707 95.905 66.6879 96.5022 66.1946 97.0012C65.7013 97.5001 65.1086 97.8897 64.4548 98.1445C63.8011 98.3993 63.1011 98.5137 62.4002 98.4802" fill="white"/>
<path d="M149.071 104.88V81.5403C149.06 81.3935 148.995 81.256 148.887 81.1558C148.779 81.0555 148.638 80.9999 148.491 81.0003H141.041C140.893 80.9999 140.752 81.0555 140.644 81.1558C140.536 81.256 140.471 81.3935 140.461 81.5403V83.0903C139.217 81.9999 137.741 81.2073 136.145 80.7724C134.549 80.3375 132.876 80.2718 131.251 80.5803C129.386 80.8204 127.611 81.5248 126.089 82.629C124.567 83.7333 123.347 85.2019 122.541 86.9003C121.406 89.034 120.859 91.4314 120.958 93.8462C121.056 96.261 121.796 98.606 123.101 100.64C123.995 102.037 125.172 103.23 126.555 104.144C127.939 105.058 129.498 105.672 131.133 105.947C132.769 106.223 134.443 106.152 136.05 105.741C137.656 105.33 139.159 104.587 140.461 103.56V105.19C140.461 108.99 138.131 110.58 134.801 110.58C133.547 110.611 132.327 110.181 131.371 109.37C130.805 108.879 130.377 108.248 130.131 107.54C130.091 107.408 130.006 107.295 129.891 107.219C129.776 107.144 129.637 107.113 129.501 107.13L122.921 109.13C122.784 109.168 122.667 109.256 122.593 109.377C122.518 109.497 122.493 109.641 122.521 109.78V109.88C122.565 110.056 122.618 110.23 122.681 110.4C123.841 113.79 127.361 117.2 133.231 117.8C133.461 117.8 133.691 117.8 133.931 117.86C134.171 117.92 134.701 117.86 135.111 117.86C143.261 117.86 148.941 113.03 149.031 104.8M134.891 98.4103C134.19 98.4438 133.49 98.3294 132.836 98.0746C132.182 97.8198 131.589 97.4302 131.096 96.9313C130.603 96.4323 130.22 95.8352 129.973 95.1786C129.725 94.522 129.619 93.8207 129.661 93.1203C129.656 92.4278 129.792 91.7415 130.062 91.1036C130.331 90.4656 130.728 89.8894 131.228 89.4101C131.728 88.9308 132.32 88.5585 132.969 88.3161C133.617 88.0737 134.309 87.9662 135.001 88.0003C135.716 87.94 136.436 88.0346 137.111 88.2774C137.787 88.5203 138.402 88.9058 138.916 89.4077C139.429 89.9096 139.828 90.5162 140.086 91.1861C140.344 91.8561 140.455 92.5737 140.411 93.2903C140.411 96.3803 138.171 98.5103 134.891 98.4803" fill="white"/>
<path d="M101.91 105.65C102.891 105.907 103.897 106.061 104.91 106.11H105.5C109.59 106.11 113.29 104.84 115.7 101.8C116.151 101.233 116.547 100.624 116.88 99.98V99.9C116.913 99.8308 116.931 99.7556 116.933 99.679C116.936 99.6025 116.923 99.5263 116.895 99.455C116.867 99.3838 116.824 99.3191 116.77 99.2649C116.716 99.2107 116.651 99.1682 116.58 99.14L110.52 97C110.418 96.9645 110.308 96.9579 110.202 96.9808C110.096 97.0038 109.998 97.0554 109.92 97.13V97.18L109.71 97.41C109.528 97.6398 109.328 97.8539 109.11 98.05C108.833 98.3041 108.528 98.5256 108.2 98.71C107.517 99.0773 106.76 99.2849 105.985 99.3174C105.21 99.3498 104.438 99.2061 103.727 98.8971C103.015 98.5881 102.383 98.1219 101.878 97.5335C101.373 96.9452 101.008 96.2499 100.81 95.5H117.39C117.517 95.4908 117.637 95.4395 117.731 95.3544C117.825 95.2692 117.888 95.1551 117.91 95.03V94.96C117.97 94.29 117.99 93.61 117.99 92.96C117.989 92.4856 117.962 92.0116 117.91 91.54C117.682 89.1183 116.735 86.8201 115.19 84.9416C113.645 83.0631 111.572 81.6903 109.24 81C107.98 80.6117 106.668 80.4162 105.35 80.42C103.645 80.3936 101.951 80.7045 100.367 81.3348C98.782 81.9651 97.3376 82.9024 96.1165 84.0929C94.8954 85.2833 93.9216 86.7034 93.2512 88.2715C92.5808 89.8396 92.2269 91.5247 92.21 93.23C92.2028 96.0874 93.1548 98.8645 94.9135 101.116C96.6723 103.368 99.136 104.965 101.91 105.65ZM105.33 86.88C106.286 86.818 107.234 87.0805 108.022 87.625C108.81 88.1696 109.39 88.9641 109.67 89.88C109.749 90.1279 109.806 90.3822 109.84 90.64H100.68C100.928 89.5863 101.52 88.645 102.362 87.9643C103.203 87.2836 104.248 86.9022 105.33 86.88Z" fill="white"/>
<path d="M88.4597 105.22V85.7999C88.4597 85.7999 88.7297 82.3699 85.8497 81.4699C84.0201 80.7943 82.0131 80.7731 80.1697 81.4099C80.0717 81.4616 79.9899 81.5394 79.9334 81.6348C79.877 81.7301 79.848 81.8392 79.8497 81.9499V105.19C79.8497 105.342 79.9094 105.488 80.016 105.597C80.1226 105.705 80.2676 105.767 80.4197 105.77H87.8797C88.0275 105.77 88.1695 105.713 88.2758 105.61C88.3822 105.508 88.4445 105.368 88.4497 105.22" fill="white"/>
<path d="M18.1999 105.83H25.7199C25.8608 105.823 25.994 105.764 26.0937 105.664C26.1935 105.564 26.2527 105.431 26.2599 105.29V92.7702C26.2561 91.6193 26.6721 90.5065 27.4299 89.6402C28.0856 88.8853 29.005 88.4096 29.9999 88.3102C30.1999 88.3102 30.4099 88.3102 30.6199 88.3102C31.2219 88.2852 31.8221 88.3922 32.3783 88.6236C32.9346 88.8551 33.4334 89.2055 33.8399 89.6502C34.4748 90.3561 34.8794 91.2386 34.9999 92.1802C34.9999 92.1802 34.9999 92.2902 34.9999 92.3602C35.0103 92.5401 35.0103 92.7204 34.9999 92.9002V105.24C34.9999 105.316 35.015 105.391 35.0442 105.461C35.0735 105.531 35.1164 105.594 35.1704 105.647C35.2244 105.7 35.2884 105.742 35.3587 105.77C35.429 105.798 35.5042 105.812 35.5799 105.81H43.0999C43.2478 105.813 43.3909 105.758 43.4991 105.658C43.6073 105.557 43.6722 105.418 43.6799 105.27V91.6402C43.6799 85.4702 40.3999 80.4202 33.0399 80.4202C30.5289 80.3571 28.0938 81.2838 26.2599 83.0002V74.6402C26.2599 74.6402 26.5299 71.3502 23.6499 70.4602C21.83 69.7884 19.8337 69.7672 17.9999 70.4002C17.9009 70.4489 17.8174 70.5243 17.7591 70.618C17.7007 70.7117 17.6699 70.8199 17.6699 70.9302V105.29C17.6749 105.432 17.7334 105.566 17.8336 105.667C17.9338 105.767 18.0683 105.825 18.2099 105.83" fill="white"/>
<path d="M5.12049 77.3702C6.07202 78.2055 7.30497 78.6486 8.57049 78.6102C9.82806 78.6367 11.0506 78.1948 12.0005 77.3702C12.4763 76.9507 12.8532 76.4308 13.1039 75.8481C13.3546 75.2653 13.473 74.6342 13.4505 74.0002C13.4749 73.3587 13.3576 72.7196 13.107 72.1285C12.8564 71.5374 12.4786 71.0088 12.0005 70.5802C11.051 69.7318 9.81347 69.2775 8.54049 69.3102C7.27094 69.2801 6.03749 69.7342 5.09049 70.5802C4.62163 71.0131 4.25398 71.544 4.01373 72.1351C3.77347 72.7262 3.66652 73.3631 3.70049 74.0002C3.67063 74.6338 3.78262 75.2661 4.02829 75.8508C4.27396 76.4356 4.64711 76.9581 5.12049 77.3802" fill="white"/>
<path d="M2.00012 117.61C2.55396 117.87 3.15852 118.003 3.77012 118C7.66012 117.91 10.7701 116 12.1401 112.78C12.7445 111.406 13.061 109.922 13.0701 108.42C13.0701 107.42 13.0701 85.8004 13.0701 85.8004C13.0701 85.8004 13.3401 82.3704 10.4601 81.4704L10.2501 81.4104L10.0001 81.3404C8.30128 80.8017 6.47388 80.8263 4.79012 81.4104C4.68951 81.4598 4.60503 81.5368 4.54659 81.6324C4.48815 81.728 4.45816 81.8383 4.46012 81.9504V106.54C4.46012 109.54 4.01012 109.98 0.88012 110.45H0.76012C0.27012 110.45 0.10012 111.35 0.0501199 111.97C0.0501199 112.09 0.0501199 112.24 0.0501199 112.41V112.48H0.000119907C0.000119907 112.78 0.000119907 113.11 0.000119907 113.31C-0.00279452 113.877 0.0474251 114.443 0.15012 115C0.15012 115 0.15012 115.06 0.15012 115.1C0.15012 115.32 0.26012 115.53 0.33012 115.74C0.420246 115.996 0.537589 116.24 0.68012 116.47L0.76012 116.59C1.07697 117.02 1.49638 117.364 1.98012 117.59" fill="white"/>
<path d="M169.17 27.5904C170.437 28.6357 172.028 29.2074 173.67 29.2074C175.312 29.2074 176.903 28.6357 178.17 27.5904C178.786 27.0408 179.272 26.3606 179.592 25.5994C179.912 24.8382 180.058 24.0152 180.02 23.1904C180.055 22.3615 179.908 21.5351 179.588 20.7695C179.268 20.004 178.784 19.3181 178.17 18.7604C176.915 17.6891 175.32 17.1006 173.67 17.1006C172.02 17.1006 170.424 17.6891 169.17 18.7604C168.557 19.3186 168.074 20.0048 167.756 20.7704C167.438 21.536 167.293 22.3622 167.33 23.1904C167.29 24.0145 167.434 24.8373 167.752 25.5985C168.07 26.3598 168.555 27.0403 169.17 27.5904Z" fill="white"/>
<path d="M170 42.29C168.9 43.8285 168.322 45.6789 168.35 47.57C168.341 48.726 168.458 49.8795 168.7 51.01C168.717 51.0751 168.747 51.136 168.789 51.1891C168.83 51.2422 168.882 51.2864 168.941 51.3191C168.999 51.3518 169.064 51.3722 169.131 51.3793C169.198 51.3863 169.266 51.3798 169.33 51.36C175.85 48.52 179.71 44.18 179.71 38.72C179.71 33.92 176.88 31.26 173.41 31.26C172.61 31.2225 171.812 31.3453 171.06 31.6212C170.309 31.8971 169.62 32.3206 169.035 32.8666C168.45 33.4127 167.98 34.0703 167.653 34.8008C167.326 35.5313 167.148 36.3198 167.13 37.12C167.091 38.1617 167.338 39.1941 167.844 40.1055C168.35 41.0168 169.095 41.7723 170 42.29Z" fill="white"/>
<path d="M151.61 12.0002C153.056 13.1951 154.874 13.8488 156.75 13.8488C158.626 13.8488 160.444 13.1951 161.89 12.0002C162.59 11.3749 163.142 10.602 163.507 9.73736C163.872 8.87269 164.04 7.93781 164 7.00018C164.042 6.05261 163.873 5.10754 163.507 4.23273C163.14 3.35792 162.585 2.57503 161.88 1.94018C160.446 0.719293 158.624 0.0488281 156.74 0.0488281C154.856 0.0488281 153.034 0.719293 151.6 1.94018C150.902 2.57869 150.353 3.36298 149.991 4.23743C149.63 5.11189 149.466 6.05509 149.51 7.00018C149.47 7.93686 149.637 8.87083 150 9.73522C150.363 10.5996 150.913 11.3731 151.61 12.0002Z" fill="white"/>
<path d="M149.581 70.0003C150.823 69.9733 152.059 69.7987 153.261 69.4803C154.747 69.1072 156.172 68.5211 157.491 67.7403C158.934 66.8984 160.217 65.8083 161.281 64.5203C162.478 63.0605 163.335 61.3526 163.791 59.5203C164.147 58.101 164.368 56.6512 164.451 55.1903C164.551 53.5903 164.591 52.2503 164.591 51.1903C164.591 51.1903 164.591 29.6403 164.591 25.8603V25.3103C164.591 25.1603 164.591 24.0403 164.591 23.8903C164.58 22.552 164.147 21.2512 163.353 20.1737C162.56 19.0962 161.446 18.297 160.171 17.8903C154.251 16.0503 150.481 17.7803 150.481 17.7803C150.309 17.8642 150.165 17.9954 150.066 18.1584C149.967 18.3215 149.916 18.5095 149.921 18.7003V52.2603C149.929 53.2682 149.828 54.274 149.621 55.2603C149.435 56.1364 149.056 56.9598 148.511 57.6703C147.894 58.4113 147.108 58.9942 146.221 59.3703C144.854 59.8967 143.413 60.2071 141.951 60.2903C141.76 60.3051 141.582 60.39 141.451 60.5286C141.32 60.6672 141.245 60.8495 141.241 61.0403C141.103 63.1013 141.103 65.1692 141.241 67.2303C141.401 70.1303 149.641 70.0203 149.641 70.0203" fill="white"/>
</g>
<defs>
<clipPath id="clip0_216_2549">
<rect width="180" height="118.09" fill="white"/>
</clipPath>
</defs>
</svg>
