<svg width="6" height="18" viewBox="0 0 6 18" fill="none" xmlns="http://www.w3.org/2000/svg">
<path d="M2.99961 17.4C4.32509 17.4 5.39961 16.3255 5.39961 15C5.39961 13.6745 4.32509 12.6 2.99961 12.6C1.67413 12.6 0.599609 13.6745 0.599609 15C0.599609 16.3255 1.67413 17.4 2.99961 17.4Z" fill="#070808"/>
<path d="M2.99961 11.4C4.32509 11.4 5.39961 10.3255 5.39961 9.00001C5.39961 7.67452 4.32509 6.60001 2.99961 6.60001C1.67413 6.60001 0.599609 7.67452 0.599609 9.00001C0.599609 10.3255 1.67413 11.4 2.99961 11.4Z" fill="#070808"/>
<path d="M2.99961 5.40001C4.32509 5.40001 5.39961 4.32549 5.39961 3.00001C5.39961 1.67452 4.32509 0.600006 2.99961 0.600006C1.67413 0.600006 0.599609 1.67452 0.599609 3.00001C0.599609 4.32549 1.67413 5.40001 2.99961 5.40001Z" fill="#070808"/>
</svg>
