<svg width="24" height="25" viewBox="0 0 24 25" fill="none" xmlns="http://www.w3.org/2000/svg">
<path d="M4 12.5898V19.0898C4 19.4877 4.15804 19.8692 4.43934 20.1505C4.72064 20.4318 5.10218 20.5898 5.5 20.5898H18.5C18.8978 20.5898 19.2794 20.4318 19.5607 20.1505C19.842 19.8692 20 19.4877 20 19.0898V12.5898" stroke="white" stroke-width="2" stroke-linecap="round" stroke-linejoin="round"/>
<path d="M2.5 7.58984C2.5 7.32463 2.60536 7.07027 2.79289 6.88274C2.98043 6.6952 3.23478 6.58984 3.5 6.58984H20.5C20.7652 6.58984 21.0196 6.6952 21.2071 6.88274C21.3946 7.07027 21.5 7.32463 21.5 7.58984V11.5898C21.5 11.8551 21.3946 12.1094 21.2071 12.297C21.0196 12.4845 20.7652 12.5898 20.5 12.5898H3.5C3.23478 12.5898 2.98043 12.4845 2.79289 12.297C2.60536 12.1094 2.5 11.8551 2.5 11.5898V7.58984Z" stroke="white" stroke-width="2" stroke-linejoin="round"/>
<path d="M15.5 6.58984V4.58984C15.5 4.32463 15.3946 4.07027 15.2071 3.88274C15.0196 3.6952 14.7652 3.58984 14.5 3.58984H9.5C9.23478 3.58984 8.98043 3.6952 8.79289 3.88274C8.60536 4.07027 8.5 4.32463 8.5 4.58984V6.58984M7.5 11.5898V14.5898M16.5 11.5898V14.5898" stroke="white" stroke-width="2" stroke-linecap="round" stroke-linejoin="round"/>
</svg>
