<svg width="21" height="21" viewBox="0 0 21 21" fill="none" xmlns="http://www.w3.org/2000/svg">
<path d="M16.8199 3.67999C16.4599 4.03999 16.4299 4.59999 16.7499 4.99999C18.1999 6.81999 18.9599 9.30999 18.2799 11.92C17.4899 14.97 15.0999 17.25 12.0699 17.86C6.9699 18.87 2.4999 14.93 2.4999 9.99999C2.4999 5.91999 5.5499 2.55999 9.4999 2.06999V4.08999C7.94575 4.35269 6.55738 5.21639 5.63487 6.49443C4.71237 7.77247 4.32981 9.36218 4.5699 10.92C4.9599 13.53 7.1299 15.63 9.7499 15.95C10.8935 16.0934 12.0541 15.9045 13.0932 15.4057C14.1322 14.907 15.0056 14.1195 15.6089 13.1376C16.2122 12.1556 16.52 11.0206 16.4953 9.86832C16.4707 8.71606 16.1147 7.59528 15.4699 6.63999C15.1299 6.13999 14.3999 6.10999 13.9699 6.52999L13.9599 6.53999C13.6199 6.87999 13.5899 7.40999 13.8499 7.80999C14.4499 8.72999 14.6899 9.90999 14.3399 11.13C14.1407 11.8115 13.7631 12.4276 13.2463 12.9145C12.7295 13.4015 12.0921 13.7417 11.3999 13.9C10.8133 14.0354 10.2038 14.0367 9.61663 13.9038C9.02949 13.7709 8.47993 13.5071 8.00892 13.1323C7.5379 12.7574 7.15757 12.281 6.89629 11.7386C6.63501 11.1963 6.49951 10.602 6.4999 9.99999C6.4999 8.13999 7.7799 6.58999 9.4999 6.13999V8.27999C8.8999 8.62999 8.4999 9.25999 8.4999 9.99999C8.4999 11.1 9.3999 12 10.4999 12C11.5999 12 12.4999 11.1 12.4999 9.99999C12.4999 9.25999 12.0999 8.61999 11.4999 8.27999V0.70999C11.4999 0.31999 11.1799 -9.85106e-06 10.7899 -9.85106e-06C5.4299 -0.20001 0.8099 4.05999 0.5199 9.39999C0.1599 15.95 5.9299 21.22 12.5299 19.8C16.4099 18.97 19.4099 16 20.2799 12.13C20.9899 8.96999 20.0799 5.96999 18.3099 3.75999C18.2219 3.65001 18.1116 3.55987 17.9863 3.49547C17.861 3.43108 17.7235 3.39389 17.5828 3.38634C17.4421 3.37878 17.3015 3.40104 17.17 3.45164C17.0385 3.50225 16.9192 3.58007 16.8199 3.67999Z" fill="#F8F9FA"/>
</svg>
