<svg width="31" height="30" viewBox="0 0 31 30" fill="none" xmlns="http://www.w3.org/2000/svg">
<g clip-path="url(#clip0_86_918)">
<path fill-rule="evenodd" clip-rule="evenodd" d="M25.5815 4.89871H16.3304V3.04849C16.3304 2.53757 15.9162 2.12338 15.4053 2.12338C14.8944 2.12338 14.4802 2.53757 14.4802 3.04849V4.89871H5.22907C4.20722 4.89871 3.37885 5.72709 3.37885 6.74893V20.6256C3.37885 21.6474 4.20722 22.4758 5.22907 22.4758H9.78061L7.28165 25.5981C6.96233 25.9972 7.02704 26.5797 7.4262 26.899C7.82536 27.2183 8.40781 27.1536 8.72714 26.7544L12.1489 22.4758H18.6617L22.0834 26.7544C22.4027 27.1536 22.9852 27.2183 23.3844 26.899C23.7835 26.5797 23.8482 25.9972 23.5289 25.5981L21.0299 22.4758H25.5815C26.6033 22.4758 27.4317 21.6474 27.4317 20.6256V6.74893C27.4317 5.72709 26.6033 4.89871 25.5815 4.89871ZM25.5815 20.6256H5.22907V6.74893H25.5815V20.6256ZM12.6299 14.1498V16.9251C12.6299 17.4361 12.2158 17.8503 11.7048 17.8503C11.1939 17.8503 10.7797 17.4361 10.7797 16.9251V14.1498C10.7797 13.6389 11.1939 13.2247 11.7048 13.2247C12.2158 13.2247 12.6299 13.6389 12.6299 14.1498ZM16.3304 12.2996V16.9251C16.3304 17.4361 15.9162 17.8503 15.4053 17.8503C14.8944 17.8503 14.4802 17.4361 14.4802 16.9251V12.2996C14.4802 11.7887 14.8944 11.3745 15.4053 11.3745C15.9162 11.3745 16.3304 11.7887 16.3304 12.2996ZM20.0308 10.4494V16.9251C20.0308 17.4361 19.6166 17.8503 19.1057 17.8503C18.5948 17.8503 18.1806 17.4361 18.1806 16.9251V10.4494C18.1806 9.93845 18.5948 9.52426 19.1057 9.52426C19.6166 9.52426 20.0308 9.93845 20.0308 10.4494Z" fill="#070808"/>
</g>
<defs>
<clipPath id="clip0_86_918">
<rect width="29.6035" height="29.6035" fill="white" transform="translate(0.603516 0.273163)"/>
</clipPath>
</defs>
</svg>
