<svg width="31" height="31" viewBox="0 0 31 31" fill="none" xmlns="http://www.w3.org/2000/svg">
<g clip-path="url(#clip0_86_931)">
<path fill-rule="evenodd" clip-rule="evenodd" d="M30.207 16.4714C30.207 16.9823 29.7929 17.3965 29.2819 17.3965H27.4317V19.2467C27.4317 19.7576 27.0175 20.1718 26.5066 20.1718C25.9957 20.1718 25.5815 19.7576 25.5815 19.2467V17.3965H23.7313C23.2203 17.3965 22.8062 16.9823 22.8062 16.4714C22.8062 15.9605 23.2203 15.5463 23.7313 15.5463H25.5815V13.696C25.5815 13.1851 25.9957 12.7709 26.5066 12.7709C27.0175 12.7709 27.4317 13.1851 27.4317 13.696V15.5463H29.2819C29.7929 15.5463 30.207 15.9605 30.207 16.4714ZM23.515 23.2767C23.8439 23.6682 23.7932 24.2522 23.4017 24.5811C23.0102 24.91 22.4262 24.8593 22.0973 24.4678C19.7706 21.6971 16.5721 20.1718 13.0925 20.1718C9.61293 20.1718 6.41436 21.6971 4.08771 24.4678C3.7588 24.859 3.17506 24.9095 2.78388 24.5805C2.39271 24.2516 2.34223 23.6679 2.67114 23.2767C4.39878 21.2207 6.54735 19.7601 8.93529 18.9784C5.95573 17.1227 4.56702 13.5168 5.5321 10.1418C6.49717 6.76688 9.58228 4.44032 13.0925 4.44032C16.6027 4.44032 19.6878 6.76688 20.6529 10.1418C21.618 13.5168 20.2293 17.1227 17.2497 18.9784C19.6377 19.7601 21.7862 21.2207 23.515 23.2767ZM13.0925 18.3216C16.4135 18.3216 19.1057 15.6294 19.1057 12.3084C19.1057 8.98738 16.4135 6.29517 13.0925 6.29517C9.77149 6.29517 7.07929 8.98738 7.07929 12.3084C7.08311 15.6278 9.77308 18.3178 13.0925 18.3216Z" fill="#070808"/>
</g>
<defs>
<clipPath id="clip0_86_931">
<rect width="29.6035" height="29.6035" fill="white" transform="translate(0.603516 0.744507)"/>
</clipPath>
</defs>
</svg>
