<svg width="34" height="33" viewBox="0 0 34 33" fill="none" xmlns="http://www.w3.org/2000/svg">
<path fill-rule="evenodd" clip-rule="evenodd" d="M33.0812 30.125C30.7016 26.0109 27.0344 23.0609 22.7547 21.6625C27.1059 19.0722 29.1903 13.894 27.847 9.01149C26.5037 4.12902 22.0639 0.745749 17 0.745749C11.9361 0.745749 7.49631 4.12902 6.15303 9.01149C4.80975 13.894 6.89408 19.0722 11.2453 21.6625C6.96563 23.0594 3.29844 26.0094 0.91875 30.125C0.681172 30.5124 0.672545 30.9982 0.896219 31.3938C1.11989 31.7893 1.54063 32.0324 1.99504 32.0285C2.44946 32.0246 2.86596 31.7744 3.08281 31.375C6.02656 26.2875 11.2297 23.25 17 23.25C22.7703 23.25 27.9734 26.2875 30.9172 31.375C31.134 31.7744 31.5505 32.0246 32.005 32.0285C32.4594 32.0324 32.8801 31.7893 33.1038 31.3938C33.3275 30.9982 33.3188 30.5124 33.0812 30.125ZM8.25 12C8.25 7.16751 12.1675 3.25 17 3.25C21.8325 3.25 25.75 7.16751 25.75 12C25.75 16.8325 21.8325 20.75 17 20.75C12.1697 20.7448 8.25517 16.8303 8.25 12Z" fill="#121717"/>
</svg>
